SplineFontDB: 3.2
FontName: Open24DisplaySt
FullName: Open 24 Display St
FamilyName: Open 24 Display St
Weight: Book
Copyright: Open 24 Display st | this font is an original design of southype | free for personal use.
Version: 1.00 June 6, 2014, initial release
ItalicAngle: 0
UnderlinePosition: -292
UnderlineWidth: 150
Ascent: 1638
Descent: 410
InvalidEm: 0
sfntRevision: 0x00010000
LayerCount: 2
Layer: 0 1 "Back" 1
Layer: 1 1 "Fore" 0
XUID: [1021 151 -77437165 6731]
StyleMap: 0x0040
FSType: 8
OS2Version: 3
OS2_WeightWidthSlopeOnly: 0
OS2_UseTypoMetrics: 0
CreationTime: 1401998633
ModificationTime: 1611965081
PfmFamily: 17
TTFWeight: 400
TTFWidth: 5
LineGap: 0
VLineGap: 0
Panose: 2 0 5 0 0 0 0 0 0 0
OS2TypoAscent: 1428
OS2TypoAOffset: 0
OS2TypoDescent: 0
OS2TypoDOffset: 0
OS2TypoLinegap: 205
OS2WinAscent: 2115
OS2WinAOffset: 0
OS2WinDescent: 280
OS2WinDOffset: 0
HheadAscent: 2115
HheadAOffset: 0
HheadDescent: -270
HheadDOffset: 0
OS2SubXSize: 1434
OS2SubYSize: 1331
OS2SubXOff: 0
OS2SubYOff: 283
OS2SupXSize: 1434
OS2SupYSize: 1331
OS2SupXOff: 0
OS2SupYOff: 977
OS2StrikeYSize: 102
OS2StrikeYPos: 530
OS2CapHeight: 1434
OS2XHeight: 1024
OS2Vendor: 'HL  '
OS2CodePages: 20000111.41000000
OS2UnicodeRanges: 800000a7.5000004a.00000000.00000000
DEI: 91125
ShortTable: maxp 16
  1
  0
  236
  132
  12
  99
  9
  2
  0
  0
  0
  0
  0
  12
  2
  1
EndShort
LangName: 1033 "" "" "Regular" "Open 24 Display St:Version 1.00" "" "Version 1.00 June 6, 2014, initial release" "" "" "http://www.southype.com" "http://www.southype.com" "http://www.southype.com" "http://www.southype.com" "http://www.southype.com"
LangName: 1027 "" "" "Normal"
LangName: 1029 "" "" "oby+AQ0A-ejn+AOkA"
LangName: 1030 "" "" "normal"
LangName: 1031 "" "" "Standard"
LangName: 1032 "" "" "+A5oDsQO9A78DvQO5A7oDrAAA"
LangName: 1034 "" "" "Normal"
LangName: 1035 "" "" "Normaali"
LangName: 1036 "" "" "Normal"
LangName: 1038 "" "" "Norm+AOEA-l"
LangName: 1040 "" "" "Normale"
LangName: 1043 "" "" "Standaard"

StartChar: .notdef
Encoding: 65536 -1 0
Width: 1024
Flags: W
LayerCount: 2
Fore
SplineSet
100 0 m 1,0,-1
 100 1434 l 1,1,-1
 924 1434 l 1,2,-1
 924 0 l 1,3,-1
 100 0 l 1,0,-1
150 50 m 1,4,-1
 874 50 l 1,5,-1
 874 1384 l 1,6,-1
 150 1384 l 1,7,-1
 150 50 l 1,4,-1
325 1148 m 1,8,9
 356 1176 356 1176 383 1191 c 0,10,11
 436 1221 436 1221 495 1221 c 0,12,13
 587 1221 587 1221 643 1173.5 c 128,-1,14
 699 1126 699 1126 699 1046 c 0,15,16
 699 997 699 997 676 947.5 c 128,-1,17
 653 898 653 898 589 818 c 0,18,19
 526 738 526 738 490 686 c 128,-1,20
 454 634 454 634 454 587 c 0,21,22
 454 549 454 549 478 454 c 1,23,-1
 446 454 l 1,24,25
 411 551 411 551 411 602 c 0,26,27
 411 678 411 678 492.5 820 c 128,-1,28
 574 962 574 962 574 1037 c 0,29,30
 574 1094 574 1094 541 1127 c 128,-1,31
 508 1160 508 1160 450 1160 c 0,32,33
 412 1160 412 1160 381 1143 c 0,34,35
 355 1128 355 1128 325 1103 c 1,36,-1
 325 1148 l 1,8,9
389 334 m 2,37,-1
 446 392 l 2,38,39
 457 402 457 402 466 402 c 0,40,41
 476 402 476 402 488 391 c 2,42,-1
 544 331 l 2,43,44
 553 320 553 320 553 311 c 0,45,46
 553 300 553 300 543 289 c 2,47,-1
 487 227 l 2,48,49
 473 213 473 213 466 213 c 0,50,51
 455 213 455 213 446 223 c 2,52,-1
 385 294 l 2,53,54
 378 303 378 303 378 312 c 0,55,56
 378 322 378 322 389 334 c 2,37,-1
EndSplineSet
EndChar

StartChar: exclam
Encoding: 33 33 4
Width: 311
Flags: W
LayerCount: 2
Fore
SplineSet
68 1424 m 0,0,1
 73 1424 73 1424 188 1304 c 1,2,-1
 188 980 l 2,3,4
 188 975 188 975 68 860 c 0,5,6
 63 860 63 860 28 900 c 1,7,-1
 28 1384 l 2,8,9
 28 1389 28 1389 68 1424 c 0,0,1
148 888 m 0,10,11
 153 888 153 888 188 848 c 1,12,-1
 188 368 l 2,13,14
 188 363 188 363 148 328 c 0,15,16
 143 328 143 328 28 448 c 1,17,-1
 28 768 l 2,18,19
 28 773 28 773 148 888 c 0,10,11
64 240 m 1,20,-1
 148 240 l 2,21,22
 156 239 156 239 156 232 c 2,23,-1
 156 228 l 1,24,25
 112 172 112 172 92 172 c 2,26,-1
 84 172 l 2,27,28
 63 172 63 172 36 208 c 1,29,-1
 36 212 l 2,30,31
 36 218 36 218 64 240 c 1,20,-1
176 200 m 1,32,-1
 180 200 l 2,33,34
 185 200 185 200 216 164 c 1,35,-1
 216 80 l 2,36,37
 216 74 216 74 204 68 c 1,38,-1
 200 68 l 1,39,40
 148 111 148 111 148 116 c 2,41,-1
 148 152 l 2,42,43
 148 184 148 184 176 200 c 1,32,-1
16 176 m 0,44,45
 22 176 22 176 68 124 c 1,46,-1
 68 72 l 1,47,48
 44 48 44 48 44 40 c 1,49,-1
 36 40 l 2,50,51
 31 40 31 40 0 76 c 1,52,-1
 0 160 l 2,53,54
 0 166 0 166 16 176 c 0,44,45
112 68 m 1,55,-1
 132 68 l 2,56,57
 157 68 157 68 184 32 c 0,58,59
 184 27 184 27 152 0 c 1,60,-1
 68 0 l 2,61,62
 60 0 60 0 60 8 c 2,63,-1
 60 12 l 2,64,65
 60 22 60 22 112 68 c 1,55,-1
EndSplineSet
EndChar

StartChar: quotedbl
Encoding: 34 34 5
Width: 406
Flags: W
LayerCount: 2
Fore
SplineSet
20 2115 m 0,0,1
 25 2115 25 2115 80 2055 c 1,2,-1
 80 1843 l 2,3,4
 80 1838 80 1838 20 1783 c 0,5,6
 15 1783 15 1783 0 1803 c 1,7,-1
 0 2095 l 2,8,9
 0 2100 0 2100 20 2115 c 0,0,1
221 2115 m 0,10,11
 226 2115 226 2115 281 2055 c 1,12,-1
 281 1843 l 2,13,14
 281 1838 281 1838 221 1783 c 0,15,16
 216 1783 216 1783 201 1803 c 1,17,-1
 201 2095 l 2,18,19
 201 2100 201 2100 221 2115 c 0,10,11
EndSplineSet
EndChar

StartChar: numbersign
Encoding: 35 35 6
Width: 2104
Flags: W
LayerCount: 2
Fore
SplineSet
1068 1428 m 1,0,1
 1084 1392 1084 1392 1084 1372 c 1,2,3
 879 984 879 984 852 952 c 1,4,5
 845 952 845 952 700 904 c 1,6,7
 684 934 684 934 684 964 c 1,8,9
 891 1352 891 1352 912 1380 c 1,10,11
 1059 1428 1059 1428 1068 1428 c 1,0,1
1736 1428 m 1,12,13
 1752 1392 1752 1392 1752 1372 c 1,14,15
 1547 984 1547 984 1520 952 c 1,16,17
 1513 952 1513 952 1368 904 c 1,18,19
 1352 934 1352 934 1352 964 c 1,20,21
 1559 1352 1559 1352 1580 1380 c 1,22,23
 1727 1428 1727 1428 1736 1428 c 1,12,13
260 1012 m 1,24,-1
 588 1012 l 2,25,26
 593 1012 593 1012 628 972 c 0,27,28
 628 967 628 967 508 852 c 1,29,-1
 340 852 l 2,30,31
 335 852 335 852 220 972 c 0,32,33
 220 977 220 977 260 1012 c 1,24,-1
956 996 m 1,34,-1
 1284 996 l 2,35,36
 1289 996 1289 996 1324 956 c 0,37,38
 1324 951 1324 951 1204 836 c 1,39,-1
 1036 836 l 2,40,41
 1031 836 1031 836 916 956 c 0,42,43
 916 961 916 961 956 996 c 1,34,-1
1612 996 m 1,44,-1
 1940 996 l 2,45,46
 1945 996 1945 996 1980 956 c 0,47,48
 1980 951 1980 951 1860 836 c 1,49,-1
 1692 836 l 2,50,51
 1687 836 1687 836 1572 956 c 0,52,53
 1572 961 1572 961 1612 996 c 1,44,-1
824 928 m 1,54,55
 840 898 840 898 840 868 c 1,56,57
 633 480 633 480 612 452 c 1,58,59
 465 404 465 404 456 404 c 1,60,61
 440 440 440 440 440 460 c 1,62,63
 645 848 645 848 672 880 c 1,64,65
 679 880 679 880 824 928 c 1,54,55
1492 928 m 1,66,67
 1508 898 1508 898 1508 868 c 1,68,69
 1301 480 1301 480 1280 452 c 1,70,71
 1133 404 1133 404 1124 404 c 1,72,73
 1108 440 1108 440 1108 460 c 1,74,75
 1313 848 1313 848 1340 880 c 1,76,77
 1347 880 1347 880 1492 928 c 1,66,67
120 580 m 1,78,-1
 288 580 l 2,79,80
 293 580 293 580 408 460 c 0,81,82
 408 455 408 455 368 420 c 1,83,-1
 40 420 l 2,84,85
 35 420 35 420 0 460 c 0,86,87
 0 465 0 465 120 580 c 1,78,-1
804 580 m 1,88,-1
 972 580 l 2,89,90
 977 580 977 580 1092 460 c 0,91,92
 1092 455 1092 455 1052 420 c 1,93,-1
 724 420 l 2,94,95
 719 420 719 420 684 460 c 0,96,97
 684 465 684 465 804 580 c 1,88,-1
1472 580 m 1,98,-1
 1640 580 l 2,99,100
 1645 580 1645 580 1760 460 c 0,101,102
 1760 455 1760 455 1720 420 c 1,103,-1
 1392 420 l 2,104,105
 1387 420 1387 420 1352 460 c 0,106,107
 1352 465 1352 465 1472 580 c 1,98,-1
580 420 m 1,108,109
 589 407 589 407 596 364 c 1,110,111
 415 43 415 43 388 12 c 1,112,113
 351 0 351 0 340 0 c 1,114,115
 333 9 333 9 292 160 c 1,116,117
 406 374 406 374 428 380 c 0,118,119
 573 420 573 420 580 420 c 1,108,109
1248 420 m 1,120,121
 1257 407 1257 407 1264 364 c 1,122,123
 1083 43 1083 43 1056 12 c 1,124,125
 1019 0 1019 0 1008 0 c 1,126,127
 1001 9 1001 9 960 160 c 1,128,129
 1074 374 1074 374 1096 380 c 0,130,131
 1241 420 1241 420 1248 420 c 1,120,121
EndSplineSet
EndChar

StartChar: dollar
Encoding: 36 36 7
Width: 907
Flags: W
LayerCount: 2
Fore
SplineSet
320 1714 m 0,0,1
 325 1714 325 1714 440 1594 c 1,2,-1
 440 1490 l 2,3,4
 440 1482 440 1482 432 1482 c 2,5,-1
 288 1482 l 2,6,7
 280 1482 280 1482 280 1490 c 2,8,-1
 280 1674 l 2,9,10
 280 1679 280 1679 320 1714 c 0,0,1
120 1426 m 1,11,-1
 688 1426 l 2,12,13
 693 1426 693 1426 728 1386 c 0,14,15
 728 1381 728 1381 608 1266 c 1,16,-1
 200 1266 l 2,17,18
 195 1266 195 1266 80 1386 c 0,19,20
 80 1391 80 1391 120 1426 c 1,11,-1
40 1382 m 0,21,22
 45 1382 45 1382 160 1262 c 1,23,-1
 160 854 l 2,24,25
 160 849 160 849 40 734 c 0,26,27
 35 734 35 734 0 774 c 1,28,-1
 0 1342 l 2,29,30
 0 1347 0 1347 40 1382 c 0,21,22
296 1234 m 2,31,-1
 424 1234 l 2,32,33
 432 1233 432 1233 432 1226 c 2,34,-1
 432 858 l 2,35,36
 432 850 432 850 424 850 c 2,37,-1
 296 850 l 2,38,39
 288 850 288 850 288 858 c 2,40,-1
 288 1226 l 2,41,42
 289 1234 289 1234 296 1234 c 2,31,-1
160 798 m 1,43,-1
 632 798 l 2,44,45
 637 798 637 798 712 718 c 1,46,-1
 712 714 l 2,47,48
 712 709 712 709 632 634 c 1,49,-1
 160 634 l 2,50,51
 155 634 155 634 80 714 c 1,52,-1
 80 718 l 2,53,54
 80 723 80 723 160 798 c 1,43,-1
764 690 m 0,55,56
 769 690 769 690 804 650 c 1,57,-1
 804 82 l 2,58,59
 804 77 804 77 764 42 c 0,60,61
 759 42 759 42 644 162 c 1,62,-1
 644 570 l 2,63,64
 644 575 644 575 764 690 c 0,55,56
296 590 m 2,65,-1
 424 590 l 2,66,67
 432 589 432 589 432 582 c 2,68,-1
 432 214 l 2,69,70
 432 206 432 206 424 206 c 2,71,-1
 296 206 l 2,72,73
 288 206 288 206 288 214 c 2,74,-1
 288 582 l 2,75,76
 289 590 289 590 296 590 c 2,65,-1
196 158 m 1,77,-1
 604 158 l 2,78,79
 609 158 609 158 724 38 c 0,80,81
 724 33 724 33 684 -2 c 1,82,-1
 116 -2 l 2,83,84
 111 -2 111 -2 76 38 c 0,85,86
 76 43 76 43 196 158 c 1,77,-1
288 -38 m 2,87,-1
 432 -38 l 2,88,89
 440 -39 440 -39 440 -46 c 2,90,-1
 440 -230 l 2,91,92
 440 -235 440 -235 400 -270 c 0,93,94
 395 -270 395 -270 280 -150 c 1,95,-1
 280 -46 l 2,96,97
 281 -38 281 -38 288 -38 c 2,87,-1
EndSplineSet
EndChar

StartChar: percent
Encoding: 37 37 8
Width: 907
Flags: W
LayerCount: 2
Fore
SplineSet
88 1428 m 1,0,-1
 196 1428 l 2,1,2
 201 1428 201 1428 216 1408 c 1,3,-1
 216 1404 l 2,4,5
 216 1399 216 1399 152 1340 c 1,6,-1
 44 1340 l 2,7,8
 39 1340 39 1340 24 1360 c 1,9,-1
 24 1364 l 2,10,11
 24 1369 24 1369 88 1428 c 1,0,-1
788 1428 m 1,12,13
 804 1392 804 1392 804 1372 c 1,14,15
 599 984 599 984 572 952 c 1,16,17
 565 952 565 952 420 904 c 1,18,19
 404 934 404 934 404 964 c 1,20,21
 611 1352 611 1352 632 1380 c 1,22,23
 779 1428 779 1428 788 1428 c 1,12,13
220 1388 m 1,24,-1
 224 1388 l 2,25,26
 229 1388 229 1388 288 1324 c 1,27,-1
 288 1216 l 2,28,29
 288 1211 288 1211 268 1196 c 1,30,-1
 264 1196 l 2,31,32
 259 1196 259 1196 200 1260 c 1,33,-1
 200 1368 l 2,34,35
 200 1373 200 1373 220 1388 c 1,24,-1
20 1340 m 1,36,-1
 24 1340 l 2,37,38
 29 1340 29 1340 88 1276 c 1,39,-1
 88 1168 l 2,40,41
 88 1163 88 1163 68 1148 c 1,42,-1
 64 1148 l 2,43,44
 59 1148 59 1148 0 1212 c 1,45,-1
 0 1320 l 2,46,47
 0 1325 0 1325 20 1340 c 1,36,-1
136 1196 m 1,48,-1
 244 1196 l 2,49,50
 249 1196 249 1196 264 1176 c 1,51,-1
 264 1172 l 2,52,53
 264 1167 264 1167 200 1108 c 1,54,-1
 92 1108 l 2,55,56
 87 1108 87 1108 72 1128 c 1,57,-1
 72 1132 l 2,58,59
 72 1137 72 1137 136 1196 c 1,48,-1
544 928 m 1,60,61
 560 898 560 898 560 868 c 1,62,63
 353 480 353 480 332 452 c 1,64,65
 185 404 185 404 176 404 c 1,66,67
 160 440 160 440 160 460 c 1,68,69
 365 848 365 848 392 880 c 1,70,71
 399 880 399 880 544 928 c 1,60,61
300 420 m 1,72,73
 309 407 309 407 316 364 c 1,74,75
 135 43 135 43 108 12 c 1,76,77
 71 0 71 0 60 0 c 1,78,79
 53 9 53 9 12 160 c 1,80,81
 126 374 126 374 148 380 c 0,82,83
 293 420 293 420 300 420 c 1,72,73
604 320 m 1,84,-1
 712 320 l 2,85,86
 717 320 717 320 732 300 c 1,87,-1
 732 296 l 2,88,89
 732 291 732 291 668 232 c 1,90,-1
 560 232 l 2,91,92
 555 232 555 232 540 252 c 1,93,-1
 540 256 l 2,94,95
 540 261 540 261 604 320 c 1,84,-1
736 280 m 1,96,-1
 740 280 l 2,97,98
 745 280 745 280 804 216 c 1,99,-1
 804 108 l 2,100,101
 804 103 804 103 784 88 c 1,102,-1
 780 88 l 2,103,104
 775 88 775 88 716 152 c 1,105,-1
 716 260 l 2,106,107
 716 265 716 265 736 280 c 1,96,-1
536 232 m 1,108,-1
 540 232 l 2,109,110
 545 232 545 232 604 168 c 1,111,-1
 604 60 l 2,112,113
 604 55 604 55 584 40 c 1,114,-1
 580 40 l 2,115,116
 575 40 575 40 516 104 c 1,117,-1
 516 212 l 2,118,119
 516 217 516 217 536 232 c 1,108,-1
652 88 m 1,120,-1
 760 88 l 2,121,122
 765 88 765 88 780 68 c 1,123,-1
 780 64 l 2,124,125
 780 59 780 59 716 0 c 1,126,-1
 608 0 l 2,127,128
 603 0 603 0 588 20 c 1,129,-1
 588 24 l 2,130,131
 588 29 588 29 652 88 c 1,120,-1
EndSplineSet
EndChar

StartChar: ampersand
Encoding: 38 38 9
Width: 1267
Flags: W
LayerCount: 2
Fore
SplineSet
200 1436 m 1,0,-1
 528 1436 l 2,1,2
 533 1436 533 1436 568 1396 c 0,3,4
 568 1391 568 1391 448 1276 c 1,5,-1
 280 1276 l 2,6,7
 275 1276 275 1276 160 1396 c 0,8,9
 160 1401 160 1401 200 1436 c 1,0,-1
608 1364 m 0,10,11
 613 1364 613 1364 648 1324 c 1,12,-1
 648 996 l 2,13,14
 648 991 648 991 608 956 c 0,15,16
 603 956 603 956 488 1076 c 1,17,-1
 488 1244 l 2,18,19
 488 1249 488 1249 608 1364 c 0,10,11
156 1340 m 0,20,21
 161 1340 161 1340 276 1220 c 1,22,-1
 276 1052 l 2,23,24
 276 1047 276 1047 156 932 c 0,25,26
 151 932 151 932 116 972 c 1,27,-1
 116 1300 l 2,28,29
 116 1305 116 1305 156 1340 c 0,20,21
308 1020 m 1,30,-1
 476 1020 l 2,31,32
 481 1020 481 1020 596 900 c 0,33,34
 596 895 596 895 556 860 c 1,35,-1
 228 860 l 2,36,37
 223 860 223 860 188 900 c 0,38,39
 188 905 188 905 308 1020 c 1,30,-1
84 820 m 1,40,-1
 652 820 l 2,41,42
 657 820 657 820 692 780 c 0,43,44
 692 775 692 775 572 660 c 1,45,-1
 164 660 l 2,46,47
 159 660 159 660 44 780 c 0,48,49
 44 785 44 785 84 820 c 1,40,-1
716 748 m 0,50,51
 721 748 721 748 756 708 c 1,52,-1
 756 536 l 1,53,-1
 796 572 l 1,54,-1
 1124 572 l 2,55,56
 1129 572 1129 572 1164 532 c 0,57,58
 1164 527 1164 527 1044 412 c 1,59,-1
 876 412 l 1,60,-1
 756 528 l 1,61,-1
 756 204 l 1,62,-1
 876 320 l 1,63,-1
 1044 320 l 2,64,65
 1049 320 1049 320 1164 200 c 0,66,67
 1164 195 1164 195 1124 160 c 1,68,-1
 796 160 l 1,69,-1
 756 196 l 1,70,-1
 756 140 l 2,71,72
 756 135 756 135 716 100 c 0,73,74
 711 100 711 100 596 220 c 1,75,-1
 596 628 l 2,76,77
 596 633 596 633 716 748 c 0,50,51
40 736 m 0,78,79
 45 736 45 736 160 616 c 1,80,-1
 160 208 l 2,81,82
 160 203 160 203 40 88 c 0,83,84
 35 88 35 88 0 128 c 1,85,-1
 0 696 l 2,86,87
 0 701 0 701 40 736 c 0,78,79
164 160 m 1,88,-1
 572 160 l 2,89,90
 577 160 577 160 692 40 c 0,91,92
 692 35 692 35 652 0 c 1,93,-1
 84 0 l 2,94,95
 79 0 79 0 44 40 c 0,96,97
 44 45 44 45 164 160 c 1,88,-1
EndSplineSet
EndChar

StartChar: quotesingle
Encoding: 39 39 10
Width: 205
Flags: W
LayerCount: 2
Fore
SplineSet
20 2115 m 0,0,1
 25 2115 25 2115 80 2055 c 1,2,-1
 80 1843 l 2,3,4
 80 1838 80 1838 20 1783 c 0,5,6
 15 1783 15 1783 0 1803 c 1,7,-1
 0 2095 l 2,8,9
 0 2100 0 2100 20 2115 c 0,0,1
EndSplineSet
EndChar

StartChar: parenleft
Encoding: 40 40 11
Width: 599
Flags: W
LayerCount: 2
Fore
SplineSet
460 1332 m 0,1,2
 381 1248 381 1248 376 1248 c 2,3,-1
 176 1248 l 1,4,5
 92 1327 92 1327 92 1332 c 0,6,7
 167 1412 167 1412 172 1412 c 2,8,-1
 380 1412 l 1,9,0
 460 1337 460 1337 460 1332 c 0,1,2
164 1172 m 2,11,-1
 164 780 l 1,12,13
 45 656 45 656 40 656 c 0,14,15
 0 691 0 691 0 696 c 2,16,-1
 0 1264 l 1,17,18
 35 1304 35 1304 40 1304 c 0,19,10
 164 1195 164 1195 164 1172 c 2,11,-1
160 512 m 1,21,-1
 160 200 l 1,22,23
 138 178 138 178 40 108 c 1,24,25
 13 122 13 122 0 140 c 1,26,-1
 0 572 l 1,27,28
 13 590 13 590 40 604 c 1,29,20
 138 534 138 534 160 512 c 1,21,-1
460 80 m 0,31,32
 385 0 385 0 380 0 c 2,33,-1
 172 0 l 1,34,35
 92 75 92 75 92 80 c 0,36,37
 171 164 171 164 176 164 c 2,38,-1
 376 164 l 1,39,30
 460 85 460 85 460 80 c 0,31,32
EndSplineSet
EndChar

StartChar: parenright
Encoding: 41 41 12
Width: 604
Flags: W
LayerCount: 2
Fore
SplineSet
80 1412 m 1,0,-1
 288 1412 l 2,1,2
 293 1412 293 1412 368 1332 c 0,3,4
 368 1327 368 1327 284 1248 c 1,5,-1
 84 1248 l 2,6,7
 79 1248 79 1248 0 1332 c 0,8,9
 0 1337 0 1337 80 1412 c 1,0,-1
420 1304 m 0,10,11
 425 1304 425 1304 460 1264 c 1,12,-1
 460 696 l 2,13,14
 460 691 460 691 420 656 c 0,15,16
 415 656 415 656 296 780 c 1,17,-1
 296 1172 l 2,18,19
 296 1195 296 1195 420 1304 c 0,10,11
420 604 m 1,20,21
 447 590 447 590 460 572 c 1,22,-1
 460 140 l 1,23,24
 447 122 447 122 420 108 c 1,25,26
 322 178 322 178 300 200 c 1,27,-1
 300 512 l 1,28,29
 322 534 322 534 420 604 c 1,20,21
84 164 m 1,30,-1
 284 164 l 2,31,32
 289 164 289 164 368 80 c 0,33,34
 368 75 368 75 288 0 c 1,35,-1
 80 0 l 2,36,37
 75 0 75 0 0 80 c 0,38,39
 0 85 0 85 84 164 c 1,30,-1
EndSplineSet
EndChar

StartChar: asterisk
Encoding: 42 42 13
Width: 741
Flags: W
LayerCount: 2
Fore
SplineSet
312 1275 m 0,0,1
 316 1275 316 1275 405 1182 c 1,2,-1
 405 1027 l 2,3,4
 405 1021 405 1021 399 1021 c 2,5,-1
 303 1021 l 2,6,7
 296 1021 296 1021 296 1027 c 2,8,-1
 296 1260 l 2,9,10
 296 1264 296 1264 312 1275 c 0,0,1
520 1198 m 1,11,-1
 557 1198 l 2,12,13
 563 1197 563 1197 563 1191 c 2,14,-1
 563 1067 l 1,15,16
 525 1021 525 1021 507 1021 c 2,17,-1
 442 1021 l 2,18,19
 436 1021 436 1021 436 1027 c 2,20,-1
 436 1114 l 2,21,22
 437 1118 437 1118 520 1198 c 1,11,-1
86 1154 m 2,23,-1
 210 1154 l 2,24,25
 214 1154 214 1154 265 1098 c 1,26,-1
 265 1027 l 2,27,28
 265 1021 265 1021 259 1021 c 2,29,-1
 179 1021 l 2,30,31
 161 1021 161 1021 79 1111 c 1,32,-1
 79 1148 l 2,33,34
 80 1154 80 1154 86 1154 c 2,23,-1
89 990 m 1,35,-1
 259 990 l 2,36,37
 265 989 265 989 265 984 c 2,38,-1
 265 887 l 2,39,40
 265 881 265 881 259 881 c 2,41,-1
 36 881 l 2,42,43
 19 881 19 881 5 903 c 1,44,-1
 5 906 l 2,45,46
 6 911 6 911 89 990 c 1,35,-1
303 990 m 2,47,-1
 399 990 l 2,48,49
 405 989 405 989 405 984 c 2,50,-1
 405 887 l 2,51,52
 405 881 405 881 399 881 c 2,53,-1
 303 881 l 2,54,55
 296 881 296 881 296 887 c 2,56,-1
 296 984 l 2,57,58
 297 990 297 990 303 990 c 2,47,-1
442 990 m 2,59,-1
 659 990 l 2,60,61
 664 990 664 990 681 968 c 1,62,-1
 681 965 l 1,63,64
 606 881 606 881 588 881 c 2,65,-1
 442 881 l 2,66,67
 436 881 436 881 436 887 c 2,68,-1
 436 984 l 2,69,70
 437 990 437 990 442 990 c 2,59,-1
172 850 m 1,71,-1
 259 850 l 2,72,73
 265 849 265 849 265 844 c 2,74,-1
 265 770 l 2,75,76
 265 766 265 766 166 670 c 1,77,-1
 129 670 l 2,78,79
 123 670 123 670 123 677 c 2,80,-1
 123 801 l 2,81,82
 123 805 123 805 172 850 c 1,71,-1
303 850 m 2,83,-1
 399 850 l 2,84,85
 405 849 405 849 405 844 c 2,86,-1
 405 627 l 2,87,88
 405 623 405 623 374 596 c 0,89,90
 370 596 370 596 296 674 c 1,91,-1
 296 844 l 2,92,93
 297 850 297 850 303 850 c 2,83,-1
442 850 m 2,94,-1
 514 850 l 2,95,96
 517 850 517 850 607 757 c 1,97,-1
 607 720 l 2,98,99
 607 714 607 714 600 714 c 2,100,-1
 476 714 l 2,101,102
 472 714 472 714 436 754 c 1,103,-1
 436 844 l 2,104,105
 437 850 437 850 442 850 c 2,94,-1
EndSplineSet
EndChar

StartChar: plus
Encoding: 43 43 14
Width: 806
Flags: W
LayerCount: 2
Fore
SplineSet
320 1165 m 0,0,1
 325 1165 325 1165 440 1045 c 1,2,-1
 440 813 l 2,3,4
 440 805 440 805 432 805 c 2,5,-1
 288 805 l 2,6,7
 280 805 280 805 280 813 c 2,8,-1
 280 1125 l 2,9,10
 280 1130 280 1130 320 1165 c 0,0,1
40 765 m 1,11,-1
 656 765 l 2,12,13
 661 765 661 765 696 725 c 0,14,15
 696 720 696 720 576 605 c 1,16,-1
 120 605 l 2,17,18
 115 605 115 605 0 725 c 0,19,20
 0 730 0 730 40 765 c 1,11,-1
288 565 m 2,21,-1
 432 565 l 2,22,23
 440 564 440 564 440 557 c 2,24,-1
 440 245 l 2,25,26
 440 240 440 240 400 205 c 0,27,28
 395 205 395 205 280 325 c 1,29,-1
 280 557 l 2,30,31
 281 565 281 565 288 565 c 2,21,-1
EndSplineSet
EndChar

StartChar: comma
Encoding: 44 44 15
Width: 306
Flags: W
LayerCount: 2
Fore
SplineSet
216 100 m 1,0,-1
 216 92 l 2,1,2
 216 86 216 86 50 -199 c 1,3,-1
 42 -199 l 2,4,5
 36 -199 36 -199 16 92 c 1,6,-1
 16 100 l 2,7,8
 16 106 16 106 112 196 c 1,9,-1
 120 196 l 2,10,11
 126 196 126 196 216 100 c 1,0,-1
EndSplineSet
EndChar

StartChar: hyphen
Encoding: 45 45 16
AltUni2: 0000ad.ffffffff.0
Width: 670
Flags: W
LayerCount: 2
Fore
SplineSet
89 974 m 1,0,-1
 561 974 l 2,1,2
 566 974 566 974 641 894 c 1,3,-1
 641 890 l 2,4,5
 641 885 641 885 561 810 c 1,6,-1
 89 810 l 2,7,8
 84 810 84 810 9 890 c 1,9,-1
 9 894 l 2,10,11
 9 899 9 899 89 974 c 1,0,-1
EndSplineSet
EndChar

StartChar: period
Encoding: 46 46 17
Width: 295
Flags: W
LayerCount: 2
Fore
SplineSet
6 92 m 1,0,-1
 6 100 l 2,1,2
 6 106 6 106 102 196 c 1,3,-1
 110 196 l 2,4,5
 116 196 116 196 206 100 c 1,6,-1
 206 92 l 2,7,8
 206 86 206 86 110 -4 c 1,9,-1
 102 -4 l 2,10,11
 96 -4 96 -4 6 92 c 1,0,-1
EndSplineSet
EndChar

StartChar: slash
Encoding: 47 47 18
Width: 902
Flags: W
LayerCount: 2
Fore
SplineSet
776 1428 m 1,0,1
 788 1409 788 1409 788 1376 c 2,2,-1
 788 1372 l 2,3,4
 788 1356 788 1356 564 952 c 1,5,6
 551 952 551 952 408 904 c 1,7,8
 392 934 392 934 392 964 c 1,9,10
 599 1352 599 1352 620 1380 c 1,11,12
 767 1428 767 1428 776 1428 c 1,0,1
532 928 m 1,13,14
 548 898 548 898 548 868 c 1,15,16
 341 480 341 480 320 452 c 1,17,18
 173 404 173 404 164 404 c 1,19,20
 148 440 148 440 148 460 c 1,21,22
 353 848 353 848 380 880 c 1,23,24
 387 880 387 880 532 928 c 1,13,14
288 420 m 1,25,26
 297 407 297 407 304 364 c 1,27,28
 122 42 122 42 96 12 c 1,29,30
 59 0 59 0 48 0 c 1,31,32
 40 13 40 13 0 160 c 1,33,34
 116 377 116 377 136 380 c 0,35,36
 281 420 281 420 288 420 c 1,25,26
EndSplineSet
EndChar

StartChar: zero
Encoding: 48 48 19
Width: 905
Flags: W
LayerCount: 2
Fore
SplineSet
120 1428 m 1,0,-1
 688 1428 l 2,1,2
 693 1428 693 1428 728 1388 c 0,3,4
 728 1383 728 1383 608 1268 c 1,5,-1
 200 1268 l 2,6,7
 195 1268 195 1268 80 1388 c 0,8,9
 80 1393 80 1393 120 1428 c 1,0,-1
764 1388 m 0,10,11
 769 1388 769 1388 804 1348 c 1,12,-1
 804 780 l 2,13,14
 804 775 804 775 764 740 c 0,15,16
 759 740 759 740 644 860 c 1,17,-1
 644 1268 l 2,18,19
 644 1273 644 1273 764 1388 c 0,10,11
40 1384 m 0,20,21
 45 1384 45 1384 160 1264 c 1,22,-1
 160 856 l 2,23,24
 160 851 160 851 40 736 c 0,25,26
 35 736 35 736 0 776 c 1,27,-1
 0 1344 l 2,28,29
 0 1349 0 1349 40 1384 c 0,20,21
40 696 m 0,30,31
 45 696 45 696 160 576 c 1,32,-1
 160 168 l 2,33,34
 160 163 160 163 40 48 c 0,35,36
 35 48 35 48 0 88 c 1,37,-1
 0 656 l 2,38,39
 0 661 0 661 40 696 c 0,30,31
764 692 m 0,40,41
 769 692 769 692 804 652 c 1,42,-1
 804 84 l 2,43,44
 804 79 804 79 764 44 c 0,45,46
 759 44 759 44 644 164 c 1,47,-1
 644 572 l 2,48,49
 644 577 644 577 764 692 c 0,40,41
196 160 m 1,50,-1
 604 160 l 2,51,52
 609 160 609 160 724 40 c 0,53,54
 724 35 724 35 684 0 c 1,55,-1
 116 0 l 2,56,57
 111 0 111 0 76 40 c 0,58,59
 76 45 76 45 196 160 c 1,50,-1
EndSplineSet
EndChar

StartChar: one
Encoding: 49 49 20
Width: 1188
Flags: W
LayerCount: 2
Fore
SplineSet
964 1428 m 0,0,1
 969 1428 969 1428 1084 1308 c 1,2,-1
 1084 852 l 2,3,4
 1084 847 1084 847 964 732 c 0,5,6
 959 732 959 732 924 772 c 1,7,-1
 924 1388 l 2,8,9
 924 1393 924 1393 964 1428 c 0,0,1
1044 696 m 0,10,11
 1049 696 1049 696 1084 656 c 1,12,-1
 1084 40 l 2,13,14
 1084 35 1084 35 1044 0 c 0,15,16
 1039 0 1039 0 924 120 c 1,17,-1
 924 576 l 2,18,19
 924 581 924 581 1044 696 c 0,10,11
EndSplineSet
EndChar

StartChar: two
Encoding: 50 50 21
Width: 905
Flags: W
LayerCount: 2
Fore
SplineSet
116 1428 m 1,0,-1
 684 1428 l 2,1,2
 689 1428 689 1428 724 1388 c 0,3,4
 724 1383 724 1383 604 1268 c 1,5,-1
 196 1268 l 2,6,7
 191 1268 191 1268 76 1388 c 0,8,9
 76 1393 76 1393 116 1428 c 1,0,-1
764 1384 m 0,10,11
 769 1384 769 1384 804 1344 c 1,12,-1
 804 776 l 2,13,14
 804 771 804 771 764 736 c 0,15,16
 759 736 759 736 644 856 c 1,17,-1
 644 1264 l 2,18,19
 644 1269 644 1269 764 1384 c 0,10,11
160 792 m 1,20,-1
 632 792 l 2,21,22
 637 792 637 792 712 712 c 1,23,-1
 712 708 l 2,24,25
 712 703 712 703 632 628 c 1,26,-1
 160 628 l 2,27,28
 155 628 155 628 80 708 c 1,29,-1
 80 712 l 2,30,31
 80 717 80 717 160 792 c 1,20,-1
40 692 m 0,32,33
 45 692 45 692 160 572 c 1,34,-1
 160 164 l 2,35,36
 160 159 160 159 40 44 c 0,37,38
 35 44 35 44 0 84 c 1,39,-1
 0 652 l 2,40,41
 0 657 0 657 40 692 c 0,32,33
200 160 m 1,42,-1
 608 160 l 2,43,44
 613 160 613 160 728 40 c 0,45,46
 728 35 728 35 688 0 c 1,47,-1
 120 0 l 2,48,49
 115 0 115 0 80 40 c 0,50,51
 80 45 80 45 200 160 c 1,42,-1
EndSplineSet
EndChar

StartChar: three
Encoding: 51 51 22
Width: 905
Flags: W
LayerCount: 2
Fore
SplineSet
40 1428 m 1,0,-1
 608 1428 l 2,1,2
 613 1428 613 1428 648 1388 c 0,3,4
 648 1383 648 1383 528 1268 c 1,5,-1
 120 1268 l 2,6,7
 115 1268 115 1268 0 1388 c 0,8,9
 0 1393 0 1393 40 1428 c 1,0,-1
688 1384 m 0,10,11
 693 1384 693 1384 728 1344 c 1,12,-1
 728 776 l 2,13,14
 728 771 728 771 688 736 c 0,15,16
 683 736 683 736 568 856 c 1,17,-1
 568 1264 l 2,18,19
 568 1269 568 1269 688 1384 c 0,10,11
96 800 m 1,20,-1
 568 800 l 2,21,22
 573 800 573 800 648 720 c 1,23,-1
 648 716 l 2,24,25
 648 711 648 711 568 636 c 1,26,-1
 96 636 l 2,27,28
 91 636 91 636 16 716 c 1,29,-1
 16 720 l 2,30,31
 16 725 16 725 96 800 c 1,20,-1
688 696 m 0,32,33
 693 696 693 696 728 656 c 1,34,-1
 728 88 l 2,35,36
 728 83 728 83 688 48 c 0,37,38
 683 48 683 48 568 168 c 1,39,-1
 568 576 l 2,40,41
 568 581 568 581 688 696 c 0,32,33
124 160 m 1,42,-1
 532 160 l 2,43,44
 537 160 537 160 652 40 c 0,45,46
 652 35 652 35 612 0 c 1,47,-1
 44 0 l 2,48,49
 39 0 39 0 4 40 c 0,50,51
 4 45 4 45 124 160 c 1,42,-1
EndSplineSet
EndChar

StartChar: four
Encoding: 52 52 23
Width: 905
Flags: W
LayerCount: 2
Fore
SplineSet
40 1428 m 0,0,1
 45 1428 45 1428 160 1308 c 1,2,-1
 160 852 l 2,3,4
 160 847 160 847 40 732 c 0,5,6
 35 732 35 732 0 772 c 1,7,-1
 0 1388 l 2,8,9
 0 1393 0 1393 40 1428 c 0,0,1
764 1428 m 0,10,11
 769 1428 769 1428 804 1388 c 1,12,-1
 804 772 l 2,13,14
 804 767 804 767 764 732 c 0,15,16
 759 732 759 732 644 852 c 1,17,-1
 644 1308 l 2,18,19
 644 1313 644 1313 764 1428 c 0,10,11
172 792 m 1,20,-1
 644 792 l 2,21,22
 649 792 649 792 724 712 c 1,23,-1
 724 708 l 2,24,25
 724 703 724 703 644 628 c 1,26,-1
 172 628 l 2,27,28
 167 628 167 628 92 708 c 1,29,-1
 92 712 l 2,30,31
 92 717 92 717 172 792 c 1,20,-1
764 648 m 0,32,33
 769 648 769 648 804 608 c 1,34,-1
 804 40 l 2,35,36
 804 35 804 35 764 0 c 0,37,38
 759 0 759 0 644 120 c 1,39,-1
 644 528 l 2,40,41
 644 533 644 533 764 648 c 0,32,33
EndSplineSet
EndChar

StartChar: five
Encoding: 53 53 24
Width: 905
Flags: W
LayerCount: 2
Fore
SplineSet
120 1428 m 1,0,-1
 688 1428 l 2,1,2
 693 1428 693 1428 728 1388 c 0,3,4
 728 1383 728 1383 608 1268 c 1,5,-1
 200 1268 l 2,6,7
 195 1268 195 1268 80 1388 c 0,8,9
 80 1393 80 1393 120 1428 c 1,0,-1
40 1384 m 0,10,11
 45 1384 45 1384 160 1264 c 1,12,-1
 160 856 l 2,13,14
 160 851 160 851 40 736 c 0,15,16
 35 736 35 736 0 776 c 1,17,-1
 0 1344 l 2,18,19
 0 1349 0 1349 40 1384 c 0,10,11
160 800 m 1,20,-1
 632 800 l 2,21,22
 637 800 637 800 712 720 c 1,23,-1
 712 716 l 2,24,25
 712 711 712 711 632 636 c 1,26,-1
 160 636 l 2,27,28
 155 636 155 636 80 716 c 1,29,-1
 80 720 l 2,30,31
 80 725 80 725 160 800 c 1,20,-1
764 692 m 0,32,33
 769 692 769 692 804 652 c 1,34,-1
 804 84 l 2,35,36
 804 79 804 79 764 44 c 0,37,38
 759 44 759 44 644 164 c 1,39,-1
 644 572 l 2,40,41
 644 577 644 577 764 692 c 0,32,33
196 160 m 1,42,-1
 604 160 l 2,43,44
 609 160 609 160 724 40 c 0,45,46
 724 35 724 35 684 0 c 1,47,-1
 116 0 l 2,48,49
 111 0 111 0 76 40 c 0,50,51
 76 45 76 45 196 160 c 1,42,-1
EndSplineSet
EndChar

StartChar: six
Encoding: 54 54 25
Width: 905
Flags: W
LayerCount: 2
Fore
SplineSet
120 1428 m 1,0,-1
 688 1428 l 2,1,2
 693 1428 693 1428 728 1388 c 0,3,4
 728 1383 728 1383 608 1268 c 1,5,-1
 200 1268 l 2,6,7
 195 1268 195 1268 80 1388 c 0,8,9
 80 1393 80 1393 120 1428 c 1,0,-1
40 1384 m 0,10,11
 45 1384 45 1384 160 1264 c 1,12,-1
 160 856 l 2,13,14
 160 851 160 851 40 736 c 0,15,16
 35 736 35 736 0 776 c 1,17,-1
 0 1344 l 2,18,19
 0 1349 0 1349 40 1384 c 0,10,11
160 800 m 1,20,-1
 632 800 l 2,21,22
 637 800 637 800 712 720 c 1,23,-1
 712 716 l 2,24,25
 712 711 712 711 632 636 c 1,26,-1
 160 636 l 2,27,28
 155 636 155 636 80 716 c 1,29,-1
 80 720 l 2,30,31
 80 725 80 725 160 800 c 1,20,-1
40 696 m 0,32,33
 45 696 45 696 160 576 c 1,34,-1
 160 168 l 2,35,36
 160 163 160 163 40 48 c 0,37,38
 35 48 35 48 0 88 c 1,39,-1
 0 656 l 2,40,41
 0 661 0 661 40 696 c 0,32,33
764 692 m 0,42,43
 769 692 769 692 804 652 c 1,44,-1
 804 84 l 2,45,46
 804 79 804 79 764 44 c 0,47,48
 759 44 759 44 644 164 c 1,49,-1
 644 572 l 2,50,51
 644 577 644 577 764 692 c 0,42,43
196 160 m 1,52,-1
 604 160 l 2,53,54
 609 160 609 160 724 40 c 0,55,56
 724 35 724 35 684 0 c 1,57,-1
 116 0 l 2,58,59
 111 0 111 0 76 40 c 0,60,61
 76 45 76 45 196 160 c 1,52,-1
EndSplineSet
EndChar

StartChar: seven
Encoding: 55 55 26
Width: 905
Flags: W
LayerCount: 2
Fore
SplineSet
40 1428 m 1,0,-1
 608 1428 l 2,1,2
 613 1428 613 1428 648 1388 c 0,3,4
 648 1383 648 1383 528 1268 c 1,5,-1
 120 1268 l 2,6,7
 115 1268 115 1268 0 1388 c 0,8,9
 0 1393 0 1393 40 1428 c 1,0,-1
684 1388 m 0,10,11
 689 1388 689 1388 724 1348 c 1,12,-1
 724 780 l 2,13,14
 724 775 724 775 684 740 c 0,15,16
 679 740 679 740 564 860 c 1,17,-1
 564 1268 l 2,18,19
 564 1273 564 1273 684 1388 c 0,10,11
684 696 m 0,20,21
 689 696 689 696 724 656 c 1,22,-1
 724 40 l 2,23,24
 724 35 724 35 684 0 c 0,25,26
 679 0 679 0 564 120 c 1,27,-1
 564 576 l 2,28,29
 564 581 564 581 684 696 c 0,20,21
EndSplineSet
EndChar

StartChar: eight
Encoding: 56 56 27
Width: 905
Flags: W
LayerCount: 2
Fore
SplineSet
120 1428 m 1,0,-1
 688 1428 l 2,1,2
 693 1428 693 1428 728 1388 c 0,3,4
 728 1383 728 1383 608 1268 c 1,5,-1
 200 1268 l 2,6,7
 195 1268 195 1268 80 1388 c 0,8,9
 80 1393 80 1393 120 1428 c 1,0,-1
764 1388 m 0,10,11
 769 1388 769 1388 804 1348 c 1,12,-1
 804 780 l 2,13,14
 804 775 804 775 764 740 c 0,15,16
 759 740 759 740 644 860 c 1,17,-1
 644 1268 l 2,18,19
 644 1273 644 1273 764 1388 c 0,10,11
40 1384 m 0,20,21
 45 1384 45 1384 160 1264 c 1,22,-1
 160 856 l 2,23,24
 160 851 160 851 40 736 c 0,25,26
 35 736 35 736 0 776 c 1,27,-1
 0 1344 l 2,28,29
 0 1349 0 1349 40 1384 c 0,20,21
160 800 m 1,30,-1
 632 800 l 2,31,32
 637 800 637 800 712 720 c 1,33,-1
 712 716 l 2,34,35
 712 711 712 711 632 636 c 1,36,-1
 160 636 l 2,37,38
 155 636 155 636 80 716 c 1,39,-1
 80 720 l 2,40,41
 80 725 80 725 160 800 c 1,30,-1
40 696 m 0,42,43
 45 696 45 696 160 576 c 1,44,-1
 160 168 l 2,45,46
 160 163 160 163 40 48 c 0,47,48
 35 48 35 48 0 88 c 1,49,-1
 0 656 l 2,50,51
 0 661 0 661 40 696 c 0,42,43
764 692 m 0,52,53
 769 692 769 692 804 652 c 1,54,-1
 804 84 l 2,55,56
 804 79 804 79 764 44 c 0,57,58
 759 44 759 44 644 164 c 1,59,-1
 644 572 l 2,60,61
 644 577 644 577 764 692 c 0,52,53
196 160 m 1,62,-1
 604 160 l 2,63,64
 609 160 609 160 724 40 c 0,65,66
 724 35 724 35 684 0 c 1,67,-1
 116 0 l 2,68,69
 111 0 111 0 76 40 c 0,70,71
 76 45 76 45 196 160 c 1,62,-1
EndSplineSet
EndChar

StartChar: nine
Encoding: 57 57 28
Width: 905
Flags: W
LayerCount: 2
Fore
SplineSet
120 1428 m 1,0,-1
 688 1428 l 2,1,2
 693 1428 693 1428 728 1388 c 0,3,4
 728 1383 728 1383 608 1268 c 1,5,-1
 200 1268 l 2,6,7
 195 1268 195 1268 80 1388 c 0,8,9
 80 1393 80 1393 120 1428 c 1,0,-1
40 1384 m 0,10,11
 45 1384 45 1384 160 1264 c 1,12,-1
 160 856 l 2,13,14
 160 851 160 851 40 736 c 0,15,16
 35 736 35 736 0 776 c 1,17,-1
 0 1344 l 2,18,19
 0 1349 0 1349 40 1384 c 0,10,11
764 1380 m 0,20,21
 769 1380 769 1380 804 1340 c 1,22,-1
 804 772 l 2,23,24
 804 767 804 767 764 732 c 0,25,26
 759 732 759 732 644 852 c 1,27,-1
 644 1260 l 2,28,29
 644 1265 644 1265 764 1380 c 0,20,21
172 792 m 1,30,-1
 644 792 l 2,31,32
 649 792 649 792 724 712 c 1,33,-1
 724 708 l 2,34,35
 724 703 724 703 644 628 c 1,36,-1
 172 628 l 2,37,38
 167 628 167 628 92 708 c 1,39,-1
 92 712 l 2,40,41
 92 717 92 717 172 792 c 1,30,-1
764 692 m 0,42,43
 769 692 769 692 804 652 c 1,44,-1
 804 84 l 2,45,46
 804 79 804 79 764 44 c 0,47,48
 759 44 759 44 644 164 c 1,49,-1
 644 572 l 2,50,51
 644 577 644 577 764 692 c 0,42,43
196 160 m 1,52,-1
 604 160 l 2,53,54
 609 160 609 160 724 40 c 0,55,56
 724 35 724 35 684 0 c 1,57,-1
 116 0 l 2,58,59
 111 0 111 0 76 40 c 0,60,61
 76 45 76 45 196 160 c 1,52,-1
EndSplineSet
EndChar

StartChar: colon
Encoding: 58 58 29
Width: 295
Flags: W
LayerCount: 2
Fore
SplineSet
6 92 m 1,0,-1
 6 100 l 2,1,2
 6 106 6 106 102 196 c 1,3,-1
 110 196 l 2,4,5
 116 196 116 196 206 100 c 1,6,-1
 206 92 l 2,7,8
 206 86 206 86 110 -4 c 1,9,-1
 102 -4 l 2,10,11
 96 -4 96 -4 6 92 c 1,0,-1
10 1092 m 1,12,-1
 10 1100 l 2,13,14
 10 1106 10 1106 106 1196 c 1,15,-1
 114 1196 l 2,16,17
 120 1196 120 1196 210 1100 c 1,18,-1
 210 1092 l 2,19,20
 210 1086 210 1086 114 996 c 1,21,-1
 106 996 l 2,22,23
 100 996 100 996 10 1092 c 1,12,-1
EndSplineSet
EndChar

StartChar: semicolon
Encoding: 59 59 30
AltUni2: 00037e.ffffffff.0
Width: 557
Flags: W
LayerCount: 2
Fore
SplineSet
216 100 m 1,0,-1
 216 92 l 2,1,2
 216 86 216 86 50 -199 c 1,3,-1
 42 -199 l 2,4,5
 36 -199 36 -199 16 92 c 1,6,-1
 16 100 l 2,7,8
 16 106 16 106 112 196 c 1,9,-1
 120 196 l 2,10,11
 126 196 126 196 216 100 c 1,0,-1
10 1092 m 1,12,-1
 10 1100 l 2,13,14
 10 1106 10 1106 106 1196 c 1,15,-1
 114 1196 l 2,16,17
 120 1196 120 1196 210 1100 c 1,18,-1
 210 1092 l 2,19,20
 210 1086 210 1086 114 996 c 1,21,-1
 106 996 l 2,22,23
 100 996 100 996 10 1092 c 1,12,-1
EndSplineSet
EndChar

StartChar: less
Encoding: 60 60 31
Width: 694
Flags: W
LayerCount: 2
Fore
SplineSet
19 813 m 1,1,2
 38 835 38 835 511 1117 c 1,3,4
 538 1117 538 1117 567 1101 c 1,5,6
 559 1055 559 1055 531 941 c 0,7,8
 527 933 527 933 175 725 c 1,9,10
 25 761 25 761 11 769 c 1,11,0
 19 797 19 797 19 813 c 1,1,2
179 649 m 1,13,-1
 523 441 l 1,14,15
 533 441 533 441 567 281 c 1,16,17
 567 261 567 261 519 261 c 2,18,-1
 515 261 l 2,19,20
 499 261 499 261 79 521 c 1,21,22
 11 547 11 547 11 605 c 0,23,12
 11 614 11 614 179 649 c 1,13,-1
EndSplineSet
EndChar

StartChar: equal
Encoding: 61 61 32
Width: 707
Flags: W
LayerCount: 2
Fore
SplineSet
89 974 m 1,0,-1
 561 974 l 2,1,2
 566 974 566 974 641 894 c 1,3,-1
 641 890 l 2,4,5
 641 885 641 885 561 810 c 1,6,-1
 89 810 l 2,7,8
 84 810 84 810 9 890 c 1,9,-1
 9 894 l 2,10,11
 9 899 9 899 89 974 c 1,0,-1
89 606 m 1,12,-1
 561 606 l 2,13,14
 566 606 566 606 641 526 c 1,15,-1
 641 522 l 2,16,17
 641 517 641 517 565 446 c 1,18,-1
 85 446 l 2,19,20
 80 446 80 446 9 522 c 1,21,-1
 9 526 l 2,22,23
 9 531 9 531 89 606 c 1,12,-1
EndSplineSet
EndChar

StartChar: greater
Encoding: 62 62 33
Width: 698
Flags: W
LayerCount: 2
Fore
SplineSet
567 769 m 1,0,1
 553 761 553 761 403 725 c 1,2,3
 51 933 51 933 47 941 c 0,4,5
 19 1055 19 1055 11 1101 c 1,6,7
 40 1117 40 1117 67 1117 c 1,8,9
 540 835 540 835 559 813 c 1,10,11
 559 797 559 797 567 769 c 1,0,1
567 605 m 0,12,13
 567 547 567 547 499 521 c 1,14,15
 79 261 79 261 63 261 c 2,16,-1
 59 261 l 2,17,18
 11 261 11 261 11 281 c 1,19,20
 45 441 45 441 55 441 c 1,21,-1
 399 649 l 1,22,23
 567 614 567 614 567 605 c 0,12,13
EndSplineSet
EndChar

StartChar: question
Encoding: 63 63 34
Width: 905
Flags: W
LayerCount: 2
Fore
SplineSet
40 1428 m 1,0,-1
 608 1428 l 2,1,2
 613 1428 613 1428 648 1388 c 0,3,4
 648 1383 648 1383 528 1268 c 1,5,-1
 120 1268 l 2,6,7
 115 1268 115 1268 0 1388 c 0,8,9
 0 1393 0 1393 40 1428 c 1,0,-1
688 1384 m 0,10,11
 693 1384 693 1384 728 1344 c 1,12,-1
 728 776 l 2,13,14
 728 771 728 771 688 736 c 0,15,16
 683 736 683 736 568 856 c 1,17,-1
 568 1264 l 2,18,19
 568 1269 568 1269 688 1384 c 0,10,11
96 800 m 1,20,-1
 568 800 l 2,21,22
 573 800 573 800 648 720 c 1,23,-1
 648 716 l 2,24,25
 648 711 648 711 568 636 c 1,26,-1
 96 636 l 2,27,28
 91 636 91 636 16 716 c 1,29,-1
 16 720 l 2,30,31
 16 725 16 725 96 800 c 1,20,-1
80 564 m 0,32,33
 85 564 85 564 164 480 c 1,34,-1
 164 280 l 2,35,36
 164 275 164 275 80 196 c 0,37,38
 75 196 75 196 0 276 c 1,39,-1
 0 484 l 2,40,41
 0 489 0 489 80 564 c 0,32,33
76 156 m 1,42,-1
 80 156 l 2,43,44
 85 156 85 156 156 80 c 1,45,-1
 156 76 l 2,46,47
 156 71 156 71 80 0 c 1,48,-1
 76 0 l 2,49,50
 71 0 71 0 0 76 c 1,51,-1
 0 80 l 2,52,53
 0 85 0 85 76 156 c 1,42,-1
EndSplineSet
EndChar

StartChar: at
Encoding: 64 64 35
Width: 902
Flags: W
LayerCount: 2
Fore
SplineSet
120 1428 m 1,0,-1
 688 1428 l 2,1,2
 693 1428 693 1428 728 1388 c 0,3,4
 728 1383 728 1383 608 1268 c 1,5,-1
 200 1268 l 2,6,7
 195 1268 195 1268 80 1388 c 0,8,9
 80 1393 80 1393 120 1428 c 1,0,-1
764 1388 m 0,10,11
 769 1388 769 1388 804 1348 c 1,12,-1
 804 780 l 2,13,14
 804 775 804 775 764 740 c 0,15,16
 759 740 759 740 644 860 c 1,17,-1
 644 1268 l 2,18,19
 644 1273 644 1273 764 1388 c 0,10,11
40 1384 m 0,20,21
 45 1384 45 1384 160 1264 c 1,22,-1
 160 856 l 2,23,24
 160 851 160 851 40 736 c 0,25,26
 35 736 35 736 0 776 c 1,27,-1
 0 1344 l 2,28,29
 0 1349 0 1349 40 1384 c 0,20,21
296 1012 m 1,30,-1
 484 1012 l 2,31,32
 490 1012 490 1012 508 988 c 1,33,34
 438 920 438 920 436 920 c 2,35,-1
 340 920 l 2,36,37
 335 920 335 920 272 988 c 1,38,39
 272 994 272 994 296 1012 c 1,30,-1
528 980 m 1,40,-1
 532 980 l 2,41,42
 537 980 537 980 552 960 c 1,43,-1
 552 768 l 2,44,45
 552 763 552 763 532 748 c 1,46,-1
 528 748 l 2,47,48
 523 748 523 748 460 816 c 1,49,-1
 460 912 l 2,50,51
 460 917 460 917 528 980 c 1,40,-1
296 748 m 1,52,-1
 484 748 l 2,53,54
 490 748 490 748 508 724 c 1,55,56
 471 682 471 682 436 656 c 1,57,-1
 340 656 l 2,58,59
 335 656 335 656 272 724 c 1,60,61
 272 730 272 730 296 748 c 1,52,-1
528 708 m 1,62,63
 534 708 534 708 552 684 c 1,64,-1
 552 496 l 2,65,66
 552 491 552 491 532 476 c 1,67,-1
 528 476 l 2,68,69
 523 476 523 476 460 544 c 1,70,-1
 460 640 l 2,71,72
 460 645 460 645 528 708 c 1,62,63
40 696 m 0,73,74
 45 696 45 696 160 576 c 1,75,-1
 160 168 l 2,76,77
 160 163 160 163 40 48 c 0,78,79
 35 48 35 48 0 88 c 1,80,-1
 0 656 l 2,81,82
 0 661 0 661 40 696 c 0,73,74
268 692 m 1,83,-1
 272 692 l 2,84,85
 277 692 277 692 340 624 c 1,86,-1
 340 528 l 2,87,88
 340 523 340 523 272 460 c 1,89,90
 266 460 266 460 248 484 c 1,91,-1
 248 672 l 2,92,93
 248 677 248 677 268 692 c 1,83,-1
764 692 m 0,94,95
 769 692 769 692 804 652 c 1,96,-1
 804 84 l 2,97,98
 804 79 804 79 764 44 c 0,99,100
 759 44 759 44 644 164 c 1,101,-1
 644 572 l 2,102,103
 644 577 644 577 764 692 c 0,94,95
356 512 m 1,104,-1
 452 512 l 2,105,106
 454 512 454 512 524 444 c 1,107,108
 524 438 524 438 500 420 c 1,109,-1
 312 420 l 2,110,111
 306 420 306 420 288 444 c 0,112,113
 288 449 288 449 356 512 c 1,104,-1
196 160 m 1,114,-1
 604 160 l 2,115,116
 609 160 609 160 724 40 c 0,117,118
 724 35 724 35 684 0 c 1,119,-1
 116 0 l 2,120,121
 111 0 111 0 76 40 c 0,122,123
 76 45 76 45 196 160 c 1,114,-1
EndSplineSet
EndChar

StartChar: A
Encoding: 65 65 36
Width: 905
Flags: W
LayerCount: 2
Fore
SplineSet
120 1428 m 1,0,-1
 688 1428 l 2,1,2
 693 1428 693 1428 728 1388 c 0,3,4
 728 1383 728 1383 608 1268 c 1,5,-1
 200 1268 l 2,6,7
 195 1268 195 1268 80 1388 c 0,8,9
 80 1393 80 1393 120 1428 c 1,0,-1
764 1388 m 0,10,11
 769 1388 769 1388 804 1348 c 1,12,-1
 804 780 l 2,13,14
 804 775 804 775 764 740 c 0,15,16
 759 740 759 740 644 860 c 1,17,-1
 644 1268 l 2,18,19
 644 1273 644 1273 764 1388 c 0,10,11
40 1384 m 0,20,21
 45 1384 45 1384 160 1264 c 1,22,-1
 160 856 l 2,23,24
 160 851 160 851 40 736 c 0,25,26
 35 736 35 736 0 776 c 1,27,-1
 0 1344 l 2,28,29
 0 1349 0 1349 40 1384 c 0,20,21
160 800 m 1,30,-1
 632 800 l 2,31,32
 637 800 637 800 712 720 c 1,33,-1
 712 716 l 2,34,35
 712 711 712 711 632 636 c 1,36,-1
 160 636 l 2,37,38
 155 636 155 636 80 716 c 1,39,-1
 80 720 l 2,40,41
 80 725 80 725 160 800 c 1,30,-1
40 696 m 0,42,43
 45 696 45 696 160 576 c 1,44,-1
 160 120 l 2,45,46
 160 115 160 115 40 0 c 0,47,48
 35 0 35 0 0 40 c 1,49,-1
 0 656 l 2,50,51
 0 661 0 661 40 696 c 0,42,43
764 696 m 0,52,53
 769 696 769 696 804 656 c 1,54,-1
 804 40 l 2,55,56
 804 35 804 35 764 0 c 0,57,58
 759 0 759 0 644 120 c 1,59,-1
 644 576 l 2,60,61
 644 581 644 581 764 696 c 0,52,53
EndSplineSet
EndChar

StartChar: B
Encoding: 66 66 37
Width: 905
Flags: W
LayerCount: 2
Fore
SplineSet
40 1428 m 1,0,-1
 688 1428 l 2,1,2
 693 1428 693 1428 728 1388 c 0,3,4
 728 1383 728 1383 608 1268 c 1,5,-1
 200 1268 l 1,6,7
 55 1404 55 1404 40 1424 c 1,8,-1
 40 1428 l 1,0,-1
0 1420 m 1,9,-1
 4 1420 l 2,10,11
 9 1420 9 1420 160 1264 c 1,12,-1
 160 856 l 2,13,14
 160 851 160 851 40 736 c 0,15,16
 35 736 35 736 0 776 c 1,17,-1
 0 1420 l 1,9,-1
764 1388 m 0,18,19
 769 1388 769 1388 804 1348 c 1,20,-1
 804 780 l 2,21,22
 804 775 804 775 764 740 c 0,23,24
 759 740 759 740 644 860 c 1,25,-1
 644 1268 l 2,26,27
 644 1273 644 1273 764 1388 c 0,18,19
160 800 m 1,28,-1
 632 800 l 2,29,30
 637 800 637 800 712 720 c 1,31,-1
 712 716 l 2,32,33
 712 711 712 711 632 636 c 1,34,-1
 160 636 l 2,35,36
 155 636 155 636 80 716 c 1,37,-1
 80 720 l 2,38,39
 80 725 80 725 160 800 c 1,28,-1
40 696 m 0,40,41
 45 696 45 696 160 576 c 1,42,-1
 160 168 l 1,43,44
 24 23 24 23 4 8 c 1,45,-1
 0 8 l 1,46,-1
 0 656 l 2,47,48
 0 661 0 661 40 696 c 0,40,41
764 692 m 0,49,50
 769 692 769 692 804 652 c 1,51,-1
 804 84 l 2,52,53
 804 79 804 79 764 44 c 0,54,55
 759 44 759 44 644 164 c 1,56,-1
 644 572 l 2,57,58
 644 577 644 577 764 692 c 0,49,50
196 160 m 1,59,-1
 604 160 l 2,60,61
 609 160 609 160 724 40 c 0,62,63
 724 35 724 35 684 0 c 1,64,-1
 44 0 l 1,65,-1
 44 4 l 1,66,67
 175 144 175 144 196 160 c 1,59,-1
EndSplineSet
EndChar

StartChar: C
Encoding: 67 67 38
Width: 905
Flags: W
LayerCount: 2
Fore
SplineSet
120 1428 m 1,0,-1
 688 1428 l 2,1,2
 693 1428 693 1428 728 1388 c 0,3,4
 728 1383 728 1383 608 1268 c 1,5,-1
 200 1268 l 2,6,7
 195 1268 195 1268 80 1388 c 0,8,9
 80 1393 80 1393 120 1428 c 1,0,-1
40 1384 m 0,10,11
 45 1384 45 1384 160 1264 c 1,12,-1
 160 856 l 2,13,14
 160 851 160 851 40 736 c 0,15,16
 35 736 35 736 0 776 c 1,17,-1
 0 1344 l 2,18,19
 0 1349 0 1349 40 1384 c 0,10,11
40 696 m 0,20,21
 45 696 45 696 160 576 c 1,22,-1
 160 168 l 2,23,24
 160 163 160 163 40 48 c 0,25,26
 35 48 35 48 0 88 c 1,27,-1
 0 656 l 2,28,29
 0 661 0 661 40 696 c 0,20,21
196 160 m 1,30,-1
 604 160 l 2,31,32
 609 160 609 160 724 40 c 0,33,34
 724 35 724 35 684 0 c 1,35,-1
 116 0 l 2,36,37
 111 0 111 0 76 40 c 0,38,39
 76 45 76 45 196 160 c 1,30,-1
EndSplineSet
EndChar

StartChar: D
Encoding: 68 68 39
Width: 905
Flags: W
LayerCount: 2
Fore
SplineSet
40 1428 m 1,0,-1
 688 1428 l 2,1,2
 693 1428 693 1428 728 1388 c 0,3,4
 728 1383 728 1383 608 1268 c 1,5,-1
 200 1268 l 1,6,7
 55 1404 55 1404 40 1424 c 1,8,-1
 40 1428 l 1,0,-1
0 1420 m 1,9,-1
 4 1420 l 2,10,11
 9 1420 9 1420 160 1264 c 1,12,-1
 160 856 l 2,13,14
 160 851 160 851 40 736 c 0,15,16
 35 736 35 736 0 776 c 1,17,-1
 0 1420 l 1,9,-1
764 1388 m 0,18,19
 769 1388 769 1388 804 1348 c 1,20,-1
 804 780 l 2,21,22
 804 775 804 775 764 740 c 0,23,24
 759 740 759 740 644 860 c 1,25,-1
 644 1268 l 2,26,27
 644 1273 644 1273 764 1388 c 0,18,19
40 696 m 0,28,29
 45 696 45 696 160 576 c 1,30,-1
 160 168 l 1,31,32
 24 23 24 23 4 8 c 1,33,-1
 0 8 l 1,34,-1
 0 656 l 2,35,36
 0 661 0 661 40 696 c 0,28,29
764 692 m 0,37,38
 769 692 769 692 804 652 c 1,39,-1
 804 84 l 2,40,41
 804 79 804 79 764 44 c 0,42,43
 759 44 759 44 644 164 c 1,44,-1
 644 572 l 2,45,46
 644 577 644 577 764 692 c 0,37,38
196 160 m 1,47,-1
 604 160 l 2,48,49
 609 160 609 160 724 40 c 0,50,51
 724 35 724 35 684 0 c 1,52,-1
 44 0 l 1,53,-1
 44 4 l 1,54,55
 175 144 175 144 196 160 c 1,47,-1
EndSplineSet
EndChar

StartChar: E
Encoding: 69 69 40
Width: 905
Flags: W
LayerCount: 2
Fore
SplineSet
120 1428 m 1,0,-1
 688 1428 l 2,1,2
 693 1428 693 1428 728 1388 c 0,3,4
 728 1383 728 1383 608 1268 c 1,5,-1
 200 1268 l 2,6,7
 195 1268 195 1268 80 1388 c 0,8,9
 80 1393 80 1393 120 1428 c 1,0,-1
40 1384 m 0,10,11
 45 1384 45 1384 160 1264 c 1,12,-1
 160 856 l 2,13,14
 160 851 160 851 40 736 c 0,15,16
 35 736 35 736 0 776 c 1,17,-1
 0 1344 l 2,18,19
 0 1349 0 1349 40 1384 c 0,10,11
160 800 m 1,20,-1
 632 800 l 2,21,22
 637 800 637 800 712 720 c 1,23,-1
 712 716 l 2,24,25
 712 711 712 711 632 636 c 1,26,-1
 160 636 l 2,27,28
 155 636 155 636 80 716 c 1,29,-1
 80 720 l 2,30,31
 80 725 80 725 160 800 c 1,20,-1
40 696 m 0,32,33
 45 696 45 696 160 576 c 1,34,-1
 160 168 l 2,35,36
 160 163 160 163 40 48 c 0,37,38
 35 48 35 48 0 88 c 1,39,-1
 0 656 l 2,40,41
 0 661 0 661 40 696 c 0,32,33
196 160 m 1,42,-1
 604 160 l 2,43,44
 609 160 609 160 724 40 c 0,45,46
 724 35 724 35 684 0 c 1,47,-1
 116 0 l 2,48,49
 111 0 111 0 76 40 c 0,50,51
 76 45 76 45 196 160 c 1,42,-1
EndSplineSet
EndChar

StartChar: F
Encoding: 70 70 41
Width: 905
Flags: W
LayerCount: 2
Fore
SplineSet
120 1428 m 1,0,-1
 688 1428 l 2,1,2
 693 1428 693 1428 728 1388 c 0,3,4
 728 1383 728 1383 608 1268 c 1,5,-1
 200 1268 l 2,6,7
 195 1268 195 1268 80 1388 c 0,8,9
 80 1393 80 1393 120 1428 c 1,0,-1
40 1384 m 0,10,11
 45 1384 45 1384 160 1264 c 1,12,-1
 160 856 l 2,13,14
 160 851 160 851 40 736 c 0,15,16
 35 736 35 736 0 776 c 1,17,-1
 0 1344 l 2,18,19
 0 1349 0 1349 40 1384 c 0,10,11
160 800 m 1,20,-1
 632 800 l 2,21,22
 637 800 637 800 712 720 c 1,23,-1
 712 716 l 2,24,25
 712 711 712 711 632 636 c 1,26,-1
 160 636 l 2,27,28
 155 636 155 636 80 716 c 1,29,-1
 80 720 l 2,30,31
 80 725 80 725 160 800 c 1,20,-1
40 696 m 0,32,33
 45 696 45 696 160 576 c 1,34,-1
 160 120 l 2,35,36
 160 115 160 115 40 0 c 0,37,38
 35 0 35 0 0 40 c 1,39,-1
 0 656 l 2,40,41
 0 661 0 661 40 696 c 0,32,33
EndSplineSet
EndChar

StartChar: G
Encoding: 71 71 42
Width: 905
Flags: W
LayerCount: 2
Fore
SplineSet
120 1428 m 1,0,-1
 688 1428 l 2,1,2
 693 1428 693 1428 728 1388 c 0,3,4
 728 1383 728 1383 608 1268 c 1,5,-1
 200 1268 l 2,6,7
 195 1268 195 1268 80 1388 c 0,8,9
 80 1393 80 1393 120 1428 c 1,0,-1
40 1384 m 0,10,11
 45 1384 45 1384 160 1264 c 1,12,-1
 160 856 l 2,13,14
 160 851 160 851 40 736 c 0,15,16
 35 736 35 736 0 776 c 1,17,-1
 0 1344 l 2,18,19
 0 1349 0 1349 40 1384 c 0,10,11
428 800 m 1,20,-1
 632 800 l 2,21,22
 637 800 637 800 712 720 c 1,23,-1
 712 716 l 2,24,25
 712 711 712 711 632 636 c 1,26,-1
 428 636 l 2,27,28
 423 636 423 636 348 716 c 1,29,-1
 348 720 l 2,30,31
 348 725 348 725 428 800 c 1,20,-1
40 696 m 0,32,33
 45 696 45 696 160 576 c 1,34,-1
 160 168 l 2,35,36
 160 163 160 163 40 48 c 0,37,38
 35 48 35 48 0 88 c 1,39,-1
 0 656 l 2,40,41
 0 661 0 661 40 696 c 0,32,33
764 692 m 0,42,43
 769 692 769 692 804 652 c 1,44,-1
 804 84 l 2,45,46
 804 79 804 79 764 44 c 0,47,48
 759 44 759 44 644 164 c 1,49,-1
 644 572 l 2,50,51
 644 577 644 577 764 692 c 0,42,43
196 160 m 1,52,-1
 604 160 l 2,53,54
 609 160 609 160 724 40 c 0,55,56
 724 35 724 35 684 0 c 1,57,-1
 116 0 l 2,58,59
 111 0 111 0 76 40 c 0,60,61
 76 45 76 45 196 160 c 1,52,-1
EndSplineSet
EndChar

StartChar: H
Encoding: 72 72 43
Width: 905
Flags: W
LayerCount: 2
Fore
SplineSet
40 1428 m 0,0,1
 45 1428 45 1428 160 1308 c 1,2,-1
 160 852 l 2,3,4
 160 847 160 847 40 732 c 0,5,6
 35 732 35 732 0 772 c 1,7,-1
 0 1388 l 2,8,9
 0 1393 0 1393 40 1428 c 0,0,1
764 1428 m 0,10,11
 769 1428 769 1428 804 1388 c 1,12,-1
 804 772 l 2,13,14
 804 767 804 767 764 732 c 0,15,16
 759 732 759 732 644 852 c 1,17,-1
 644 1308 l 2,18,19
 644 1313 644 1313 764 1428 c 0,10,11
160 800 m 1,20,-1
 632 800 l 2,21,22
 637 800 637 800 712 720 c 1,23,-1
 712 716 l 2,24,25
 712 711 712 711 632 636 c 1,26,-1
 160 636 l 2,27,28
 155 636 155 636 80 716 c 1,29,-1
 80 720 l 2,30,31
 80 725 80 725 160 800 c 1,20,-1
40 696 m 0,32,33
 45 696 45 696 160 576 c 1,34,-1
 160 120 l 2,35,36
 160 115 160 115 40 0 c 0,37,38
 35 0 35 0 0 40 c 1,39,-1
 0 656 l 2,40,41
 0 661 0 661 40 696 c 0,32,33
764 696 m 0,42,43
 769 696 769 696 804 656 c 1,44,-1
 804 40 l 2,45,46
 804 35 804 35 764 0 c 0,47,48
 759 0 759 0 644 120 c 1,49,-1
 644 576 l 2,50,51
 644 581 644 581 764 696 c 0,42,43
EndSplineSet
EndChar

StartChar: I
Encoding: 73 73 44
Width: 279
Flags: W
LayerCount: 2
Fore
SplineSet
40 1428 m 0,0,1
 45 1428 45 1428 160 1308 c 1,2,-1
 160 852 l 2,3,4
 160 847 160 847 40 732 c 0,5,6
 35 732 35 732 0 772 c 1,7,-1
 0 1388 l 2,8,9
 0 1393 0 1393 40 1428 c 0,0,1
120 696 m 0,10,11
 125 696 125 696 160 656 c 1,12,-1
 160 40 l 2,13,14
 160 35 160 35 120 0 c 0,15,16
 115 0 115 0 0 120 c 1,17,-1
 0 576 l 2,18,19
 0 581 0 581 120 696 c 0,10,11
EndSplineSet
EndChar

StartChar: J
Encoding: 74 74 45
Width: 905
Flags: W
LayerCount: 2
Fore
SplineSet
764 1428 m 0,0,1
 769 1428 769 1428 804 1388 c 1,2,-1
 804 772 l 2,3,4
 804 767 804 767 764 732 c 0,5,6
 759 732 759 732 644 852 c 1,7,-1
 644 1308 l 2,8,9
 644 1313 644 1313 764 1428 c 0,0,1
40 696 m 0,10,11
 45 696 45 696 160 576 c 1,12,-1
 160 168 l 2,13,14
 160 163 160 163 40 48 c 0,15,16
 35 48 35 48 0 88 c 1,17,-1
 0 656 l 2,18,19
 0 661 0 661 40 696 c 0,10,11
764 692 m 0,20,21
 769 692 769 692 804 652 c 1,22,-1
 804 84 l 2,23,24
 804 79 804 79 764 44 c 0,25,26
 759 44 759 44 644 164 c 1,27,-1
 644 572 l 2,28,29
 644 577 644 577 764 692 c 0,20,21
196 160 m 1,30,-1
 604 160 l 2,31,32
 609 160 609 160 724 40 c 0,33,34
 724 35 724 35 684 0 c 1,35,-1
 116 0 l 2,36,37
 111 0 111 0 76 40 c 0,38,39
 76 45 76 45 196 160 c 1,30,-1
EndSplineSet
EndChar

StartChar: K
Encoding: 75 75 46
Width: 905
Flags: W
LayerCount: 2
Fore
SplineSet
40 1428 m 0,0,1
 45 1428 45 1428 160 1308 c 1,2,-1
 160 852 l 2,3,4
 160 847 160 847 40 732 c 0,5,6
 35 732 35 732 0 772 c 1,7,-1
 0 1388 l 2,8,9
 0 1393 0 1393 40 1428 c 0,0,1
636 1244 m 1,10,-1
 796 1244 l 2,11,12
 804 1243 804 1243 804 1236 c 2,13,-1
 804 1188 l 1,14,-1
 460 852 l 1,15,-1
 300 852 l 2,16,17
 292 852 292 852 292 860 c 2,18,-1
 292 908 l 1,19,-1
 636 1244 l 1,10,-1
160 800 m 1,20,-1
 632 800 l 2,21,22
 637 800 637 800 712 720 c 1,23,-1
 712 716 l 2,24,25
 712 711 712 711 632 636 c 1,26,-1
 160 636 l 2,27,28
 155 636 155 636 80 716 c 1,29,-1
 80 720 l 2,30,31
 80 725 80 725 160 800 c 1,20,-1
40 696 m 0,32,33
 45 696 45 696 160 576 c 1,34,-1
 160 120 l 2,35,36
 160 115 160 115 40 0 c 0,37,38
 35 0 35 0 0 40 c 1,39,-1
 0 656 l 2,40,41
 0 661 0 661 40 696 c 0,32,33
764 696 m 0,42,43
 769 696 769 696 804 656 c 1,44,-1
 804 40 l 2,45,46
 804 35 804 35 764 0 c 0,47,48
 759 0 759 0 644 120 c 1,49,-1
 644 576 l 2,50,51
 644 581 644 581 764 696 c 0,42,43
EndSplineSet
EndChar

StartChar: L
Encoding: 76 76 47
Width: 905
Flags: W
LayerCount: 2
Fore
SplineSet
0 1424 m 1,0,-1
 4 1424 l 2,1,2
 10 1424 10 1424 160 1264 c 1,3,-1
 160 856 l 2,4,5
 160 851 160 851 40 736 c 0,6,7
 35 736 35 736 0 776 c 1,8,-1
 0 1424 l 1,0,-1
40 696 m 0,9,10
 45 696 45 696 160 576 c 1,11,-1
 160 168 l 2,12,13
 160 163 160 163 40 48 c 0,14,15
 35 48 35 48 0 88 c 1,16,-1
 0 656 l 2,17,18
 0 661 0 661 40 696 c 0,9,10
196 160 m 1,19,-1
 604 160 l 2,20,21
 609 160 609 160 724 40 c 0,22,23
 724 35 724 35 684 0 c 1,24,-1
 116 0 l 2,25,26
 111 0 111 0 76 40 c 0,27,28
 76 45 76 45 196 160 c 1,19,-1
EndSplineSet
EndChar

StartChar: M
Encoding: 77 77 48
Width: 1635
Flags: W
LayerCount: 2
Fore
SplineSet
120 1428 m 1,0,-1
 688 1428 l 2,1,2
 693 1428 693 1428 728 1388 c 0,3,4
 728 1383 728 1383 608 1268 c 1,5,-1
 200 1268 l 2,6,7
 195 1268 195 1268 80 1388 c 0,8,9
 80 1393 80 1393 120 1428 c 1,0,-1
844 1428 m 1,10,-1
 1412 1428 l 2,11,12
 1417 1428 1417 1428 1452 1388 c 0,13,14
 1452 1383 1452 1383 1332 1268 c 1,15,-1
 924 1268 l 2,16,17
 919 1268 919 1268 804 1388 c 0,18,19
 804 1393 804 1393 844 1428 c 1,10,-1
764 1388 m 0,20,21
 769 1388 769 1388 804 1348 c 1,22,-1
 804 780 l 2,23,24
 804 775 804 775 764 740 c 0,25,26
 759 740 759 740 644 860 c 1,27,-1
 644 1268 l 2,28,29
 644 1273 644 1273 764 1388 c 0,20,21
1488 1388 m 0,30,31
 1493 1388 1493 1388 1528 1348 c 1,32,-1
 1528 780 l 2,33,34
 1528 775 1528 775 1488 740 c 0,35,36
 1483 740 1483 740 1368 860 c 1,37,-1
 1368 1268 l 2,38,39
 1368 1273 1368 1273 1488 1388 c 0,30,31
40 1384 m 0,40,41
 45 1384 45 1384 160 1264 c 1,42,-1
 160 856 l 2,43,44
 160 851 160 851 40 736 c 0,45,46
 35 736 35 736 0 776 c 1,47,-1
 0 1344 l 2,48,49
 0 1349 0 1349 40 1384 c 0,40,41
120 696 m 0,50,51
 125 696 125 696 160 656 c 1,52,-1
 160 40 l 2,53,54
 160 35 160 35 120 0 c 0,55,56
 115 0 115 0 0 120 c 1,57,-1
 0 576 l 2,58,59
 0 581 0 581 120 696 c 0,50,51
764 696 m 0,60,61
 769 696 769 696 804 656 c 1,62,-1
 804 40 l 2,63,64
 804 35 804 35 764 0 c 0,65,66
 759 0 759 0 644 120 c 1,67,-1
 644 576 l 2,68,69
 644 581 644 581 764 696 c 0,60,61
1408 696 m 0,70,71
 1413 696 1413 696 1528 576 c 1,72,-1
 1528 120 l 2,73,74
 1528 115 1528 115 1408 0 c 0,75,76
 1403 0 1403 0 1368 40 c 1,77,-1
 1368 656 l 2,78,79
 1368 661 1368 661 1408 696 c 0,70,71
EndSplineSet
EndChar

StartChar: N
Encoding: 78 78 49
Width: 905
Flags: W
LayerCount: 2
Fore
SplineSet
40 1428 m 0,0,1
 45 1428 45 1428 160 1308 c 1,2,-1
 160 852 l 2,3,4
 160 847 160 847 40 732 c 0,5,6
 35 732 35 732 0 772 c 1,7,-1
 0 1388 l 2,8,9
 0 1393 0 1393 40 1428 c 0,0,1
764 1428 m 0,10,11
 769 1428 769 1428 804 1388 c 1,12,-1
 804 772 l 2,13,14
 804 767 804 767 764 732 c 0,15,16
 759 732 759 732 644 852 c 1,17,-1
 644 1308 l 2,18,19
 644 1313 644 1313 764 1428 c 0,10,11
204 1264 m 2,20,-1
 252 1264 l 1,21,22
 329 1200 329 1200 516 1004 c 1,23,24
 527 1004 527 1004 600 924 c 1,25,-1
 600 764 l 2,26,27
 600 756 600 756 592 756 c 2,28,-1
 544 756 l 2,29,30
 540 756 540 756 540 760 c 1,31,-1
 532 756 l 1,32,33
 361 936 361 936 196 1096 c 1,34,-1
 196 1256 l 2,35,36
 197 1264 197 1264 204 1264 c 2,20,-1
40 696 m 0,37,38
 45 696 45 696 160 576 c 1,39,-1
 160 120 l 2,40,41
 160 115 160 115 40 0 c 0,42,43
 35 0 35 0 0 40 c 1,44,-1
 0 656 l 2,45,46
 0 661 0 661 40 696 c 0,37,38
764 696 m 0,47,48
 769 696 769 696 804 656 c 1,49,-1
 804 40 l 2,50,51
 804 35 804 35 764 0 c 0,52,53
 759 0 759 0 644 120 c 1,54,-1
 644 576 l 2,55,56
 644 581 644 581 764 696 c 0,47,48
EndSplineSet
EndChar

StartChar: O
Encoding: 79 79 50
Width: 905
Flags: W
LayerCount: 2
Fore
SplineSet
120 1428 m 1,0,-1
 688 1428 l 2,1,2
 693 1428 693 1428 728 1388 c 0,3,4
 728 1383 728 1383 608 1268 c 1,5,-1
 200 1268 l 2,6,7
 195 1268 195 1268 80 1388 c 0,8,9
 80 1393 80 1393 120 1428 c 1,0,-1
764 1388 m 0,10,11
 769 1388 769 1388 804 1348 c 1,12,-1
 804 780 l 2,13,14
 804 775 804 775 764 740 c 0,15,16
 759 740 759 740 644 860 c 1,17,-1
 644 1268 l 2,18,19
 644 1273 644 1273 764 1388 c 0,10,11
40 1384 m 0,20,21
 45 1384 45 1384 160 1264 c 1,22,-1
 160 856 l 2,23,24
 160 851 160 851 40 736 c 0,25,26
 35 736 35 736 0 776 c 1,27,-1
 0 1344 l 2,28,29
 0 1349 0 1349 40 1384 c 0,20,21
40 696 m 0,30,31
 45 696 45 696 160 576 c 1,32,-1
 160 168 l 2,33,34
 160 163 160 163 40 48 c 0,35,36
 35 48 35 48 0 88 c 1,37,-1
 0 656 l 2,38,39
 0 661 0 661 40 696 c 0,30,31
764 692 m 0,40,41
 769 692 769 692 804 652 c 1,42,-1
 804 84 l 2,43,44
 804 79 804 79 764 44 c 0,45,46
 759 44 759 44 644 164 c 1,47,-1
 644 572 l 2,48,49
 644 577 644 577 764 692 c 0,40,41
196 160 m 1,50,-1
 604 160 l 2,51,52
 609 160 609 160 724 40 c 0,53,54
 724 35 724 35 684 0 c 1,55,-1
 116 0 l 2,56,57
 111 0 111 0 76 40 c 0,58,59
 76 45 76 45 196 160 c 1,50,-1
EndSplineSet
EndChar

StartChar: P
Encoding: 80 80 51
Width: 905
Flags: W
LayerCount: 2
Fore
SplineSet
120 1428 m 1,0,-1
 688 1428 l 2,1,2
 693 1428 693 1428 728 1388 c 0,3,4
 728 1383 728 1383 608 1268 c 1,5,-1
 200 1268 l 2,6,7
 195 1268 195 1268 80 1388 c 0,8,9
 80 1393 80 1393 120 1428 c 1,0,-1
764 1388 m 0,10,11
 769 1388 769 1388 804 1348 c 1,12,-1
 804 780 l 2,13,14
 804 775 804 775 764 740 c 0,15,16
 759 740 759 740 644 860 c 1,17,-1
 644 1268 l 2,18,19
 644 1273 644 1273 764 1388 c 0,10,11
40 1384 m 0,20,21
 45 1384 45 1384 160 1264 c 1,22,-1
 160 856 l 2,23,24
 160 851 160 851 40 736 c 0,25,26
 35 736 35 736 0 776 c 1,27,-1
 0 1344 l 2,28,29
 0 1349 0 1349 40 1384 c 0,20,21
160 800 m 1,30,-1
 632 800 l 2,31,32
 637 800 637 800 712 720 c 1,33,-1
 712 716 l 2,34,35
 712 711 712 711 632 636 c 1,36,-1
 160 636 l 2,37,38
 155 636 155 636 80 716 c 1,39,-1
 80 720 l 2,40,41
 80 725 80 725 160 800 c 1,30,-1
40 696 m 0,42,43
 45 696 45 696 160 576 c 1,44,-1
 160 120 l 2,45,46
 160 115 160 115 40 0 c 0,47,48
 35 0 35 0 0 40 c 1,49,-1
 0 656 l 2,50,51
 0 661 0 661 40 696 c 0,42,43
EndSplineSet
EndChar

StartChar: Q
Encoding: 81 81 52
Width: 905
Flags: W
LayerCount: 2
Fore
SplineSet
120 1428 m 1,0,-1
 688 1428 l 2,1,2
 693 1428 693 1428 728 1388 c 0,3,4
 728 1383 728 1383 608 1268 c 1,5,-1
 200 1268 l 2,6,7
 195 1268 195 1268 80 1388 c 0,8,9
 80 1393 80 1393 120 1428 c 1,0,-1
764 1388 m 0,10,11
 769 1388 769 1388 804 1348 c 1,12,-1
 804 780 l 2,13,14
 804 775 804 775 764 740 c 0,15,16
 759 740 759 740 644 860 c 1,17,-1
 644 1268 l 2,18,19
 644 1273 644 1273 764 1388 c 0,10,11
40 1384 m 0,20,21
 45 1384 45 1384 160 1264 c 1,22,-1
 160 856 l 2,23,24
 160 851 160 851 40 736 c 0,25,26
 35 736 35 736 0 776 c 1,27,-1
 0 1344 l 2,28,29
 0 1349 0 1349 40 1384 c 0,20,21
40 696 m 0,30,31
 45 696 45 696 160 576 c 1,32,-1
 160 168 l 2,33,34
 160 163 160 163 40 48 c 0,35,36
 35 48 35 48 0 88 c 1,37,-1
 0 656 l 2,38,39
 0 661 0 661 40 696 c 0,30,31
764 692 m 0,40,41
 769 692 769 692 804 652 c 1,42,-1
 804 84 l 2,43,44
 804 79 804 79 764 44 c 0,45,46
 759 44 759 44 644 164 c 1,47,-1
 644 572 l 2,48,49
 644 577 644 577 764 692 c 0,40,41
400 356 m 1,50,-1
 404 356 l 2,51,52
 409 356 409 356 484 276 c 1,53,-1
 484 208 l 2,54,55
 484 200 484 200 476 200 c 2,56,-1
 328 200 l 2,57,58
 320 200 320 200 320 208 c 2,59,-1
 320 276 l 2,60,61
 320 281 320 281 400 356 c 1,50,-1
196 160 m 1,62,-1
 604 160 l 2,63,64
 609 160 609 160 724 40 c 0,65,66
 724 35 724 35 684 0 c 1,67,-1
 116 0 l 2,68,69
 111 0 111 0 76 40 c 0,70,71
 76 45 76 45 196 160 c 1,62,-1
328 -40 m 2,72,-1
 476 -40 l 2,73,74
 484 -41 484 -41 484 -48 c 2,75,-1
 484 -120 l 2,76,77
 484 -125 484 -125 404 -200 c 1,78,-1
 400 -200 l 2,79,80
 395 -200 395 -200 320 -120 c 1,81,-1
 320 -48 l 2,82,83
 321 -40 321 -40 328 -40 c 2,72,-1
EndSplineSet
EndChar

StartChar: R
Encoding: 82 82 53
Width: 905
Flags: W
LayerCount: 2
Fore
SplineSet
120 1428 m 1,0,-1
 688 1428 l 2,1,2
 693 1428 693 1428 728 1388 c 0,3,4
 728 1383 728 1383 608 1268 c 1,5,-1
 200 1268 l 2,6,7
 195 1268 195 1268 80 1388 c 0,8,9
 80 1393 80 1393 120 1428 c 1,0,-1
764 1388 m 0,10,11
 769 1388 769 1388 804 1348 c 1,12,-1
 804 780 l 2,13,14
 804 775 804 775 764 740 c 0,15,16
 759 740 759 740 644 860 c 1,17,-1
 644 1268 l 2,18,19
 644 1273 644 1273 764 1388 c 0,10,11
40 1384 m 0,20,21
 45 1384 45 1384 160 1264 c 1,22,-1
 160 856 l 2,23,24
 160 851 160 851 40 736 c 0,25,26
 35 736 35 736 0 776 c 1,27,-1
 0 1344 l 2,28,29
 0 1349 0 1349 40 1384 c 0,20,21
160 800 m 1,30,-1
 632 800 l 2,31,32
 637 800 637 800 712 720 c 1,33,-1
 712 716 l 2,34,35
 712 711 712 711 632 636 c 1,36,-1
 160 636 l 2,37,38
 155 636 155 636 80 716 c 1,39,-1
 80 720 l 2,40,41
 80 725 80 725 160 800 c 1,30,-1
40 696 m 0,42,43
 45 696 45 696 160 576 c 1,44,-1
 160 120 l 2,45,46
 160 115 160 115 40 0 c 0,47,48
 35 0 35 0 0 40 c 1,49,-1
 0 656 l 2,50,51
 0 661 0 661 40 696 c 0,42,43
440 596 m 1,52,-1
 556 596 l 1,53,54
 640 553 640 553 700 336 c 1,55,56
 716 302 716 302 804 52 c 1,57,58
 784 12 784 12 784 4 c 1,59,-1
 780 4 l 1,60,61
 616 63 616 63 616 100 c 1,62,63
 496 441 496 441 432 592 c 1,64,-1
 440 596 l 1,52,-1
EndSplineSet
EndChar

StartChar: S
Encoding: 83 83 54
Width: 905
Flags: W
LayerCount: 2
Fore
SplineSet
120 1428 m 1,0,-1
 688 1428 l 2,1,2
 693 1428 693 1428 728 1388 c 0,3,4
 728 1383 728 1383 608 1268 c 1,5,-1
 200 1268 l 2,6,7
 195 1268 195 1268 80 1388 c 0,8,9
 80 1393 80 1393 120 1428 c 1,0,-1
40 1384 m 0,10,11
 45 1384 45 1384 160 1264 c 1,12,-1
 160 856 l 2,13,14
 160 851 160 851 40 736 c 0,15,16
 35 736 35 736 0 776 c 1,17,-1
 0 1344 l 2,18,19
 0 1349 0 1349 40 1384 c 0,10,11
160 800 m 1,20,-1
 632 800 l 2,21,22
 637 800 637 800 712 720 c 1,23,-1
 712 716 l 2,24,25
 712 711 712 711 632 636 c 1,26,-1
 160 636 l 2,27,28
 155 636 155 636 80 716 c 1,29,-1
 80 720 l 2,30,31
 80 725 80 725 160 800 c 1,20,-1
764 692 m 0,32,33
 769 692 769 692 804 652 c 1,34,-1
 804 84 l 2,35,36
 804 79 804 79 764 44 c 0,37,38
 759 44 759 44 644 164 c 1,39,-1
 644 572 l 2,40,41
 644 577 644 577 764 692 c 0,32,33
196 160 m 1,42,-1
 604 160 l 2,43,44
 609 160 609 160 724 40 c 0,45,46
 724 35 724 35 684 0 c 1,47,-1
 116 0 l 2,48,49
 111 0 111 0 76 40 c 0,50,51
 76 45 76 45 196 160 c 1,42,-1
EndSplineSet
EndChar

StartChar: T
Encoding: 84 84 55
Width: 905
Flags: W
LayerCount: 2
Fore
SplineSet
40 1428 m 1,0,-1
 764 1428 l 2,1,2
 769 1428 769 1428 804 1388 c 0,3,4
 804 1383 804 1383 684 1268 c 1,5,-1
 120 1268 l 2,6,7
 115 1268 115 1268 0 1388 c 0,8,9
 0 1393 0 1393 40 1428 c 1,0,-1
388 1196 m 0,10,11
 393 1196 393 1196 508 1076 c 1,12,-1
 508 752 l 2,13,14
 508 747 508 747 388 632 c 0,15,16
 383 632 383 632 348 672 c 1,17,-1
 348 1156 l 2,18,19
 348 1161 348 1161 388 1196 c 0,10,11
468 560 m 0,20,21
 473 560 473 560 508 520 c 1,22,-1
 508 40 l 2,23,24
 508 35 508 35 468 0 c 0,25,26
 463 0 463 0 348 120 c 1,27,-1
 348 440 l 2,28,29
 348 445 348 445 468 560 c 0,20,21
EndSplineSet
EndChar

StartChar: U
Encoding: 85 85 56
Width: 905
Flags: W
LayerCount: 2
Fore
SplineSet
40 1428 m 0,0,1
 45 1428 45 1428 160 1308 c 1,2,-1
 160 852 l 2,3,4
 160 847 160 847 40 732 c 0,5,6
 35 732 35 732 0 772 c 1,7,-1
 0 1388 l 2,8,9
 0 1393 0 1393 40 1428 c 0,0,1
764 1428 m 0,10,11
 769 1428 769 1428 804 1388 c 1,12,-1
 804 772 l 2,13,14
 804 767 804 767 764 732 c 0,15,16
 759 732 759 732 644 852 c 1,17,-1
 644 1308 l 2,18,19
 644 1313 644 1313 764 1428 c 0,10,11
40 692 m 0,20,21
 45 692 45 692 160 572 c 1,22,-1
 160 164 l 2,23,24
 160 159 160 159 40 44 c 0,25,26
 35 44 35 44 0 84 c 1,27,-1
 0 652 l 2,28,29
 0 657 0 657 40 692 c 0,20,21
764 688 m 0,30,31
 769 688 769 688 804 648 c 1,32,-1
 804 80 l 2,33,34
 804 75 804 75 764 40 c 0,35,36
 759 40 759 40 644 160 c 1,37,-1
 644 568 l 2,38,39
 644 573 644 573 764 688 c 0,30,31
200 160 m 1,40,-1
 608 160 l 2,41,42
 613 160 613 160 728 40 c 0,43,44
 728 35 728 35 688 0 c 1,45,-1
 120 0 l 2,46,47
 115 0 115 0 80 40 c 0,48,49
 80 45 80 45 200 160 c 1,40,-1
EndSplineSet
EndChar

StartChar: V
Encoding: 86 86 57
Width: 905
Flags: W
LayerCount: 2
Fore
SplineSet
40 1428 m 0,0,1
 45 1428 45 1428 160 1308 c 1,2,-1
 160 708 l 2,3,4
 160 703 160 703 40 588 c 0,5,6
 35 588 35 588 0 628 c 1,7,-1
 0 1388 l 2,8,9
 0 1393 0 1393 40 1428 c 0,0,1
756 1428 m 1,10,-1
 764 1428 l 2,11,12
 769 1428 769 1428 800 1392 c 1,13,-1
 800 644 l 2,14,15
 800 639 800 639 760 604 c 0,16,17
 755 604 755 604 640 724 c 1,18,-1
 640 1312 l 2,19,20
 640 1317 640 1317 756 1428 c 1,10,-1
16 556 m 1,21,22
 170 520 170 520 184 512 c 1,23,24
 199 481 199 481 392 176 c 1,25,26
 361 8 361 8 352 8 c 2,27,-1
 348 8 l 2,28,29
 295 8 295 8 280 52 c 1,30,31
 249 95 249 95 0 500 c 1,32,33
 8 542 8 542 16 556 c 1,21,22
788 544 m 1,34,35
 800 504 800 504 800 484 c 1,36,-1
 496 8 l 1,37,38
 456 0 456 0 448 0 c 1,39,40
 438 18 438 18 408 164 c 1,41,42
 616 504 616 504 624 508 c 0,43,44
 761 544 761 544 788 544 c 1,34,35
EndSplineSet
EndChar

StartChar: W
Encoding: 87 87 58
Width: 1540
Flags: W
LayerCount: 2
Fore
SplineSet
40 1444 m 0,0,1
 45 1444 45 1444 160 1324 c 1,2,-1
 160 724 l 2,3,4
 160 719 160 719 40 604 c 0,5,6
 35 604 35 604 0 644 c 1,7,-1
 0 1404 l 2,8,9
 0 1409 0 1409 40 1444 c 0,0,1
760 1444 m 0,10,11
 765 1444 765 1444 800 1404 c 1,12,-1
 800 724 l 2,13,14
 800 719 800 719 680 604 c 0,15,16
 675 604 675 604 640 644 c 1,17,-1
 640 1324 l 2,18,19
 640 1329 640 1329 760 1444 c 0,10,11
1400 1444 m 0,20,21
 1405 1444 1405 1444 1440 1404 c 1,22,-1
 1440 644 l 2,23,24
 1440 639 1440 639 1400 604 c 0,25,26
 1395 604 1395 604 1280 724 c 1,27,-1
 1280 1324 l 2,28,29
 1280 1329 1280 1329 1400 1444 c 0,20,21
16 556 m 1,30,31
 170 520 170 520 184 512 c 1,32,33
 199 481 199 481 392 176 c 1,34,35
 361 8 361 8 352 8 c 2,36,-1
 348 8 l 2,37,38
 295 8 295 8 280 52 c 1,39,40
 249 95 249 95 0 500 c 1,41,42
 8 542 8 542 16 556 c 1,30,31
788 544 m 1,43,-1
 792 536 l 1,44,-1
 792 528 l 1,45,46
 673 273 673 273 520 40 c 1,47,48
 505 0 505 0 448 0 c 1,49,50
 438 18 438 18 408 164 c 1,51,52
 616 504 616 504 624 508 c 0,53,54
 761 544 761 544 788 544 c 1,43,-1
1428 544 m 1,55,56
 1440 504 1440 504 1440 484 c 1,57,-1
 1136 8 l 1,58,59
 1096 0 1096 0 1088 0 c 1,60,61
 1078 18 1078 18 1048 164 c 1,62,63
 1256 504 1256 504 1264 508 c 0,64,65
 1401 544 1401 544 1428 544 c 1,55,56
836 484 m 1,66,67
 846 475 846 475 1032 176 c 1,68,69
 1001 8 1001 8 992 8 c 2,70,-1
 988 8 l 2,71,72
 935 8 935 8 920 52 c 1,73,-1
 748 324 l 1,74,75
 828 480 828 480 836 484 c 1,66,67
EndSplineSet
EndChar

StartChar: X
Encoding: 88 88 59
Width: 905
Flags: W
LayerCount: 2
Fore
SplineSet
16 1428 m 1,0,1
 188 1390 188 1390 188 1372 c 1,2,-1
 388 1044 l 1,3,4
 356 888 356 888 348 876 c 1,5,6
 280 888 280 888 280 916 c 1,7,-1
 0 1368 l 1,8,9
 0 1399 0 1399 16 1428 c 1,0,1
788 1428 m 1,10,11
 796 1414 796 1414 804 1372 c 1,12,13
 520 904 520 904 504 888 c 1,14,15
 493 888 493 888 456 876 c 0,16,17
 449 876 449 876 416 1044 c 1,18,19
 622 1386 622 1386 628 1388 c 2,20,-1
 788 1428 l 1,10,11
200 792 m 1,21,-1
 680 792 l 2,22,23
 685 792 685 792 720 752 c 0,24,25
 720 747 720 747 600 632 c 1,26,-1
 120 632 l 2,27,28
 115 632 115 632 80 672 c 0,29,30
 80 677 80 677 200 792 c 1,21,-1
348 548 m 1,31,32
 356 539 356 539 388 376 c 1,33,34
 192 60 192 60 172 36 c 1,35,36
 38 0 38 0 12 0 c 1,37,38
 0 41 0 41 0 56 c 1,39,40
 271 501 271 501 300 536 c 1,41,-1
 348 548 l 1,31,32
456 548 m 1,42,43
 528 534 528 534 528 500 c 1,44,45
 655 301 655 301 804 52 c 1,46,47
 797 0 797 0 780 0 c 0,48,49
 612 30 612 30 612 60 c 1,50,51
 445 327 445 327 416 384 c 1,52,53
 448 541 448 541 456 548 c 1,42,43
EndSplineSet
EndChar

StartChar: Y
Encoding: 89 89 60
Width: 905
Flags: W
LayerCount: 2
Fore
SplineSet
40 1428 m 0,0,1
 45 1428 45 1428 160 1308 c 1,2,-1
 160 1140 l 2,3,4
 160 1135 160 1135 40 1020 c 0,5,6
 35 1020 35 1020 0 1060 c 1,7,-1
 0 1388 l 2,8,9
 0 1393 0 1393 40 1428 c 0,0,1
760 1428 m 0,10,11
 765 1428 765 1428 800 1388 c 1,12,-1
 800 1060 l 2,13,14
 800 1055 800 1055 760 1020 c 0,15,16
 755 1020 755 1020 640 1140 c 1,17,-1
 640 1308 l 2,18,19
 640 1313 640 1313 760 1428 c 0,10,11
16 988 m 1,20,21
 170 952 170 952 184 944 c 1,22,23
 199 913 199 913 392 608 c 1,24,25
 361 440 361 440 352 440 c 2,26,-1
 348 440 l 2,27,28
 295 440 295 440 280 484 c 1,29,30
 249 527 249 527 0 932 c 1,31,32
 8 974 8 974 16 988 c 1,20,21
788 976 m 1,33,34
 800 936 800 936 800 916 c 1,35,-1
 496 440 l 1,36,37
 456 432 456 432 448 432 c 1,38,39
 438 450 438 450 408 596 c 1,40,41
 616 936 616 936 624 940 c 0,42,43
 761 976 761 976 788 976 c 1,33,34
424 408 m 0,44,45
 429 408 429 408 464 368 c 1,46,-1
 464 40 l 2,47,48
 464 35 464 35 424 0 c 0,49,50
 419 0 419 0 304 120 c 1,51,-1
 304 288 l 2,52,53
 304 293 304 293 424 408 c 0,44,45
EndSplineSet
EndChar

StartChar: Z
Encoding: 90 90 61
Width: 901
Flags: W
LayerCount: 2
Fore
SplineSet
40 1428 m 1,0,-1
 608 1428 l 2,1,2
 613 1428 613 1428 648 1388 c 0,3,4
 648 1383 648 1383 528 1268 c 1,5,-1
 120 1268 l 2,6,7
 115 1268 115 1268 0 1388 c 0,8,9
 0 1393 0 1393 40 1428 c 1,0,-1
692 1304 m 1,10,11
 736 1169 736 1169 736 1132 c 1,12,13
 731 1129 731 1129 496 724 c 1,14,15
 449 712 449 712 444 712 c 1,16,17
 401 843 401 843 400 884 c 1,18,19
 415 903 415 903 640 1292 c 1,20,21
 687 1304 687 1304 692 1304 c 1,10,11
356 708 m 1,22,23
 400 573 400 573 400 536 c 1,24,25
 395 533 395 533 160 128 c 1,26,-1
 108 116 l 1,27,28
 65 247 65 247 64 288 c 1,29,30
 79 307 79 307 304 696 c 1,31,32
 351 708 351 708 356 708 c 1,22,23
264 160 m 1,33,-1
 672 160 l 2,34,35
 677 160 677 160 792 40 c 0,36,37
 792 35 792 35 752 0 c 1,38,-1
 184 0 l 2,39,40
 179 0 179 0 144 40 c 0,41,42
 144 45 144 45 264 160 c 1,33,-1
EndSplineSet
EndChar

StartChar: bracketleft
Encoding: 91 91 62
Width: 599
Flags: W
LayerCount: 2
Fore
SplineSet
460 1332 m 0,1,2
 381 1248 381 1248 376 1248 c 2,3,-1
 176 1248 l 1,4,5
 92 1327 92 1327 92 1332 c 0,6,7
 167 1412 167 1412 172 1412 c 2,8,-1
 380 1412 l 1,9,0
 460 1337 460 1337 460 1332 c 0,1,2
164 1172 m 2,11,-1
 164 780 l 1,12,13
 45 656 45 656 40 656 c 0,14,15
 0 691 0 691 0 696 c 2,16,-1
 0 1264 l 1,17,18
 35 1304 35 1304 40 1304 c 0,19,10
 164 1195 164 1195 164 1172 c 2,11,-1
160 512 m 1,21,-1
 160 200 l 1,22,23
 138 178 138 178 40 108 c 1,24,25
 13 122 13 122 0 140 c 1,26,-1
 0 572 l 1,27,28
 13 590 13 590 40 604 c 1,29,20
 138 534 138 534 160 512 c 1,21,-1
460 80 m 0,31,32
 385 0 385 0 380 0 c 2,33,-1
 172 0 l 1,34,35
 92 75 92 75 92 80 c 0,36,37
 171 164 171 164 176 164 c 2,38,-1
 376 164 l 1,39,30
 460 85 460 85 460 80 c 0,31,32
EndSplineSet
EndChar

StartChar: backslash
Encoding: 92 92 63
Width: 902
Flags: W
LayerCount: 2
Fore
SplineSet
168 1380 m 1,1,2
 189 1352 189 1352 396 964 c 1,3,4
 396 934 396 934 380 904 c 1,5,6
 237 952 237 952 224 952 c 1,7,8
 0 1356 0 1356 0 1372 c 2,9,-1
 0 1376 l 2,10,11
 0 1409 0 1409 12 1428 c 1,12,0
 21 1428 21 1428 168 1380 c 1,1,2
408 880 m 1,14,15
 435 848 435 848 640 460 c 1,16,17
 640 440 640 440 624 404 c 1,18,19
 615 404 615 404 468 452 c 1,20,21
 447 480 447 480 240 868 c 1,22,23
 240 898 240 898 256 928 c 1,24,13
 401 880 401 880 408 880 c 1,14,15
652 380 m 0,26,27
 672 377 672 377 788 160 c 1,28,29
 748 13 748 13 740 0 c 1,30,31
 729 0 729 0 692 12 c 1,32,33
 666 42 666 42 484 364 c 1,34,35
 491 407 491 407 500 420 c 1,36,25
 507 420 507 420 652 380 c 0,26,27
EndSplineSet
EndChar

StartChar: bracketright
Encoding: 93 93 64
Width: 604
Flags: W
LayerCount: 2
Fore
SplineSet
80 1412 m 1,0,-1
 288 1412 l 2,1,2
 293 1412 293 1412 368 1332 c 0,3,4
 368 1327 368 1327 284 1248 c 1,5,-1
 84 1248 l 2,6,7
 79 1248 79 1248 0 1332 c 0,8,9
 0 1337 0 1337 80 1412 c 1,0,-1
420 1304 m 0,10,11
 425 1304 425 1304 460 1264 c 1,12,-1
 460 696 l 2,13,14
 460 691 460 691 420 656 c 0,15,16
 415 656 415 656 296 780 c 1,17,-1
 296 1172 l 2,18,19
 296 1195 296 1195 420 1304 c 0,10,11
420 604 m 1,20,21
 447 590 447 590 460 572 c 1,22,-1
 460 140 l 1,23,24
 447 122 447 122 420 108 c 1,25,26
 322 178 322 178 300 200 c 1,27,-1
 300 512 l 1,28,29
 322 534 322 534 420 604 c 1,20,21
84 164 m 1,30,-1
 284 164 l 2,31,32
 289 164 289 164 368 80 c 0,33,34
 368 75 368 75 288 0 c 1,35,-1
 80 0 l 2,36,37
 75 0 75 0 0 80 c 0,38,39
 0 85 0 85 84 164 c 1,30,-1
EndSplineSet
EndChar

StartChar: asciicircum
Encoding: 94 94 65
Width: 1049
Flags: W
LayerCount: 2
Fore
SplineSet
608 1560 m 1,1,2
 630 1541 630 1541 912 1068 c 1,3,4
 912 1041 912 1041 896 1012 c 1,5,6
 850 1020 850 1020 736 1048 c 0,7,8
 728 1052 728 1052 520 1404 c 1,9,10
 556 1554 556 1554 564 1568 c 1,11,0
 592 1560 592 1560 608 1560 c 1,1,2
444 1400 m 1,13,-1
 236 1056 l 1,14,15
 236 1046 236 1046 76 1012 c 1,16,17
 56 1012 56 1012 56 1060 c 2,18,-1
 56 1064 l 2,19,20
 56 1080 56 1080 316 1500 c 1,21,22
 342 1568 342 1568 400 1568 c 0,23,12
 409 1568 409 1568 444 1400 c 1,13,-1
EndSplineSet
EndChar

StartChar: underscore
Encoding: 95 95 66
Width: 646
Flags: W
LayerCount: 2
Fore
SplineSet
89 164 m 1,0,-1
 561 164 l 2,1,2
 566 164 566 164 641 84 c 1,3,-1
 641 80 l 2,4,5
 641 75 641 75 561 0 c 1,6,-1
 89 0 l 2,7,8
 84 0 84 0 9 80 c 1,9,-1
 9 84 l 2,10,11
 9 89 9 89 89 164 c 1,0,-1
EndSplineSet
EndChar

StartChar: grave
Encoding: 96 96 67
Width: 1024
Flags: W
LayerCount: 2
Fore
SplineSet
586 1497 m 1,0,1
 611 1497 611 1497 690 1345 c 1,2,3
 656 1185 656 1185 642 1185 c 2,4,-1
 634 1185 l 2,5,6
 620 1185 620 1185 598 1189 c 1,7,8
 581 1203 581 1203 426 1477 c 1,9,10
 433 1520 433 1520 442 1533 c 1,11,-1
 586 1497 l 1,0,1
EndSplineSet
EndChar

StartChar: a
Encoding: 97 97 68
Width: 905
Flags: W
LayerCount: 2
Fore
SplineSet
120 1428 m 1,0,-1
 688 1428 l 2,1,2
 693 1428 693 1428 728 1388 c 0,3,4
 728 1383 728 1383 608 1268 c 1,5,-1
 200 1268 l 2,6,7
 195 1268 195 1268 80 1388 c 0,8,9
 80 1393 80 1393 120 1428 c 1,0,-1
764 1388 m 0,10,11
 769 1388 769 1388 804 1348 c 1,12,-1
 804 780 l 2,13,14
 804 775 804 775 764 740 c 0,15,16
 759 740 759 740 644 860 c 1,17,-1
 644 1268 l 2,18,19
 644 1273 644 1273 764 1388 c 0,10,11
40 1384 m 0,20,21
 45 1384 45 1384 160 1264 c 1,22,-1
 160 856 l 2,23,24
 160 851 160 851 40 736 c 0,25,26
 35 736 35 736 0 776 c 1,27,-1
 0 1344 l 2,28,29
 0 1349 0 1349 40 1384 c 0,20,21
160 800 m 1,30,-1
 632 800 l 2,31,32
 637 800 637 800 712 720 c 1,33,-1
 712 716 l 2,34,35
 712 711 712 711 632 636 c 1,36,-1
 160 636 l 2,37,38
 155 636 155 636 80 716 c 1,39,-1
 80 720 l 2,40,41
 80 725 80 725 160 800 c 1,30,-1
40 696 m 0,42,43
 45 696 45 696 160 576 c 1,44,-1
 160 120 l 2,45,46
 160 115 160 115 40 0 c 0,47,48
 35 0 35 0 0 40 c 1,49,-1
 0 656 l 2,50,51
 0 661 0 661 40 696 c 0,42,43
764 696 m 0,52,53
 769 696 769 696 804 656 c 1,54,-1
 804 40 l 2,55,56
 804 35 804 35 764 0 c 0,57,58
 759 0 759 0 644 120 c 1,59,-1
 644 576 l 2,60,61
 644 581 644 581 764 696 c 0,52,53
EndSplineSet
EndChar

StartChar: b
Encoding: 98 98 69
Width: 905
Flags: W
LayerCount: 2
Fore
SplineSet
40 1428 m 1,0,-1
 688 1428 l 2,1,2
 693 1428 693 1428 728 1388 c 0,3,4
 728 1383 728 1383 608 1268 c 1,5,-1
 200 1268 l 1,6,7
 55 1404 55 1404 40 1424 c 1,8,-1
 40 1428 l 1,0,-1
0 1420 m 1,9,-1
 4 1420 l 2,10,11
 9 1420 9 1420 160 1264 c 1,12,-1
 160 856 l 2,13,14
 160 851 160 851 40 736 c 0,15,16
 35 736 35 736 0 776 c 1,17,-1
 0 1420 l 1,9,-1
764 1388 m 0,18,19
 769 1388 769 1388 804 1348 c 1,20,-1
 804 780 l 2,21,22
 804 775 804 775 764 740 c 0,23,24
 759 740 759 740 644 860 c 1,25,-1
 644 1268 l 2,26,27
 644 1273 644 1273 764 1388 c 0,18,19
160 800 m 1,28,-1
 632 800 l 2,29,30
 637 800 637 800 712 720 c 1,31,-1
 712 716 l 2,32,33
 712 711 712 711 632 636 c 1,34,-1
 160 636 l 2,35,36
 155 636 155 636 80 716 c 1,37,-1
 80 720 l 2,38,39
 80 725 80 725 160 800 c 1,28,-1
40 696 m 0,40,41
 45 696 45 696 160 576 c 1,42,-1
 160 168 l 1,43,44
 24 23 24 23 4 8 c 1,45,-1
 0 8 l 1,46,-1
 0 656 l 2,47,48
 0 661 0 661 40 696 c 0,40,41
764 692 m 0,49,50
 769 692 769 692 804 652 c 1,51,-1
 804 84 l 2,52,53
 804 79 804 79 764 44 c 0,54,55
 759 44 759 44 644 164 c 1,56,-1
 644 572 l 2,57,58
 644 577 644 577 764 692 c 0,49,50
196 160 m 1,59,-1
 604 160 l 2,60,61
 609 160 609 160 724 40 c 0,62,63
 724 35 724 35 684 0 c 1,64,-1
 44 0 l 1,65,-1
 44 4 l 1,66,67
 175 144 175 144 196 160 c 1,59,-1
EndSplineSet
EndChar

StartChar: c
Encoding: 99 99 70
Width: 905
Flags: W
LayerCount: 2
Fore
SplineSet
120 1428 m 1,0,-1
 688 1428 l 2,1,2
 693 1428 693 1428 728 1388 c 0,3,4
 728 1383 728 1383 608 1268 c 1,5,-1
 200 1268 l 2,6,7
 195 1268 195 1268 80 1388 c 0,8,9
 80 1393 80 1393 120 1428 c 1,0,-1
40 1384 m 0,10,11
 45 1384 45 1384 160 1264 c 1,12,-1
 160 856 l 2,13,14
 160 851 160 851 40 736 c 0,15,16
 35 736 35 736 0 776 c 1,17,-1
 0 1344 l 2,18,19
 0 1349 0 1349 40 1384 c 0,10,11
40 696 m 0,20,21
 45 696 45 696 160 576 c 1,22,-1
 160 168 l 2,23,24
 160 163 160 163 40 48 c 0,25,26
 35 48 35 48 0 88 c 1,27,-1
 0 656 l 2,28,29
 0 661 0 661 40 696 c 0,20,21
196 160 m 1,30,-1
 604 160 l 2,31,32
 609 160 609 160 724 40 c 0,33,34
 724 35 724 35 684 0 c 1,35,-1
 116 0 l 2,36,37
 111 0 111 0 76 40 c 0,38,39
 76 45 76 45 196 160 c 1,30,-1
EndSplineSet
EndChar

StartChar: d
Encoding: 100 100 71
Width: 905
Flags: W
LayerCount: 2
Fore
SplineSet
40 1428 m 1,0,-1
 688 1428 l 2,1,2
 693 1428 693 1428 728 1388 c 0,3,4
 728 1383 728 1383 608 1268 c 1,5,-1
 200 1268 l 1,6,7
 55 1404 55 1404 40 1424 c 1,8,-1
 40 1428 l 1,0,-1
0 1420 m 1,9,-1
 4 1420 l 2,10,11
 9 1420 9 1420 160 1264 c 1,12,-1
 160 856 l 2,13,14
 160 851 160 851 40 736 c 0,15,16
 35 736 35 736 0 776 c 1,17,-1
 0 1420 l 1,9,-1
764 1388 m 0,18,19
 769 1388 769 1388 804 1348 c 1,20,-1
 804 780 l 2,21,22
 804 775 804 775 764 740 c 0,23,24
 759 740 759 740 644 860 c 1,25,-1
 644 1268 l 2,26,27
 644 1273 644 1273 764 1388 c 0,18,19
40 696 m 0,28,29
 45 696 45 696 160 576 c 1,30,-1
 160 168 l 1,31,32
 24 23 24 23 4 8 c 1,33,-1
 0 8 l 1,34,-1
 0 656 l 2,35,36
 0 661 0 661 40 696 c 0,28,29
764 692 m 0,37,38
 769 692 769 692 804 652 c 1,39,-1
 804 84 l 2,40,41
 804 79 804 79 764 44 c 0,42,43
 759 44 759 44 644 164 c 1,44,-1
 644 572 l 2,45,46
 644 577 644 577 764 692 c 0,37,38
196 160 m 1,47,-1
 604 160 l 2,48,49
 609 160 609 160 724 40 c 0,50,51
 724 35 724 35 684 0 c 1,52,-1
 44 0 l 1,53,-1
 44 4 l 1,54,55
 175 144 175 144 196 160 c 1,47,-1
EndSplineSet
EndChar

StartChar: e
Encoding: 101 101 72
Width: 905
Flags: W
LayerCount: 2
Fore
SplineSet
120 1428 m 1,0,-1
 688 1428 l 2,1,2
 693 1428 693 1428 728 1388 c 0,3,4
 728 1383 728 1383 608 1268 c 1,5,-1
 200 1268 l 2,6,7
 195 1268 195 1268 80 1388 c 0,8,9
 80 1393 80 1393 120 1428 c 1,0,-1
40 1384 m 0,10,11
 45 1384 45 1384 160 1264 c 1,12,-1
 160 856 l 2,13,14
 160 851 160 851 40 736 c 0,15,16
 35 736 35 736 0 776 c 1,17,-1
 0 1344 l 2,18,19
 0 1349 0 1349 40 1384 c 0,10,11
160 800 m 1,20,-1
 632 800 l 2,21,22
 637 800 637 800 712 720 c 1,23,-1
 712 716 l 2,24,25
 712 711 712 711 632 636 c 1,26,-1
 160 636 l 2,27,28
 155 636 155 636 80 716 c 1,29,-1
 80 720 l 2,30,31
 80 725 80 725 160 800 c 1,20,-1
40 696 m 0,32,33
 45 696 45 696 160 576 c 1,34,-1
 160 168 l 2,35,36
 160 163 160 163 40 48 c 0,37,38
 35 48 35 48 0 88 c 1,39,-1
 0 656 l 2,40,41
 0 661 0 661 40 696 c 0,32,33
196 160 m 1,42,-1
 604 160 l 2,43,44
 609 160 609 160 724 40 c 0,45,46
 724 35 724 35 684 0 c 1,47,-1
 116 0 l 2,48,49
 111 0 111 0 76 40 c 0,50,51
 76 45 76 45 196 160 c 1,42,-1
EndSplineSet
EndChar

StartChar: f
Encoding: 102 102 73
Width: 905
Flags: W
LayerCount: 2
Fore
SplineSet
120 1428 m 1,0,-1
 688 1428 l 2,1,2
 693 1428 693 1428 728 1388 c 0,3,4
 728 1383 728 1383 608 1268 c 1,5,-1
 200 1268 l 2,6,7
 195 1268 195 1268 80 1388 c 0,8,9
 80 1393 80 1393 120 1428 c 1,0,-1
40 1384 m 0,10,11
 45 1384 45 1384 160 1264 c 1,12,-1
 160 856 l 2,13,14
 160 851 160 851 40 736 c 0,15,16
 35 736 35 736 0 776 c 1,17,-1
 0 1344 l 2,18,19
 0 1349 0 1349 40 1384 c 0,10,11
160 800 m 1,20,-1
 632 800 l 2,21,22
 637 800 637 800 712 720 c 1,23,-1
 712 716 l 2,24,25
 712 711 712 711 632 636 c 1,26,-1
 160 636 l 2,27,28
 155 636 155 636 80 716 c 1,29,-1
 80 720 l 2,30,31
 80 725 80 725 160 800 c 1,20,-1
40 696 m 0,32,33
 45 696 45 696 160 576 c 1,34,-1
 160 120 l 2,35,36
 160 115 160 115 40 0 c 0,37,38
 35 0 35 0 0 40 c 1,39,-1
 0 656 l 2,40,41
 0 661 0 661 40 696 c 0,32,33
EndSplineSet
EndChar

StartChar: g
Encoding: 103 103 74
Width: 905
Flags: W
LayerCount: 2
Fore
SplineSet
120 1428 m 1,0,-1
 688 1428 l 2,1,2
 693 1428 693 1428 728 1388 c 0,3,4
 728 1383 728 1383 608 1268 c 1,5,-1
 200 1268 l 2,6,7
 195 1268 195 1268 80 1388 c 0,8,9
 80 1393 80 1393 120 1428 c 1,0,-1
40 1384 m 0,10,11
 45 1384 45 1384 160 1264 c 1,12,-1
 160 856 l 2,13,14
 160 851 160 851 40 736 c 0,15,16
 35 736 35 736 0 776 c 1,17,-1
 0 1344 l 2,18,19
 0 1349 0 1349 40 1384 c 0,10,11
428 800 m 1,20,-1
 632 800 l 2,21,22
 637 800 637 800 712 720 c 1,23,-1
 712 716 l 2,24,25
 712 711 712 711 632 636 c 1,26,-1
 428 636 l 2,27,28
 423 636 423 636 348 716 c 1,29,-1
 348 720 l 2,30,31
 348 725 348 725 428 800 c 1,20,-1
40 696 m 0,32,33
 45 696 45 696 160 576 c 1,34,-1
 160 168 l 2,35,36
 160 163 160 163 40 48 c 0,37,38
 35 48 35 48 0 88 c 1,39,-1
 0 656 l 2,40,41
 0 661 0 661 40 696 c 0,32,33
764 692 m 0,42,43
 769 692 769 692 804 652 c 1,44,-1
 804 84 l 2,45,46
 804 79 804 79 764 44 c 0,47,48
 759 44 759 44 644 164 c 1,49,-1
 644 572 l 2,50,51
 644 577 644 577 764 692 c 0,42,43
196 160 m 1,52,-1
 604 160 l 2,53,54
 609 160 609 160 724 40 c 0,55,56
 724 35 724 35 684 0 c 1,57,-1
 116 0 l 2,58,59
 111 0 111 0 76 40 c 0,60,61
 76 45 76 45 196 160 c 1,52,-1
EndSplineSet
EndChar

StartChar: h
Encoding: 104 104 75
Width: 905
Flags: W
LayerCount: 2
Fore
SplineSet
40 1428 m 0,0,1
 45 1428 45 1428 160 1308 c 1,2,-1
 160 852 l 2,3,4
 160 847 160 847 40 732 c 0,5,6
 35 732 35 732 0 772 c 1,7,-1
 0 1388 l 2,8,9
 0 1393 0 1393 40 1428 c 0,0,1
764 1428 m 0,10,11
 769 1428 769 1428 804 1388 c 1,12,-1
 804 772 l 2,13,14
 804 767 804 767 764 732 c 0,15,16
 759 732 759 732 644 852 c 1,17,-1
 644 1308 l 2,18,19
 644 1313 644 1313 764 1428 c 0,10,11
160 800 m 1,20,-1
 632 800 l 2,21,22
 637 800 637 800 712 720 c 1,23,-1
 712 716 l 2,24,25
 712 711 712 711 632 636 c 1,26,-1
 160 636 l 2,27,28
 155 636 155 636 80 716 c 1,29,-1
 80 720 l 2,30,31
 80 725 80 725 160 800 c 1,20,-1
40 696 m 0,32,33
 45 696 45 696 160 576 c 1,34,-1
 160 120 l 2,35,36
 160 115 160 115 40 0 c 0,37,38
 35 0 35 0 0 40 c 1,39,-1
 0 656 l 2,40,41
 0 661 0 661 40 696 c 0,32,33
764 696 m 0,42,43
 769 696 769 696 804 656 c 1,44,-1
 804 40 l 2,45,46
 804 35 804 35 764 0 c 0,47,48
 759 0 759 0 644 120 c 1,49,-1
 644 576 l 2,50,51
 644 581 644 581 764 696 c 0,42,43
EndSplineSet
EndChar

StartChar: i
Encoding: 105 105 76
Width: 279
Flags: W
LayerCount: 2
Fore
SplineSet
40 1428 m 0,0,1
 45 1428 45 1428 160 1308 c 1,2,-1
 160 852 l 2,3,4
 160 847 160 847 40 732 c 0,5,6
 35 732 35 732 0 772 c 1,7,-1
 0 1388 l 2,8,9
 0 1393 0 1393 40 1428 c 0,0,1
120 696 m 0,10,11
 125 696 125 696 160 656 c 1,12,-1
 160 40 l 2,13,14
 160 35 160 35 120 0 c 0,15,16
 115 0 115 0 0 120 c 1,17,-1
 0 576 l 2,18,19
 0 581 0 581 120 696 c 0,10,11
EndSplineSet
EndChar

StartChar: j
Encoding: 106 106 77
Width: 905
Flags: W
LayerCount: 2
Fore
SplineSet
764 1428 m 0,0,1
 769 1428 769 1428 804 1388 c 1,2,-1
 804 772 l 2,3,4
 804 767 804 767 764 732 c 0,5,6
 759 732 759 732 644 852 c 1,7,-1
 644 1308 l 2,8,9
 644 1313 644 1313 764 1428 c 0,0,1
40 696 m 0,10,11
 45 696 45 696 160 576 c 1,12,-1
 160 168 l 2,13,14
 160 163 160 163 40 48 c 0,15,16
 35 48 35 48 0 88 c 1,17,-1
 0 656 l 2,18,19
 0 661 0 661 40 696 c 0,10,11
764 692 m 0,20,21
 769 692 769 692 804 652 c 1,22,-1
 804 84 l 2,23,24
 804 79 804 79 764 44 c 0,25,26
 759 44 759 44 644 164 c 1,27,-1
 644 572 l 2,28,29
 644 577 644 577 764 692 c 0,20,21
196 160 m 1,30,-1
 604 160 l 2,31,32
 609 160 609 160 724 40 c 0,33,34
 724 35 724 35 684 0 c 1,35,-1
 116 0 l 2,36,37
 111 0 111 0 76 40 c 0,38,39
 76 45 76 45 196 160 c 1,30,-1
EndSplineSet
EndChar

StartChar: k
Encoding: 107 107 78
Width: 905
Flags: W
LayerCount: 2
Fore
SplineSet
40 1428 m 0,0,1
 45 1428 45 1428 160 1308 c 1,2,-1
 160 852 l 2,3,4
 160 847 160 847 40 732 c 0,5,6
 35 732 35 732 0 772 c 1,7,-1
 0 1388 l 2,8,9
 0 1393 0 1393 40 1428 c 0,0,1
636 1244 m 1,10,-1
 796 1244 l 2,11,12
 804 1243 804 1243 804 1236 c 2,13,-1
 804 1188 l 1,14,-1
 460 852 l 1,15,-1
 300 852 l 2,16,17
 292 852 292 852 292 860 c 2,18,-1
 292 908 l 1,19,-1
 636 1244 l 1,10,-1
160 800 m 1,20,-1
 632 800 l 2,21,22
 637 800 637 800 712 720 c 1,23,-1
 712 716 l 2,24,25
 712 711 712 711 632 636 c 1,26,-1
 160 636 l 2,27,28
 155 636 155 636 80 716 c 1,29,-1
 80 720 l 2,30,31
 80 725 80 725 160 800 c 1,20,-1
40 696 m 0,32,33
 45 696 45 696 160 576 c 1,34,-1
 160 120 l 2,35,36
 160 115 160 115 40 0 c 0,37,38
 35 0 35 0 0 40 c 1,39,-1
 0 656 l 2,40,41
 0 661 0 661 40 696 c 0,32,33
764 696 m 0,42,43
 769 696 769 696 804 656 c 1,44,-1
 804 40 l 2,45,46
 804 35 804 35 764 0 c 0,47,48
 759 0 759 0 644 120 c 1,49,-1
 644 576 l 2,50,51
 644 581 644 581 764 696 c 0,42,43
EndSplineSet
EndChar

StartChar: l
Encoding: 108 108 79
Width: 905
Flags: W
LayerCount: 2
Fore
SplineSet
0 1424 m 1,0,-1
 4 1424 l 2,1,2
 10 1424 10 1424 160 1264 c 1,3,-1
 160 856 l 2,4,5
 160 851 160 851 40 736 c 0,6,7
 35 736 35 736 0 776 c 1,8,-1
 0 1424 l 1,0,-1
40 696 m 0,9,10
 45 696 45 696 160 576 c 1,11,-1
 160 168 l 2,12,13
 160 163 160 163 40 48 c 0,14,15
 35 48 35 48 0 88 c 1,16,-1
 0 656 l 2,17,18
 0 661 0 661 40 696 c 0,9,10
196 160 m 1,19,-1
 604 160 l 2,20,21
 609 160 609 160 724 40 c 0,22,23
 724 35 724 35 684 0 c 1,24,-1
 116 0 l 2,25,26
 111 0 111 0 76 40 c 0,27,28
 76 45 76 45 196 160 c 1,19,-1
EndSplineSet
EndChar

StartChar: m
Encoding: 109 109 80
Width: 1635
Flags: W
LayerCount: 2
Fore
SplineSet
120 1428 m 1,0,-1
 688 1428 l 2,1,2
 693 1428 693 1428 728 1388 c 0,3,4
 728 1383 728 1383 608 1268 c 1,5,-1
 200 1268 l 2,6,7
 195 1268 195 1268 80 1388 c 0,8,9
 80 1393 80 1393 120 1428 c 1,0,-1
844 1428 m 1,10,-1
 1412 1428 l 2,11,12
 1417 1428 1417 1428 1452 1388 c 0,13,14
 1452 1383 1452 1383 1332 1268 c 1,15,-1
 924 1268 l 2,16,17
 919 1268 919 1268 804 1388 c 0,18,19
 804 1393 804 1393 844 1428 c 1,10,-1
764 1388 m 0,20,21
 769 1388 769 1388 804 1348 c 1,22,-1
 804 780 l 2,23,24
 804 775 804 775 764 740 c 0,25,26
 759 740 759 740 644 860 c 1,27,-1
 644 1268 l 2,28,29
 644 1273 644 1273 764 1388 c 0,20,21
1488 1388 m 0,30,31
 1493 1388 1493 1388 1528 1348 c 1,32,-1
 1528 780 l 2,33,34
 1528 775 1528 775 1488 740 c 0,35,36
 1483 740 1483 740 1368 860 c 1,37,-1
 1368 1268 l 2,38,39
 1368 1273 1368 1273 1488 1388 c 0,30,31
40 1384 m 0,40,41
 45 1384 45 1384 160 1264 c 1,42,-1
 160 856 l 2,43,44
 160 851 160 851 40 736 c 0,45,46
 35 736 35 736 0 776 c 1,47,-1
 0 1344 l 2,48,49
 0 1349 0 1349 40 1384 c 0,40,41
120 696 m 0,50,51
 125 696 125 696 160 656 c 1,52,-1
 160 40 l 2,53,54
 160 35 160 35 120 0 c 0,55,56
 115 0 115 0 0 120 c 1,57,-1
 0 576 l 2,58,59
 0 581 0 581 120 696 c 0,50,51
764 696 m 0,60,61
 769 696 769 696 804 656 c 1,62,-1
 804 40 l 2,63,64
 804 35 804 35 764 0 c 0,65,66
 759 0 759 0 644 120 c 1,67,-1
 644 576 l 2,68,69
 644 581 644 581 764 696 c 0,60,61
1408 696 m 0,70,71
 1413 696 1413 696 1528 576 c 1,72,-1
 1528 120 l 2,73,74
 1528 115 1528 115 1408 0 c 0,75,76
 1403 0 1403 0 1368 40 c 1,77,-1
 1368 656 l 2,78,79
 1368 661 1368 661 1408 696 c 0,70,71
EndSplineSet
EndChar

StartChar: n
Encoding: 110 110 81
Width: 905
Flags: W
LayerCount: 2
Fore
SplineSet
40 1428 m 0,0,1
 45 1428 45 1428 160 1308 c 1,2,-1
 160 852 l 2,3,4
 160 847 160 847 40 732 c 0,5,6
 35 732 35 732 0 772 c 1,7,-1
 0 1388 l 2,8,9
 0 1393 0 1393 40 1428 c 0,0,1
764 1428 m 0,10,11
 769 1428 769 1428 804 1388 c 1,12,-1
 804 772 l 2,13,14
 804 767 804 767 764 732 c 0,15,16
 759 732 759 732 644 852 c 1,17,-1
 644 1308 l 2,18,19
 644 1313 644 1313 764 1428 c 0,10,11
204 1264 m 2,20,-1
 252 1264 l 1,21,22
 329 1200 329 1200 516 1004 c 1,23,24
 527 1004 527 1004 600 924 c 1,25,-1
 600 764 l 2,26,27
 600 756 600 756 592 756 c 2,28,-1
 544 756 l 2,29,30
 540 756 540 756 540 760 c 1,31,-1
 532 756 l 1,32,33
 361 936 361 936 196 1096 c 1,34,-1
 196 1256 l 2,35,36
 197 1264 197 1264 204 1264 c 2,20,-1
40 696 m 0,37,38
 45 696 45 696 160 576 c 1,39,-1
 160 120 l 2,40,41
 160 115 160 115 40 0 c 0,42,43
 35 0 35 0 0 40 c 1,44,-1
 0 656 l 2,45,46
 0 661 0 661 40 696 c 0,37,38
764 696 m 0,47,48
 769 696 769 696 804 656 c 1,49,-1
 804 40 l 2,50,51
 804 35 804 35 764 0 c 0,52,53
 759 0 759 0 644 120 c 1,54,-1
 644 576 l 2,55,56
 644 581 644 581 764 696 c 0,47,48
EndSplineSet
EndChar

StartChar: o
Encoding: 111 111 82
Width: 905
Flags: W
LayerCount: 2
Fore
SplineSet
120 1428 m 1,0,-1
 688 1428 l 2,1,2
 693 1428 693 1428 728 1388 c 0,3,4
 728 1383 728 1383 608 1268 c 1,5,-1
 200 1268 l 2,6,7
 195 1268 195 1268 80 1388 c 0,8,9
 80 1393 80 1393 120 1428 c 1,0,-1
764 1388 m 0,10,11
 769 1388 769 1388 804 1348 c 1,12,-1
 804 780 l 2,13,14
 804 775 804 775 764 740 c 0,15,16
 759 740 759 740 644 860 c 1,17,-1
 644 1268 l 2,18,19
 644 1273 644 1273 764 1388 c 0,10,11
40 1384 m 0,20,21
 45 1384 45 1384 160 1264 c 1,22,-1
 160 856 l 2,23,24
 160 851 160 851 40 736 c 0,25,26
 35 736 35 736 0 776 c 1,27,-1
 0 1344 l 2,28,29
 0 1349 0 1349 40 1384 c 0,20,21
40 696 m 0,30,31
 45 696 45 696 160 576 c 1,32,-1
 160 168 l 2,33,34
 160 163 160 163 40 48 c 0,35,36
 35 48 35 48 0 88 c 1,37,-1
 0 656 l 2,38,39
 0 661 0 661 40 696 c 0,30,31
764 692 m 0,40,41
 769 692 769 692 804 652 c 1,42,-1
 804 84 l 2,43,44
 804 79 804 79 764 44 c 0,45,46
 759 44 759 44 644 164 c 1,47,-1
 644 572 l 2,48,49
 644 577 644 577 764 692 c 0,40,41
196 160 m 1,50,-1
 604 160 l 2,51,52
 609 160 609 160 724 40 c 0,53,54
 724 35 724 35 684 0 c 1,55,-1
 116 0 l 2,56,57
 111 0 111 0 76 40 c 0,58,59
 76 45 76 45 196 160 c 1,50,-1
EndSplineSet
EndChar

StartChar: p
Encoding: 112 112 83
Width: 905
Flags: W
LayerCount: 2
Fore
SplineSet
120 1428 m 1,0,-1
 688 1428 l 2,1,2
 693 1428 693 1428 728 1388 c 0,3,4
 728 1383 728 1383 608 1268 c 1,5,-1
 200 1268 l 2,6,7
 195 1268 195 1268 80 1388 c 0,8,9
 80 1393 80 1393 120 1428 c 1,0,-1
764 1388 m 0,10,11
 769 1388 769 1388 804 1348 c 1,12,-1
 804 780 l 2,13,14
 804 775 804 775 764 740 c 0,15,16
 759 740 759 740 644 860 c 1,17,-1
 644 1268 l 2,18,19
 644 1273 644 1273 764 1388 c 0,10,11
40 1384 m 0,20,21
 45 1384 45 1384 160 1264 c 1,22,-1
 160 856 l 2,23,24
 160 851 160 851 40 736 c 0,25,26
 35 736 35 736 0 776 c 1,27,-1
 0 1344 l 2,28,29
 0 1349 0 1349 40 1384 c 0,20,21
160 800 m 1,30,-1
 632 800 l 2,31,32
 637 800 637 800 712 720 c 1,33,-1
 712 716 l 2,34,35
 712 711 712 711 632 636 c 1,36,-1
 160 636 l 2,37,38
 155 636 155 636 80 716 c 1,39,-1
 80 720 l 2,40,41
 80 725 80 725 160 800 c 1,30,-1
40 696 m 0,42,43
 45 696 45 696 160 576 c 1,44,-1
 160 120 l 2,45,46
 160 115 160 115 40 0 c 0,47,48
 35 0 35 0 0 40 c 1,49,-1
 0 656 l 2,50,51
 0 661 0 661 40 696 c 0,42,43
EndSplineSet
EndChar

StartChar: q
Encoding: 113 113 84
Width: 905
Flags: W
LayerCount: 2
Fore
SplineSet
120 1428 m 1,0,-1
 688 1428 l 2,1,2
 693 1428 693 1428 728 1388 c 0,3,4
 728 1383 728 1383 608 1268 c 1,5,-1
 200 1268 l 2,6,7
 195 1268 195 1268 80 1388 c 0,8,9
 80 1393 80 1393 120 1428 c 1,0,-1
764 1388 m 0,10,11
 769 1388 769 1388 804 1348 c 1,12,-1
 804 780 l 2,13,14
 804 775 804 775 764 740 c 0,15,16
 759 740 759 740 644 860 c 1,17,-1
 644 1268 l 2,18,19
 644 1273 644 1273 764 1388 c 0,10,11
40 1384 m 0,20,21
 45 1384 45 1384 160 1264 c 1,22,-1
 160 856 l 2,23,24
 160 851 160 851 40 736 c 0,25,26
 35 736 35 736 0 776 c 1,27,-1
 0 1344 l 2,28,29
 0 1349 0 1349 40 1384 c 0,20,21
40 696 m 0,30,31
 45 696 45 696 160 576 c 1,32,-1
 160 168 l 2,33,34
 160 163 160 163 40 48 c 0,35,36
 35 48 35 48 0 88 c 1,37,-1
 0 656 l 2,38,39
 0 661 0 661 40 696 c 0,30,31
764 692 m 0,40,41
 769 692 769 692 804 652 c 1,42,-1
 804 84 l 2,43,44
 804 79 804 79 764 44 c 0,45,46
 759 44 759 44 644 164 c 1,47,-1
 644 572 l 2,48,49
 644 577 644 577 764 692 c 0,40,41
400 356 m 1,50,-1
 404 356 l 2,51,52
 409 356 409 356 484 276 c 1,53,-1
 484 208 l 2,54,55
 484 200 484 200 476 200 c 2,56,-1
 328 200 l 2,57,58
 320 200 320 200 320 208 c 2,59,-1
 320 276 l 2,60,61
 320 281 320 281 400 356 c 1,50,-1
196 160 m 1,62,-1
 604 160 l 2,63,64
 609 160 609 160 724 40 c 0,65,66
 724 35 724 35 684 0 c 1,67,-1
 116 0 l 2,68,69
 111 0 111 0 76 40 c 0,70,71
 76 45 76 45 196 160 c 1,62,-1
328 -40 m 2,72,-1
 476 -40 l 2,73,74
 484 -41 484 -41 484 -48 c 2,75,-1
 484 -120 l 2,76,77
 484 -125 484 -125 404 -200 c 1,78,-1
 400 -200 l 2,79,80
 395 -200 395 -200 320 -120 c 1,81,-1
 320 -48 l 2,82,83
 321 -40 321 -40 328 -40 c 2,72,-1
EndSplineSet
EndChar

StartChar: r
Encoding: 114 114 85
Width: 905
Flags: W
LayerCount: 2
Fore
SplineSet
120 1428 m 1,0,-1
 688 1428 l 2,1,2
 693 1428 693 1428 728 1388 c 0,3,4
 728 1383 728 1383 608 1268 c 1,5,-1
 200 1268 l 2,6,7
 195 1268 195 1268 80 1388 c 0,8,9
 80 1393 80 1393 120 1428 c 1,0,-1
764 1388 m 0,10,11
 769 1388 769 1388 804 1348 c 1,12,-1
 804 780 l 2,13,14
 804 775 804 775 764 740 c 0,15,16
 759 740 759 740 644 860 c 1,17,-1
 644 1268 l 2,18,19
 644 1273 644 1273 764 1388 c 0,10,11
40 1384 m 0,20,21
 45 1384 45 1384 160 1264 c 1,22,-1
 160 856 l 2,23,24
 160 851 160 851 40 736 c 0,25,26
 35 736 35 736 0 776 c 1,27,-1
 0 1344 l 2,28,29
 0 1349 0 1349 40 1384 c 0,20,21
160 800 m 1,30,-1
 632 800 l 2,31,32
 637 800 637 800 712 720 c 1,33,-1
 712 716 l 2,34,35
 712 711 712 711 632 636 c 1,36,-1
 160 636 l 2,37,38
 155 636 155 636 80 716 c 1,39,-1
 80 720 l 2,40,41
 80 725 80 725 160 800 c 1,30,-1
40 696 m 0,42,43
 45 696 45 696 160 576 c 1,44,-1
 160 120 l 2,45,46
 160 115 160 115 40 0 c 0,47,48
 35 0 35 0 0 40 c 1,49,-1
 0 656 l 2,50,51
 0 661 0 661 40 696 c 0,42,43
440 596 m 1,52,-1
 556 596 l 1,53,54
 640 553 640 553 700 336 c 1,55,56
 716 302 716 302 804 52 c 1,57,58
 784 12 784 12 784 4 c 1,59,-1
 780 4 l 1,60,61
 616 63 616 63 616 100 c 1,62,63
 496 441 496 441 432 592 c 1,64,-1
 440 596 l 1,52,-1
EndSplineSet
EndChar

StartChar: s
Encoding: 115 115 86
Width: 905
Flags: W
LayerCount: 2
Fore
SplineSet
120 1428 m 1,0,-1
 688 1428 l 2,1,2
 693 1428 693 1428 728 1388 c 0,3,4
 728 1383 728 1383 608 1268 c 1,5,-1
 200 1268 l 2,6,7
 195 1268 195 1268 80 1388 c 0,8,9
 80 1393 80 1393 120 1428 c 1,0,-1
40 1384 m 0,10,11
 45 1384 45 1384 160 1264 c 1,12,-1
 160 856 l 2,13,14
 160 851 160 851 40 736 c 0,15,16
 35 736 35 736 0 776 c 1,17,-1
 0 1344 l 2,18,19
 0 1349 0 1349 40 1384 c 0,10,11
160 800 m 1,20,-1
 632 800 l 2,21,22
 637 800 637 800 712 720 c 1,23,-1
 712 716 l 2,24,25
 712 711 712 711 632 636 c 1,26,-1
 160 636 l 2,27,28
 155 636 155 636 80 716 c 1,29,-1
 80 720 l 2,30,31
 80 725 80 725 160 800 c 1,20,-1
764 692 m 0,32,33
 769 692 769 692 804 652 c 1,34,-1
 804 84 l 2,35,36
 804 79 804 79 764 44 c 0,37,38
 759 44 759 44 644 164 c 1,39,-1
 644 572 l 2,40,41
 644 577 644 577 764 692 c 0,32,33
196 160 m 1,42,-1
 604 160 l 2,43,44
 609 160 609 160 724 40 c 0,45,46
 724 35 724 35 684 0 c 1,47,-1
 116 0 l 2,48,49
 111 0 111 0 76 40 c 0,50,51
 76 45 76 45 196 160 c 1,42,-1
EndSplineSet
EndChar

StartChar: t
Encoding: 116 116 87
Width: 905
Flags: W
LayerCount: 2
Fore
SplineSet
40 1428 m 1,0,-1
 764 1428 l 2,1,2
 769 1428 769 1428 804 1388 c 0,3,4
 804 1383 804 1383 684 1268 c 1,5,-1
 120 1268 l 2,6,7
 115 1268 115 1268 0 1388 c 0,8,9
 0 1393 0 1393 40 1428 c 1,0,-1
388 1196 m 0,10,11
 393 1196 393 1196 508 1076 c 1,12,-1
 508 752 l 2,13,14
 508 747 508 747 388 632 c 0,15,16
 383 632 383 632 348 672 c 1,17,-1
 348 1156 l 2,18,19
 348 1161 348 1161 388 1196 c 0,10,11
468 560 m 0,20,21
 473 560 473 560 508 520 c 1,22,-1
 508 40 l 2,23,24
 508 35 508 35 468 0 c 0,25,26
 463 0 463 0 348 120 c 1,27,-1
 348 440 l 2,28,29
 348 445 348 445 468 560 c 0,20,21
EndSplineSet
EndChar

StartChar: u
Encoding: 117 117 88
Width: 905
Flags: W
LayerCount: 2
Fore
SplineSet
40 1428 m 0,0,1
 45 1428 45 1428 160 1308 c 1,2,-1
 160 852 l 2,3,4
 160 847 160 847 40 732 c 0,5,6
 35 732 35 732 0 772 c 1,7,-1
 0 1388 l 2,8,9
 0 1393 0 1393 40 1428 c 0,0,1
764 1428 m 0,10,11
 769 1428 769 1428 804 1388 c 1,12,-1
 804 772 l 2,13,14
 804 767 804 767 764 732 c 0,15,16
 759 732 759 732 644 852 c 1,17,-1
 644 1308 l 2,18,19
 644 1313 644 1313 764 1428 c 0,10,11
40 692 m 0,20,21
 45 692 45 692 160 572 c 1,22,-1
 160 164 l 2,23,24
 160 159 160 159 40 44 c 0,25,26
 35 44 35 44 0 84 c 1,27,-1
 0 652 l 2,28,29
 0 657 0 657 40 692 c 0,20,21
764 688 m 0,30,31
 769 688 769 688 804 648 c 1,32,-1
 804 80 l 2,33,34
 804 75 804 75 764 40 c 0,35,36
 759 40 759 40 644 160 c 1,37,-1
 644 568 l 2,38,39
 644 573 644 573 764 688 c 0,30,31
200 160 m 1,40,-1
 608 160 l 2,41,42
 613 160 613 160 728 40 c 0,43,44
 728 35 728 35 688 0 c 1,45,-1
 120 0 l 2,46,47
 115 0 115 0 80 40 c 0,48,49
 80 45 80 45 200 160 c 1,40,-1
EndSplineSet
EndChar

StartChar: v
Encoding: 118 118 89
Width: 905
Flags: W
LayerCount: 2
Fore
SplineSet
40 1428 m 0,0,1
 45 1428 45 1428 160 1308 c 1,2,-1
 160 708 l 2,3,4
 160 703 160 703 40 588 c 0,5,6
 35 588 35 588 0 628 c 1,7,-1
 0 1388 l 2,8,9
 0 1393 0 1393 40 1428 c 0,0,1
756 1428 m 1,10,-1
 764 1428 l 2,11,12
 769 1428 769 1428 800 1392 c 1,13,-1
 800 644 l 2,14,15
 800 639 800 639 760 604 c 0,16,17
 755 604 755 604 640 724 c 1,18,-1
 640 1312 l 2,19,20
 640 1317 640 1317 756 1428 c 1,10,-1
16 556 m 1,21,22
 170 520 170 520 184 512 c 1,23,24
 199 481 199 481 392 176 c 1,25,26
 361 8 361 8 352 8 c 2,27,-1
 348 8 l 2,28,29
 295 8 295 8 280 52 c 1,30,31
 249 95 249 95 0 500 c 1,32,33
 8 542 8 542 16 556 c 1,21,22
788 544 m 1,34,35
 800 504 800 504 800 484 c 1,36,-1
 496 8 l 1,37,38
 456 0 456 0 448 0 c 1,39,40
 438 18 438 18 408 164 c 1,41,42
 616 504 616 504 624 508 c 0,43,44
 761 544 761 544 788 544 c 1,34,35
EndSplineSet
EndChar

StartChar: w
Encoding: 119 119 90
Width: 1540
Flags: W
LayerCount: 2
Fore
SplineSet
40 1444 m 0,0,1
 45 1444 45 1444 160 1324 c 1,2,-1
 160 724 l 2,3,4
 160 719 160 719 40 604 c 0,5,6
 35 604 35 604 0 644 c 1,7,-1
 0 1404 l 2,8,9
 0 1409 0 1409 40 1444 c 0,0,1
760 1444 m 0,10,11
 765 1444 765 1444 800 1404 c 1,12,-1
 800 724 l 2,13,14
 800 719 800 719 680 604 c 0,15,16
 675 604 675 604 640 644 c 1,17,-1
 640 1324 l 2,18,19
 640 1329 640 1329 760 1444 c 0,10,11
1400 1444 m 0,20,21
 1405 1444 1405 1444 1440 1404 c 1,22,-1
 1440 644 l 2,23,24
 1440 639 1440 639 1400 604 c 0,25,26
 1395 604 1395 604 1280 724 c 1,27,-1
 1280 1324 l 2,28,29
 1280 1329 1280 1329 1400 1444 c 0,20,21
16 556 m 1,30,31
 170 520 170 520 184 512 c 1,32,33
 199 481 199 481 392 176 c 1,34,35
 361 8 361 8 352 8 c 2,36,-1
 348 8 l 2,37,38
 295 8 295 8 280 52 c 1,39,40
 249 95 249 95 0 500 c 1,41,42
 8 542 8 542 16 556 c 1,30,31
788 544 m 1,43,-1
 792 536 l 1,44,-1
 792 528 l 1,45,46
 673 273 673 273 520 40 c 1,47,48
 505 0 505 0 448 0 c 1,49,50
 438 18 438 18 408 164 c 1,51,52
 616 504 616 504 624 508 c 0,53,54
 761 544 761 544 788 544 c 1,43,-1
1428 544 m 1,55,56
 1440 504 1440 504 1440 484 c 1,57,-1
 1136 8 l 1,58,59
 1096 0 1096 0 1088 0 c 1,60,61
 1078 18 1078 18 1048 164 c 1,62,63
 1256 504 1256 504 1264 508 c 0,64,65
 1401 544 1401 544 1428 544 c 1,55,56
836 484 m 1,66,67
 846 475 846 475 1032 176 c 1,68,69
 1001 8 1001 8 992 8 c 2,70,-1
 988 8 l 2,71,72
 935 8 935 8 920 52 c 1,73,-1
 748 324 l 1,74,75
 828 480 828 480 836 484 c 1,66,67
EndSplineSet
EndChar

StartChar: x
Encoding: 120 120 91
Width: 905
Flags: W
LayerCount: 2
Fore
SplineSet
16 1428 m 1,0,1
 188 1390 188 1390 188 1372 c 1,2,-1
 388 1044 l 1,3,4
 356 888 356 888 348 876 c 1,5,6
 280 888 280 888 280 916 c 1,7,-1
 0 1368 l 1,8,9
 0 1399 0 1399 16 1428 c 1,0,1
788 1428 m 1,10,11
 796 1414 796 1414 804 1372 c 1,12,13
 520 904 520 904 504 888 c 1,14,15
 493 888 493 888 456 876 c 0,16,17
 449 876 449 876 416 1044 c 1,18,19
 622 1386 622 1386 628 1388 c 2,20,-1
 788 1428 l 1,10,11
200 792 m 1,21,-1
 680 792 l 2,22,23
 685 792 685 792 720 752 c 0,24,25
 720 747 720 747 600 632 c 1,26,-1
 120 632 l 2,27,28
 115 632 115 632 80 672 c 0,29,30
 80 677 80 677 200 792 c 1,21,-1
348 548 m 1,31,32
 356 539 356 539 388 376 c 1,33,34
 192 60 192 60 172 36 c 1,35,36
 38 0 38 0 12 0 c 1,37,38
 0 41 0 41 0 56 c 1,39,40
 271 501 271 501 300 536 c 1,41,-1
 348 548 l 1,31,32
456 548 m 1,42,43
 528 534 528 534 528 500 c 1,44,45
 655 301 655 301 804 52 c 1,46,47
 797 0 797 0 780 0 c 0,48,49
 612 30 612 30 612 60 c 1,50,51
 445 327 445 327 416 384 c 1,52,53
 448 541 448 541 456 548 c 1,42,43
EndSplineSet
EndChar

StartChar: y
Encoding: 121 121 92
Width: 905
Flags: W
LayerCount: 2
Fore
SplineSet
40 1428 m 0,0,1
 45 1428 45 1428 160 1308 c 1,2,-1
 160 1140 l 2,3,4
 160 1135 160 1135 40 1020 c 0,5,6
 35 1020 35 1020 0 1060 c 1,7,-1
 0 1388 l 2,8,9
 0 1393 0 1393 40 1428 c 0,0,1
760 1428 m 0,10,11
 765 1428 765 1428 800 1388 c 1,12,-1
 800 1060 l 2,13,14
 800 1055 800 1055 760 1020 c 0,15,16
 755 1020 755 1020 640 1140 c 1,17,-1
 640 1308 l 2,18,19
 640 1313 640 1313 760 1428 c 0,10,11
16 988 m 1,20,21
 170 952 170 952 184 944 c 1,22,23
 199 913 199 913 392 608 c 1,24,25
 361 440 361 440 352 440 c 2,26,-1
 348 440 l 2,27,28
 295 440 295 440 280 484 c 1,29,30
 249 527 249 527 0 932 c 1,31,32
 8 974 8 974 16 988 c 1,20,21
788 976 m 1,33,34
 800 936 800 936 800 916 c 1,35,-1
 496 440 l 1,36,37
 456 432 456 432 448 432 c 1,38,39
 438 450 438 450 408 596 c 1,40,41
 616 936 616 936 624 940 c 0,42,43
 761 976 761 976 788 976 c 1,33,34
424 408 m 0,44,45
 429 408 429 408 464 368 c 1,46,-1
 464 40 l 2,47,48
 464 35 464 35 424 0 c 0,49,50
 419 0 419 0 304 120 c 1,51,-1
 304 288 l 2,52,53
 304 293 304 293 424 408 c 0,44,45
EndSplineSet
EndChar

StartChar: z
Encoding: 122 122 93
Width: 901
Flags: W
LayerCount: 2
Fore
SplineSet
40 1428 m 1,0,-1
 608 1428 l 2,1,2
 613 1428 613 1428 648 1388 c 0,3,4
 648 1383 648 1383 528 1268 c 1,5,-1
 120 1268 l 2,6,7
 115 1268 115 1268 0 1388 c 0,8,9
 0 1393 0 1393 40 1428 c 1,0,-1
692 1304 m 1,10,11
 736 1169 736 1169 736 1132 c 1,12,13
 731 1129 731 1129 496 724 c 1,14,15
 449 712 449 712 444 712 c 1,16,17
 401 843 401 843 400 884 c 1,18,19
 415 903 415 903 640 1292 c 1,20,21
 687 1304 687 1304 692 1304 c 1,10,11
356 708 m 1,22,23
 400 573 400 573 400 536 c 1,24,25
 395 533 395 533 160 128 c 1,26,-1
 108 116 l 1,27,28
 65 247 65 247 64 288 c 1,29,30
 79 307 79 307 304 696 c 1,31,32
 351 708 351 708 356 708 c 1,22,23
264 160 m 1,33,-1
 672 160 l 2,34,35
 677 160 677 160 792 40 c 0,36,37
 792 35 792 35 752 0 c 1,38,-1
 184 0 l 2,39,40
 179 0 179 0 144 40 c 0,41,42
 144 45 144 45 264 160 c 1,33,-1
EndSplineSet
EndChar

StartChar: braceleft
Encoding: 123 123 94
Width: 601
Flags: W
LayerCount: 2
Fore
SplineSet
432 1428 m 0,0,1
 437 1428 437 1428 472 1388 c 1,2,-1
 472 772 l 2,3,4
 472 767 472 767 432 732 c 0,5,6
 427 732 427 732 312 852 c 1,7,-1
 312 1308 l 2,8,9
 312 1313 312 1313 432 1428 c 0,0,1
72 732 m 1,10,-1
 364 732 l 2,11,12
 370 732 370 732 388 708 c 0,13,14
 388 703 388 703 316 636 c 1,15,-1
 24 636 l 2,16,17
 18 636 18 636 0 660 c 0,18,19
 0 665 0 665 72 732 c 1,10,-1
432 648 m 0,20,21
 437 648 437 648 472 608 c 1,22,-1
 472 40 l 2,23,24
 472 35 472 35 432 0 c 0,25,26
 427 0 427 0 312 120 c 1,27,-1
 312 528 l 2,28,29
 312 533 312 533 432 648 c 0,20,21
EndSplineSet
EndChar

StartChar: bar
Encoding: 124 124 95
Width: 295
Flags: W
LayerCount: 2
Fore
SplineSet
120 1104 m 0,0,1
 125 1104 125 1104 160 1064 c 1,2,-1
 160 496 l 2,3,4
 160 491 160 491 120 456 c 0,5,6
 115 456 115 456 0 576 c 1,7,-1
 0 984 l 2,8,9
 0 989 0 989 120 1104 c 0,0,1
120 408 m 0,10,11
 125 408 125 408 160 368 c 1,12,-1
 160 -200 l 2,13,14
 160 -205 160 -205 120 -240 c 0,15,16
 115 -240 115 -240 0 -120 c 1,17,-1
 0 288 l 2,18,19
 0 293 0 293 120 408 c 0,10,11
120 1790 m 0,20,21
 125 1790 125 1790 160 1750 c 1,22,-1
 160 1182 l 2,23,24
 160 1177 160 1177 120 1142 c 0,25,26
 115 1142 115 1142 0 1262 c 1,27,-1
 0 1670 l 2,28,29
 0 1675 0 1675 120 1790 c 0,20,21
EndSplineSet
EndChar

StartChar: braceright
Encoding: 125 125 96
Width: 601
Flags: W
LayerCount: 2
Fore
SplineSet
160 1308 m 2,1,-1
 160 852 l 1,2,3
 45 732 45 732 40 732 c 0,4,5
 0 767 0 767 0 772 c 2,6,-1
 0 1388 l 1,7,8
 35 1428 35 1428 40 1428 c 0,9,0
 160 1313 160 1313 160 1308 c 2,1,-1
472 660 m 0,11,12
 454 636 454 636 448 636 c 2,13,-1
 156 636 l 1,14,15
 84 703 84 703 84 708 c 0,16,17
 102 732 102 732 108 732 c 2,18,-1
 400 732 l 1,19,10
 472 665 472 665 472 660 c 0,11,12
160 528 m 2,21,-1
 160 120 l 1,22,23
 45 0 45 0 40 0 c 0,24,25
 0 35 0 35 0 40 c 2,26,-1
 0 608 l 1,27,28
 35 648 35 648 40 648 c 0,29,20
 160 533 160 533 160 528 c 2,21,-1
EndSplineSet
EndChar

StartChar: asciitilde
Encoding: 126 126 97
Width: 1002
Flags: W
LayerCount: 2
Fore
SplineSet
273 1329 m 1,0,1
 277 1314 277 1314 282 1225 c 1,2,3
 121 1040 121 1040 116 1040 c 2,4,-1
 20 1033 l 1,5,6
 15 1047 15 1047 15 1069 c 1,7,8
 238 1326 238 1326 244 1327 c 0,9,10
 248 1327 248 1327 273 1329 c 1,0,1
299 1310 m 1,11,12
 405 1303 405 1303 405 1298 c 0,13,14
 425 1271 425 1271 562 1117 c 1,15,16
 557 1016 557 1016 550 1016 c 2,17,-1
 521 1016 l 1,18,19
 480 1059 480 1059 294 1276 c 1,20,21
 294 1293 294 1293 299 1310 c 1,11,12
829 1310 m 1,22,-1
 831 1305 l 1,23,-1
 831 1274 l 1,24,25
 709 1130 709 1130 607 1016 c 1,26,-1
 578 1016 l 2,27,28
 571 1016 571 1016 566 1117 c 1,29,30
 727 1303 727 1303 732 1303 c 2,31,-1
 829 1310 l 1,22,-1
EndSplineSet
EndChar

StartChar: exclamdown
Encoding: 161 161 98
Width: 311
Flags: W
LayerCount: 2
Fore
SplineSet
28 -210 m 2,1,-1
 28 274 l 1,2,3
 63 314 63 314 68 314 c 0,4,5
 188 199 188 199 188 194 c 2,6,-1
 188 -130 l 1,7,8
 73 -250 73 -250 68 -250 c 0,9,0
 28 -215 28 -215 28 -210 c 2,1,-1
28 406 m 2,11,-1
 28 726 l 1,12,13
 143 846 143 846 148 846 c 0,14,15
 188 811 188 811 188 806 c 2,16,-1
 188 326 l 1,17,18
 153 286 153 286 148 286 c 0,19,10
 28 401 28 401 28 406 c 2,11,-1
36 962 m 2,21,-1
 36 966 l 1,22,23
 63 1002 63 1002 84 1002 c 2,24,-1
 92 1002 l 2,25,26
 112 1002 112 1002 156 946 c 1,27,-1
 156 942 l 2,28,29
 156 935 156 935 148 934 c 2,30,-1
 64 934 l 1,31,20
 36 956 36 956 36 962 c 2,21,-1
148 1022 m 2,33,-1
 148 1058 l 2,34,35
 148 1063 148 1063 200 1106 c 1,36,-1
 204 1106 l 1,37,38
 216 1100 216 1100 216 1094 c 2,39,-1
 216 1010 l 1,40,41
 185 974 185 974 180 974 c 2,42,-1
 176 974 l 1,43,32
 148 990 148 990 148 1022 c 2,33,-1
0 1014 m 2,45,-1
 0 1098 l 1,46,47
 31 1134 31 1134 36 1134 c 2,48,-1
 44 1134 l 1,49,50
 44 1126 44 1126 68 1102 c 1,51,-1
 68 1050 l 1,52,53
 22 998 22 998 16 998 c 0,54,44
 0 1008 0 1008 0 1014 c 2,45,-1
60 1162 m 2,56,-1
 60 1166 l 2,57,58
 60 1174 60 1174 68 1174 c 2,59,-1
 152 1174 l 1,60,61
 184 1147 184 1147 184 1142 c 0,62,63
 157 1106 157 1106 132 1106 c 2,64,-1
 112 1106 l 1,65,55
 60 1152 60 1152 60 1162 c 2,56,-1
EndSplineSet
EndChar

StartChar: dieresis
Encoding: 168 168 105
Width: 1024
Flags: W
LayerCount: 2
Fore
SplineSet
240 1379 m 1,0,-1
 248 1379 l 2,1,2
 254 1379 254 1379 344 1283 c 1,3,-1
 344 1275 l 2,4,5
 344 1269 344 1269 248 1179 c 1,6,-1
 240 1179 l 2,7,8
 234 1179 234 1179 144 1275 c 1,9,-1
 144 1283 l 2,10,11
 144 1289 144 1289 240 1379 c 1,0,-1
830 1375 m 1,12,-1
 838 1375 l 2,13,14
 844 1375 844 1375 934 1279 c 1,15,-1
 934 1271 l 2,16,17
 934 1265 934 1265 838 1175 c 1,18,-1
 830 1175 l 2,19,20
 824 1175 824 1175 734 1271 c 1,21,-1
 734 1279 l 2,22,23
 734 1285 734 1285 830 1375 c 1,12,-1
EndSplineSet
EndChar

StartChar: degree
Encoding: 176 176 112
Width: 674
Flags: W
LayerCount: 2
Fore
SplineSet
259 1437 m 1,0,-1
 367 1437 l 2,1,2
 372 1437 372 1437 387 1417 c 1,3,-1
 387 1413 l 2,4,5
 387 1408 387 1408 323 1349 c 1,6,-1
 215 1349 l 2,7,8
 210 1349 210 1349 195 1369 c 1,9,-1
 195 1373 l 2,10,11
 195 1378 195 1378 259 1437 c 1,0,-1
391 1397 m 1,12,-1
 395 1397 l 2,13,14
 400 1397 400 1397 459 1333 c 1,15,-1
 459 1225 l 2,16,17
 459 1220 459 1220 439 1205 c 1,18,-1
 435 1205 l 2,19,20
 430 1205 430 1205 371 1269 c 1,21,-1
 371 1377 l 2,22,23
 371 1382 371 1382 391 1397 c 1,12,-1
191 1349 m 1,24,-1
 195 1349 l 2,25,26
 200 1349 200 1349 259 1285 c 1,27,-1
 259 1177 l 2,28,29
 259 1172 259 1172 239 1157 c 1,30,-1
 235 1157 l 2,31,32
 230 1157 230 1157 171 1221 c 1,33,-1
 171 1329 l 2,34,35
 171 1334 171 1334 191 1349 c 1,24,-1
307 1205 m 1,36,-1
 415 1205 l 2,37,38
 420 1205 420 1205 435 1185 c 1,39,-1
 435 1181 l 2,40,41
 435 1176 435 1176 371 1117 c 1,42,-1
 263 1117 l 2,43,44
 258 1117 258 1117 243 1137 c 1,45,-1
 243 1141 l 2,46,47
 243 1146 243 1146 307 1205 c 1,36,-1
EndSplineSet
EndChar

StartChar: acute
Encoding: 180 180 116
Width: 1024
Flags: W
LayerCount: 2
Fore
SplineSet
584 1533 m 1,0,1
 593 1520 593 1520 600 1477 c 1,2,3
 445 1203 445 1203 428 1189 c 1,4,5
 406 1185 406 1185 392 1185 c 2,6,-1
 384 1185 l 2,7,8
 370 1185 370 1185 336 1345 c 1,9,10
 415 1497 415 1497 440 1497 c 1,11,-1
 584 1533 l 1,0,1
EndSplineSet
EndChar

StartChar: questiondown
Encoding: 191 191 127
Width: 802
Flags: W
LayerCount: 2
Fore
SplineSet
688 0 m 1,0,-1
 120 0 l 2,1,2
 115 0 115 0 80 40 c 0,3,4
 80 45 80 45 200 160 c 1,5,-1
 608 160 l 2,6,7
 613 160 613 160 728 40 c 0,8,9
 728 35 728 35 688 0 c 1,0,-1
40 44 m 0,10,11
 35 44 35 44 0 84 c 1,12,-1
 0 652 l 2,13,14
 0 657 0 657 40 692 c 0,15,16
 45 692 45 692 160 572 c 1,17,-1
 160 164 l 2,18,19
 160 159 160 159 40 44 c 0,10,11
632 628 m 1,20,-1
 160 628 l 2,21,22
 155 628 155 628 80 708 c 1,23,-1
 80 712 l 2,24,25
 80 717 80 717 160 792 c 1,26,-1
 632 792 l 2,27,28
 637 792 637 792 712 712 c 1,29,-1
 712 708 l 2,30,31
 712 703 712 703 632 628 c 1,20,-1
648 864 m 0,32,33
 643 864 643 864 564 948 c 1,34,-1
 564 1148 l 2,35,36
 564 1153 564 1153 648 1232 c 0,37,38
 653 1232 653 1232 728 1152 c 1,39,-1
 728 944 l 2,40,41
 728 939 728 939 648 864 c 0,32,33
652 1272 m 1,42,-1
 648 1272 l 2,43,44
 643 1272 643 1272 572 1348 c 1,45,-1
 572 1352 l 2,46,47
 572 1357 572 1357 648 1428 c 1,48,-1
 652 1428 l 2,49,50
 657 1428 657 1428 728 1352 c 1,51,-1
 728 1348 l 2,52,53
 728 1343 728 1343 652 1272 c 1,42,-1
EndSplineSet
EndChar

StartChar: AE
Encoding: 198 198 134
Width: 1609
Flags: W
LayerCount: 2
Fore
SplineSet
120 1428 m 1,0,-1
 688 1428 l 2,1,2
 693 1428 693 1428 728 1388 c 0,3,4
 728 1383 728 1383 608 1268 c 1,5,-1
 200 1268 l 2,6,7
 195 1268 195 1268 80 1388 c 0,8,9
 80 1393 80 1393 120 1428 c 1,0,-1
764 1388 m 0,10,11
 769 1388 769 1388 804 1348 c 1,12,-1
 804 780 l 2,13,14
 804 775 804 775 764 740 c 0,15,16
 759 740 759 740 644 860 c 1,17,-1
 644 1268 l 2,18,19
 644 1273 644 1273 764 1388 c 0,10,11
40 1384 m 0,20,21
 45 1384 45 1384 160 1264 c 1,22,-1
 160 856 l 2,23,24
 160 851 160 851 40 736 c 0,25,26
 35 736 35 736 0 776 c 1,27,-1
 0 1344 l 2,28,29
 0 1349 0 1349 40 1384 c 0,20,21
160 800 m 1,30,-1
 632 800 l 2,31,32
 637 800 637 800 712 720 c 1,33,-1
 712 716 l 2,34,35
 712 711 712 711 632 636 c 1,36,-1
 160 636 l 2,37,38
 155 636 155 636 80 716 c 1,39,-1
 80 720 l 2,40,41
 80 725 80 725 160 800 c 1,30,-1
40 696 m 0,42,43
 45 696 45 696 160 576 c 1,44,-1
 160 120 l 2,45,46
 160 115 160 115 40 0 c 0,47,48
 35 0 35 0 0 40 c 1,49,-1
 0 656 l 2,50,51
 0 661 0 661 40 696 c 0,42,43
764 696 m 0,52,53
 769 696 769 696 804 656 c 1,54,-1
 804 40 l 2,55,56
 804 35 804 35 764 0 c 0,57,58
 759 0 759 0 644 120 c 1,59,-1
 644 576 l 2,60,61
 644 581 644 581 764 696 c 0,52,53
860 1428 m 1,62,-1
 1428 1428 l 2,63,64
 1433 1428 1433 1428 1468 1388 c 0,65,66
 1468 1383 1468 1383 1348 1268 c 1,67,-1
 940 1268 l 2,68,69
 935 1268 935 1268 820 1388 c 0,70,71
 820 1393 820 1393 860 1428 c 1,62,-1
900 800 m 1,72,-1
 1372 800 l 2,73,74
 1377 800 1377 800 1452 720 c 1,75,-1
 1452 716 l 2,76,77
 1452 711 1452 711 1372 636 c 1,78,-1
 900 636 l 2,79,80
 895 636 895 636 820 716 c 1,81,-1
 820 720 l 2,82,83
 820 725 820 725 900 800 c 1,72,-1
936 160 m 1,84,-1
 1344 160 l 2,85,86
 1349 160 1349 160 1464 40 c 0,87,88
 1464 35 1464 35 1424 0 c 1,89,-1
 856 0 l 2,90,91
 851 0 851 0 816 40 c 0,92,93
 816 45 816 45 936 160 c 1,84,-1
EndSplineSet
EndChar

StartChar: agrave
Encoding: 224 224 160
Width: 905
Flags: W
LayerCount: 2
Fore
SplineSet
120 1428 m 1,0,-1
 688 1428 l 2,1,2
 693 1428 693 1428 728 1388 c 0,3,4
 728 1383 728 1383 608 1268 c 1,5,-1
 200 1268 l 2,6,7
 195 1268 195 1268 80 1388 c 0,8,9
 80 1393 80 1393 120 1428 c 1,0,-1
764 1388 m 0,10,11
 769 1388 769 1388 804 1348 c 1,12,-1
 804 780 l 2,13,14
 804 775 804 775 764 740 c 0,15,16
 759 740 759 740 644 860 c 1,17,-1
 644 1268 l 2,18,19
 644 1273 644 1273 764 1388 c 0,10,11
40 1384 m 0,20,21
 45 1384 45 1384 160 1264 c 1,22,-1
 160 856 l 2,23,24
 160 851 160 851 40 736 c 0,25,26
 35 736 35 736 0 776 c 1,27,-1
 0 1344 l 2,28,29
 0 1349 0 1349 40 1384 c 0,20,21
160 800 m 1,30,-1
 632 800 l 2,31,32
 637 800 637 800 712 720 c 1,33,-1
 712 716 l 2,34,35
 712 711 712 711 632 636 c 1,36,-1
 160 636 l 2,37,38
 155 636 155 636 80 716 c 1,39,-1
 80 720 l 2,40,41
 80 725 80 725 160 800 c 1,30,-1
40 696 m 0,42,43
 45 696 45 696 160 576 c 1,44,-1
 160 120 l 2,45,46
 160 115 160 115 40 0 c 0,47,48
 35 0 35 0 0 40 c 1,49,-1
 0 656 l 2,50,51
 0 661 0 661 40 696 c 0,42,43
764 696 m 0,52,53
 769 696 769 696 804 656 c 1,54,-1
 804 40 l 2,55,56
 804 35 804 35 764 0 c 0,57,58
 759 0 759 0 644 120 c 1,59,-1
 644 576 l 2,60,61
 644 581 644 581 764 696 c 0,52,53
386 1907 m 1,62,63
 411 1907 411 1907 490 1755 c 1,64,65
 456 1595 456 1595 442 1595 c 2,66,-1
 434 1595 l 2,67,68
 420 1595 420 1595 398 1599 c 1,69,70
 381 1613 381 1613 226 1887 c 1,71,72
 233 1930 233 1930 242 1943 c 1,73,-1
 386 1907 l 1,62,63
EndSplineSet
EndChar

StartChar: aacute
Encoding: 225 225 161
Width: 905
Flags: W
LayerCount: 2
Fore
SplineSet
120 1428 m 1,0,-1
 688 1428 l 2,1,2
 693 1428 693 1428 728 1388 c 0,3,4
 728 1383 728 1383 608 1268 c 1,5,-1
 200 1268 l 2,6,7
 195 1268 195 1268 80 1388 c 0,8,9
 80 1393 80 1393 120 1428 c 1,0,-1
764 1388 m 0,10,11
 769 1388 769 1388 804 1348 c 1,12,-1
 804 780 l 2,13,14
 804 775 804 775 764 740 c 0,15,16
 759 740 759 740 644 860 c 1,17,-1
 644 1268 l 2,18,19
 644 1273 644 1273 764 1388 c 0,10,11
40 1384 m 0,20,21
 45 1384 45 1384 160 1264 c 1,22,-1
 160 856 l 2,23,24
 160 851 160 851 40 736 c 0,25,26
 35 736 35 736 0 776 c 1,27,-1
 0 1344 l 2,28,29
 0 1349 0 1349 40 1384 c 0,20,21
160 800 m 1,30,-1
 632 800 l 2,31,32
 637 800 637 800 712 720 c 1,33,-1
 712 716 l 2,34,35
 712 711 712 711 632 636 c 1,36,-1
 160 636 l 2,37,38
 155 636 155 636 80 716 c 1,39,-1
 80 720 l 2,40,41
 80 725 80 725 160 800 c 1,30,-1
40 696 m 0,42,43
 45 696 45 696 160 576 c 1,44,-1
 160 120 l 2,45,46
 160 115 160 115 40 0 c 0,47,48
 35 0 35 0 0 40 c 1,49,-1
 0 656 l 2,50,51
 0 661 0 661 40 696 c 0,42,43
764 696 m 0,52,53
 769 696 769 696 804 656 c 1,54,-1
 804 40 l 2,55,56
 804 35 804 35 764 0 c 0,57,58
 759 0 759 0 644 120 c 1,59,-1
 644 576 l 2,60,61
 644 581 644 581 764 696 c 0,52,53
572 1943 m 1,62,63
 581 1930 581 1930 588 1887 c 1,64,65
 433 1613 433 1613 416 1599 c 1,66,67
 394 1595 394 1595 380 1595 c 2,68,-1
 372 1595 l 2,69,70
 358 1595 358 1595 324 1755 c 1,71,72
 403 1907 403 1907 428 1907 c 1,73,-1
 572 1943 l 1,62,63
EndSplineSet
EndChar

StartChar: acircumflex
Encoding: 226 226 162
Width: 905
Flags: W
LayerCount: 2
Fore
SplineSet
120 1428 m 1,0,-1
 688 1428 l 2,1,2
 693 1428 693 1428 728 1388 c 0,3,4
 728 1383 728 1383 608 1268 c 1,5,-1
 200 1268 l 2,6,7
 195 1268 195 1268 80 1388 c 0,8,9
 80 1393 80 1393 120 1428 c 1,0,-1
764 1388 m 0,10,11
 769 1388 769 1388 804 1348 c 1,12,-1
 804 780 l 2,13,14
 804 775 804 775 764 740 c 0,15,16
 759 740 759 740 644 860 c 1,17,-1
 644 1268 l 2,18,19
 644 1273 644 1273 764 1388 c 0,10,11
40 1384 m 0,20,21
 45 1384 45 1384 160 1264 c 1,22,-1
 160 856 l 2,23,24
 160 851 160 851 40 736 c 0,25,26
 35 736 35 736 0 776 c 1,27,-1
 0 1344 l 2,28,29
 0 1349 0 1349 40 1384 c 0,20,21
160 800 m 1,30,-1
 632 800 l 2,31,32
 637 800 637 800 712 720 c 1,33,-1
 712 716 l 2,34,35
 712 711 712 711 632 636 c 1,36,-1
 160 636 l 2,37,38
 155 636 155 636 80 716 c 1,39,-1
 80 720 l 2,40,41
 80 725 80 725 160 800 c 1,30,-1
40 696 m 0,42,43
 45 696 45 696 160 576 c 1,44,-1
 160 120 l 2,45,46
 160 115 160 115 40 0 c 0,47,48
 35 0 35 0 0 40 c 1,49,-1
 0 656 l 2,50,51
 0 661 0 661 40 696 c 0,42,43
764 696 m 0,52,53
 769 696 769 696 804 656 c 1,54,-1
 804 40 l 2,55,56
 804 35 804 35 764 0 c 0,57,58
 759 0 759 0 644 120 c 1,59,-1
 644 576 l 2,60,61
 644 581 644 581 764 696 c 0,52,53
386 1933 m 1,62,63
 395 1920 395 1920 402 1877 c 1,64,65
 247 1603 247 1603 230 1589 c 1,66,67
 208 1585 208 1585 194 1585 c 2,68,-1
 186 1585 l 2,69,70
 172 1585 172 1585 138 1745 c 1,71,72
 217 1897 217 1897 242 1897 c 1,73,-1
 386 1933 l 1,62,63
562 1893 m 1,74,75
 587 1893 587 1893 666 1741 c 1,76,77
 632 1581 632 1581 618 1581 c 2,78,-1
 610 1581 l 2,79,80
 596 1581 596 1581 574 1585 c 1,81,82
 557 1599 557 1599 402 1873 c 1,83,84
 409 1916 409 1916 418 1929 c 1,85,-1
 562 1893 l 1,74,75
EndSplineSet
EndChar

StartChar: atilde
Encoding: 227 227 163
Width: 905
Flags: W
LayerCount: 2
Fore
SplineSet
120 1428 m 1,0,-1
 688 1428 l 2,1,2
 693 1428 693 1428 728 1388 c 0,3,4
 728 1383 728 1383 608 1268 c 1,5,-1
 200 1268 l 2,6,7
 195 1268 195 1268 80 1388 c 0,8,9
 80 1393 80 1393 120 1428 c 1,0,-1
764 1388 m 0,10,11
 769 1388 769 1388 804 1348 c 1,12,-1
 804 780 l 2,13,14
 804 775 804 775 764 740 c 0,15,16
 759 740 759 740 644 860 c 1,17,-1
 644 1268 l 2,18,19
 644 1273 644 1273 764 1388 c 0,10,11
40 1384 m 0,20,21
 45 1384 45 1384 160 1264 c 1,22,-1
 160 856 l 2,23,24
 160 851 160 851 40 736 c 0,25,26
 35 736 35 736 0 776 c 1,27,-1
 0 1344 l 2,28,29
 0 1349 0 1349 40 1384 c 0,20,21
160 800 m 1,30,-1
 632 800 l 2,31,32
 637 800 637 800 712 720 c 1,33,-1
 712 716 l 2,34,35
 712 711 712 711 632 636 c 1,36,-1
 160 636 l 2,37,38
 155 636 155 636 80 716 c 1,39,-1
 80 720 l 2,40,41
 80 725 80 725 160 800 c 1,30,-1
40 696 m 0,42,43
 45 696 45 696 160 576 c 1,44,-1
 160 120 l 2,45,46
 160 115 160 115 40 0 c 0,47,48
 35 0 35 0 0 40 c 1,49,-1
 0 656 l 2,50,51
 0 661 0 661 40 696 c 0,42,43
764 696 m 0,52,53
 769 696 769 696 804 656 c 1,54,-1
 804 40 l 2,55,56
 804 35 804 35 764 0 c 0,57,58
 759 0 759 0 644 120 c 1,59,-1
 644 576 l 2,60,61
 644 581 644 581 764 696 c 0,52,53
230 1945 m 1,62,63
 239 1932 239 1932 246 1889 c 1,64,65
 91 1615 91 1615 74 1601 c 1,66,67
 52 1597 52 1597 38 1597 c 2,68,-1
 30 1597 l 2,69,70
 16 1597 16 1597 -18 1757 c 1,71,72
 61 1909 61 1909 86 1909 c 1,73,-1
 230 1945 l 1,62,63
286 1945 m 0,74,75
 454 1905 454 1905 454 1889 c 1,76,77
 530 1758 530 1758 530 1753 c 0,78,79
 495 1597 495 1597 482 1597 c 2,80,-1
 474 1597 l 2,81,82
 427 1597 427 1597 414 1629 c 1,83,84
 266 1885 266 1885 266 1897 c 0,85,86
 276 1945 276 1945 286 1945 c 0,74,75
806 1945 m 1,87,88
 815 1932 815 1932 822 1889 c 1,89,90
 667 1615 667 1615 650 1601 c 1,91,92
 628 1597 628 1597 614 1597 c 2,93,-1
 606 1597 l 2,94,95
 592 1597 592 1597 558 1757 c 1,96,97
 637 1909 637 1909 662 1909 c 1,98,-1
 806 1945 l 1,87,88
EndSplineSet
EndChar

StartChar: adieresis
Encoding: 228 228 164
Width: 905
Flags: W
LayerCount: 2
Fore
SplineSet
120 1428 m 1,0,-1
 688 1428 l 2,1,2
 693 1428 693 1428 728 1388 c 0,3,4
 728 1383 728 1383 608 1268 c 1,5,-1
 200 1268 l 2,6,7
 195 1268 195 1268 80 1388 c 0,8,9
 80 1393 80 1393 120 1428 c 1,0,-1
764 1388 m 0,10,11
 769 1388 769 1388 804 1348 c 1,12,-1
 804 780 l 2,13,14
 804 775 804 775 764 740 c 0,15,16
 759 740 759 740 644 860 c 1,17,-1
 644 1268 l 2,18,19
 644 1273 644 1273 764 1388 c 0,10,11
40 1384 m 0,20,21
 45 1384 45 1384 160 1264 c 1,22,-1
 160 856 l 2,23,24
 160 851 160 851 40 736 c 0,25,26
 35 736 35 736 0 776 c 1,27,-1
 0 1344 l 2,28,29
 0 1349 0 1349 40 1384 c 0,20,21
160 800 m 1,30,-1
 632 800 l 2,31,32
 637 800 637 800 712 720 c 1,33,-1
 712 716 l 2,34,35
 712 711 712 711 632 636 c 1,36,-1
 160 636 l 2,37,38
 155 636 155 636 80 716 c 1,39,-1
 80 720 l 2,40,41
 80 725 80 725 160 800 c 1,30,-1
40 696 m 0,42,43
 45 696 45 696 160 576 c 1,44,-1
 160 120 l 2,45,46
 160 115 160 115 40 0 c 0,47,48
 35 0 35 0 0 40 c 1,49,-1
 0 656 l 2,50,51
 0 661 0 661 40 696 c 0,42,43
764 696 m 0,52,53
 769 696 769 696 804 656 c 1,54,-1
 804 40 l 2,55,56
 804 35 804 35 764 0 c 0,57,58
 759 0 759 0 644 120 c 1,59,-1
 644 576 l 2,60,61
 644 581 644 581 764 696 c 0,52,53
143 1789 m 1,62,-1
 151 1789 l 2,63,64
 157 1789 157 1789 247 1693 c 1,65,-1
 247 1685 l 2,66,67
 247 1679 247 1679 151 1589 c 1,68,-1
 143 1589 l 2,69,70
 137 1589 137 1589 47 1685 c 1,71,-1
 47 1693 l 2,72,73
 47 1699 47 1699 143 1789 c 1,62,-1
733 1785 m 1,74,-1
 741 1785 l 2,75,76
 747 1785 747 1785 837 1689 c 1,77,-1
 837 1681 l 2,78,79
 837 1675 837 1675 741 1585 c 1,80,-1
 733 1585 l 2,81,82
 727 1585 727 1585 637 1681 c 1,83,-1
 637 1689 l 2,84,85
 637 1695 637 1695 733 1785 c 1,74,-1
EndSplineSet
EndChar

StartChar: aring
Encoding: 229 229 165
Width: 905
Flags: W
LayerCount: 2
Fore
SplineSet
120 1428 m 1,0,-1
 688 1428 l 2,1,2
 693 1428 693 1428 728 1388 c 0,3,4
 728 1383 728 1383 608 1268 c 1,5,-1
 200 1268 l 2,6,7
 195 1268 195 1268 80 1388 c 0,8,9
 80 1393 80 1393 120 1428 c 1,0,-1
764 1388 m 0,10,11
 769 1388 769 1388 804 1348 c 1,12,-1
 804 780 l 2,13,14
 804 775 804 775 764 740 c 0,15,16
 759 740 759 740 644 860 c 1,17,-1
 644 1268 l 2,18,19
 644 1273 644 1273 764 1388 c 0,10,11
40 1384 m 0,20,21
 45 1384 45 1384 160 1264 c 1,22,-1
 160 856 l 2,23,24
 160 851 160 851 40 736 c 0,25,26
 35 736 35 736 0 776 c 1,27,-1
 0 1344 l 2,28,29
 0 1349 0 1349 40 1384 c 0,20,21
160 800 m 1,30,-1
 632 800 l 2,31,32
 637 800 637 800 712 720 c 1,33,-1
 712 716 l 2,34,35
 712 711 712 711 632 636 c 1,36,-1
 160 636 l 2,37,38
 155 636 155 636 80 716 c 1,39,-1
 80 720 l 2,40,41
 80 725 80 725 160 800 c 1,30,-1
40 696 m 0,42,43
 45 696 45 696 160 576 c 1,44,-1
 160 120 l 2,45,46
 160 115 160 115 40 0 c 0,47,48
 35 0 35 0 0 40 c 1,49,-1
 0 656 l 2,50,51
 0 661 0 661 40 696 c 0,42,43
764 696 m 0,52,53
 769 696 769 696 804 656 c 1,54,-1
 804 40 l 2,55,56
 804 35 804 35 764 0 c 0,57,58
 759 0 759 0 644 120 c 1,59,-1
 644 576 l 2,60,61
 644 581 644 581 764 696 c 0,52,53
398 1795 m 1,62,-1
 406 1795 l 2,63,64
 412 1795 412 1795 502 1699 c 1,65,-1
 502 1691 l 2,66,67
 502 1685 502 1685 406 1595 c 1,68,-1
 398 1595 l 2,69,70
 392 1595 392 1595 302 1691 c 1,71,-1
 302 1699 l 2,72,73
 302 1705 302 1705 398 1795 c 1,62,-1
EndSplineSet
EndChar

StartChar: egrave
Encoding: 232 232 168
Width: 905
Flags: W
LayerCount: 2
Fore
SplineSet
120 1428 m 1,0,-1
 688 1428 l 2,1,2
 693 1428 693 1428 728 1388 c 0,3,4
 728 1383 728 1383 608 1268 c 1,5,-1
 200 1268 l 2,6,7
 195 1268 195 1268 80 1388 c 0,8,9
 80 1393 80 1393 120 1428 c 1,0,-1
40 1384 m 0,10,11
 45 1384 45 1384 160 1264 c 1,12,-1
 160 856 l 2,13,14
 160 851 160 851 40 736 c 0,15,16
 35 736 35 736 0 776 c 1,17,-1
 0 1344 l 2,18,19
 0 1349 0 1349 40 1384 c 0,10,11
160 800 m 1,20,-1
 632 800 l 2,21,22
 637 800 637 800 712 720 c 1,23,-1
 712 716 l 2,24,25
 712 711 712 711 632 636 c 1,26,-1
 160 636 l 2,27,28
 155 636 155 636 80 716 c 1,29,-1
 80 720 l 2,30,31
 80 725 80 725 160 800 c 1,20,-1
40 696 m 0,32,33
 45 696 45 696 160 576 c 1,34,-1
 160 168 l 2,35,36
 160 163 160 163 40 48 c 0,37,38
 35 48 35 48 0 88 c 1,39,-1
 0 656 l 2,40,41
 0 661 0 661 40 696 c 0,32,33
196 160 m 1,42,-1
 604 160 l 2,43,44
 609 160 609 160 724 40 c 0,45,46
 724 35 724 35 684 0 c 1,47,-1
 116 0 l 2,48,49
 111 0 111 0 76 40 c 0,50,51
 76 45 76 45 196 160 c 1,42,-1
348 1907 m 1,52,53
 373 1907 373 1907 452 1755 c 1,54,55
 418 1595 418 1595 404 1595 c 2,56,-1
 396 1595 l 2,57,58
 382 1595 382 1595 360 1599 c 1,59,60
 343 1613 343 1613 188 1887 c 1,61,62
 195 1930 195 1930 204 1943 c 1,63,-1
 348 1907 l 1,52,53
EndSplineSet
EndChar

StartChar: eacute
Encoding: 233 233 169
Width: 905
Flags: W
LayerCount: 2
Fore
SplineSet
120 1428 m 1,0,-1
 688 1428 l 2,1,2
 693 1428 693 1428 728 1388 c 0,3,4
 728 1383 728 1383 608 1268 c 1,5,-1
 200 1268 l 2,6,7
 195 1268 195 1268 80 1388 c 0,8,9
 80 1393 80 1393 120 1428 c 1,0,-1
40 1384 m 0,10,11
 45 1384 45 1384 160 1264 c 1,12,-1
 160 856 l 2,13,14
 160 851 160 851 40 736 c 0,15,16
 35 736 35 736 0 776 c 1,17,-1
 0 1344 l 2,18,19
 0 1349 0 1349 40 1384 c 0,10,11
160 800 m 1,20,-1
 632 800 l 2,21,22
 637 800 637 800 712 720 c 1,23,-1
 712 716 l 2,24,25
 712 711 712 711 632 636 c 1,26,-1
 160 636 l 2,27,28
 155 636 155 636 80 716 c 1,29,-1
 80 720 l 2,30,31
 80 725 80 725 160 800 c 1,20,-1
40 696 m 0,32,33
 45 696 45 696 160 576 c 1,34,-1
 160 168 l 2,35,36
 160 163 160 163 40 48 c 0,37,38
 35 48 35 48 0 88 c 1,39,-1
 0 656 l 2,40,41
 0 661 0 661 40 696 c 0,32,33
196 160 m 1,42,-1
 604 160 l 2,43,44
 609 160 609 160 724 40 c 0,45,46
 724 35 724 35 684 0 c 1,47,-1
 116 0 l 2,48,49
 111 0 111 0 76 40 c 0,50,51
 76 45 76 45 196 160 c 1,42,-1
534 1943 m 1,52,53
 543 1930 543 1930 550 1887 c 1,54,55
 395 1613 395 1613 378 1599 c 1,56,57
 356 1595 356 1595 342 1595 c 2,58,-1
 334 1595 l 2,59,60
 320 1595 320 1595 286 1755 c 1,61,62
 365 1907 365 1907 390 1907 c 1,63,-1
 534 1943 l 1,52,53
EndSplineSet
EndChar

StartChar: ecircumflex
Encoding: 234 234 170
Width: 905
Flags: W
LayerCount: 2
Fore
SplineSet
120 1428 m 1,0,-1
 688 1428 l 2,1,2
 693 1428 693 1428 728 1388 c 0,3,4
 728 1383 728 1383 608 1268 c 1,5,-1
 200 1268 l 2,6,7
 195 1268 195 1268 80 1388 c 0,8,9
 80 1393 80 1393 120 1428 c 1,0,-1
40 1384 m 0,10,11
 45 1384 45 1384 160 1264 c 1,12,-1
 160 856 l 2,13,14
 160 851 160 851 40 736 c 0,15,16
 35 736 35 736 0 776 c 1,17,-1
 0 1344 l 2,18,19
 0 1349 0 1349 40 1384 c 0,10,11
160 800 m 1,20,-1
 632 800 l 2,21,22
 637 800 637 800 712 720 c 1,23,-1
 712 716 l 2,24,25
 712 711 712 711 632 636 c 1,26,-1
 160 636 l 2,27,28
 155 636 155 636 80 716 c 1,29,-1
 80 720 l 2,30,31
 80 725 80 725 160 800 c 1,20,-1
40 696 m 0,32,33
 45 696 45 696 160 576 c 1,34,-1
 160 168 l 2,35,36
 160 163 160 163 40 48 c 0,37,38
 35 48 35 48 0 88 c 1,39,-1
 0 656 l 2,40,41
 0 661 0 661 40 696 c 0,32,33
196 160 m 1,42,-1
 604 160 l 2,43,44
 609 160 609 160 724 40 c 0,45,46
 724 35 724 35 684 0 c 1,47,-1
 116 0 l 2,48,49
 111 0 111 0 76 40 c 0,50,51
 76 45 76 45 196 160 c 1,42,-1
348 1933 m 1,52,53
 357 1920 357 1920 364 1877 c 1,54,55
 209 1603 209 1603 192 1589 c 1,56,57
 170 1585 170 1585 156 1585 c 2,58,-1
 148 1585 l 2,59,60
 134 1585 134 1585 100 1745 c 1,61,62
 179 1897 179 1897 204 1897 c 1,63,-1
 348 1933 l 1,52,53
524 1893 m 1,64,65
 549 1893 549 1893 628 1741 c 1,66,67
 594 1581 594 1581 580 1581 c 2,68,-1
 572 1581 l 2,69,70
 558 1581 558 1581 536 1585 c 1,71,72
 519 1599 519 1599 364 1873 c 1,73,74
 371 1916 371 1916 380 1929 c 1,75,-1
 524 1893 l 1,64,65
EndSplineSet
EndChar

StartChar: edieresis
Encoding: 235 235 171
Width: 905
Flags: W
LayerCount: 2
Fore
SplineSet
89 1428 m 1,0,-1
 657 1428 l 2,1,2
 662 1428 662 1428 697 1388 c 0,3,4
 697 1383 697 1383 577 1268 c 1,5,-1
 169 1268 l 2,6,7
 164 1268 164 1268 49 1388 c 0,8,9
 49 1393 49 1393 89 1428 c 1,0,-1
9 1384 m 0,10,11
 14 1384 14 1384 129 1264 c 1,12,-1
 129 856 l 2,13,14
 129 851 129 851 9 736 c 0,15,16
 4 736 4 736 -31 776 c 1,17,-1
 -31 1344 l 2,18,19
 -31 1349 -31 1349 9 1384 c 0,10,11
129 800 m 1,20,-1
 601 800 l 2,21,22
 606 800 606 800 681 720 c 1,23,-1
 681 716 l 2,24,25
 681 711 681 711 601 636 c 1,26,-1
 129 636 l 2,27,28
 124 636 124 636 49 716 c 1,29,-1
 49 720 l 2,30,31
 49 725 49 725 129 800 c 1,20,-1
9 696 m 0,32,33
 14 696 14 696 129 576 c 1,34,-1
 129 168 l 2,35,36
 129 163 129 163 9 48 c 0,37,38
 4 48 4 48 -31 88 c 1,39,-1
 -31 656 l 2,40,41
 -31 661 -31 661 9 696 c 0,32,33
165 160 m 1,42,-1
 573 160 l 2,43,44
 578 160 578 160 693 40 c 0,45,46
 693 35 693 35 653 0 c 1,47,-1
 85 0 l 2,48,49
 80 0 80 0 45 40 c 0,50,51
 45 45 45 45 165 160 c 1,42,-1
74 1789 m 1,52,-1
 82 1789 l 2,53,54
 88 1789 88 1789 178 1693 c 1,55,-1
 178 1685 l 2,56,57
 178 1679 178 1679 82 1589 c 1,58,-1
 74 1589 l 2,59,60
 68 1589 68 1589 -22 1685 c 1,61,-1
 -22 1693 l 2,62,63
 -22 1699 -22 1699 74 1789 c 1,52,-1
664 1785 m 1,64,-1
 672 1785 l 2,65,66
 678 1785 678 1785 768 1689 c 1,67,-1
 768 1681 l 2,68,69
 768 1675 768 1675 672 1585 c 1,70,-1
 664 1585 l 2,71,72
 658 1585 658 1585 568 1681 c 1,73,-1
 568 1689 l 2,74,75
 568 1695 568 1695 664 1785 c 1,64,-1
EndSplineSet
EndChar

StartChar: igrave
Encoding: 236 236 172
Width: 279
Flags: W
LayerCount: 2
Fore
SplineSet
40 1428 m 0,0,1
 45 1428 45 1428 160 1308 c 1,2,-1
 160 852 l 2,3,4
 160 847 160 847 40 732 c 0,5,6
 35 732 35 732 0 772 c 1,7,-1
 0 1388 l 2,8,9
 0 1393 0 1393 40 1428 c 0,0,1
120 696 m 0,10,11
 125 696 125 696 160 656 c 1,12,-1
 160 40 l 2,13,14
 160 35 160 35 120 0 c 0,15,16
 115 0 115 0 0 120 c 1,17,-1
 0 576 l 2,18,19
 0 581 0 581 120 696 c 0,10,11
64 1907 m 1,20,21
 89 1907 89 1907 168 1755 c 1,22,23
 134 1595 134 1595 120 1595 c 2,24,-1
 112 1595 l 2,25,26
 98 1595 98 1595 76 1599 c 1,27,28
 59 1613 59 1613 -96 1887 c 1,29,30
 -89 1930 -89 1930 -80 1943 c 1,31,-1
 64 1907 l 1,20,21
EndSplineSet
EndChar

StartChar: iacute
Encoding: 237 237 173
Width: 279
Flags: W
LayerCount: 2
Fore
SplineSet
32 1428 m 0,0,1
 37 1428 37 1428 152 1308 c 1,2,-1
 152 852 l 2,3,4
 152 847 152 847 32 732 c 0,5,6
 27 732 27 732 -8 772 c 1,7,-1
 -8 1388 l 2,8,9
 -8 1393 -8 1393 32 1428 c 0,0,1
112 696 m 0,10,11
 117 696 117 696 152 656 c 1,12,-1
 152 40 l 2,13,14
 152 35 152 35 112 0 c 0,15,16
 107 0 107 0 -8 120 c 1,17,-1
 -8 576 l 2,18,19
 -8 581 -8 581 112 696 c 0,10,11
242 1943 m 1,20,21
 251 1930 251 1930 258 1887 c 1,22,23
 103 1613 103 1613 86 1599 c 1,24,25
 64 1595 64 1595 50 1595 c 2,26,-1
 42 1595 l 2,27,28
 28 1595 28 1595 -6 1755 c 1,29,30
 73 1907 73 1907 98 1907 c 1,31,-1
 242 1943 l 1,20,21
EndSplineSet
EndChar

StartChar: icircumflex
Encoding: 238 238 174
Width: 279
Flags: W
LayerCount: 2
Fore
SplineSet
40 1428 m 0,0,1
 45 1428 45 1428 160 1308 c 1,2,-1
 160 852 l 2,3,4
 160 847 160 847 40 732 c 0,5,6
 35 732 35 732 0 772 c 1,7,-1
 0 1388 l 2,8,9
 0 1393 0 1393 40 1428 c 0,0,1
120 696 m 0,10,11
 125 696 125 696 160 656 c 1,12,-1
 160 40 l 2,13,14
 160 35 160 35 120 0 c 0,15,16
 115 0 115 0 0 120 c 1,17,-1
 0 576 l 2,18,19
 0 581 0 581 120 696 c 0,10,11
64 1933 m 1,20,21
 73 1920 73 1920 80 1877 c 1,22,23
 -75 1603 -75 1603 -92 1589 c 1,24,25
 -114 1585 -114 1585 -128 1585 c 2,26,-1
 -136 1585 l 2,27,28
 -150 1585 -150 1585 -184 1745 c 1,29,30
 -105 1897 -105 1897 -80 1897 c 1,31,-1
 64 1933 l 1,20,21
240 1893 m 1,32,33
 265 1893 265 1893 344 1741 c 1,34,35
 310 1581 310 1581 296 1581 c 2,36,-1
 288 1581 l 2,37,38
 274 1581 274 1581 252 1585 c 1,39,40
 235 1599 235 1599 80 1873 c 1,41,42
 87 1916 87 1916 96 1929 c 1,43,-1
 240 1893 l 1,32,33
EndSplineSet
EndChar

StartChar: idieresis
Encoding: 239 239 175
Width: 279
Flags: W
LayerCount: 2
Fore
SplineSet
0 1428 m 0,0,1
 5 1428 5 1428 120 1308 c 1,2,-1
 120 852 l 2,3,4
 120 847 120 847 0 732 c 0,5,6
 -5 732 -5 732 -40 772 c 1,7,-1
 -40 1388 l 2,8,9
 -40 1393 -40 1393 0 1428 c 0,0,1
80 696 m 0,10,11
 85 696 85 696 120 656 c 1,12,-1
 120 40 l 2,13,14
 120 35 120 35 80 0 c 0,15,16
 75 0 75 0 -40 120 c 1,17,-1
 -40 576 l 2,18,19
 -40 581 -40 581 80 696 c 0,10,11
-219 1789 m 1,20,-1
 -211 1789 l 2,21,22
 -205 1789 -205 1789 -115 1693 c 1,23,-1
 -115 1685 l 2,24,25
 -115 1679 -115 1679 -211 1589 c 1,26,-1
 -219 1589 l 2,27,28
 -225 1589 -225 1589 -315 1685 c 1,29,-1
 -315 1693 l 2,30,31
 -315 1699 -315 1699 -219 1789 c 1,20,-1
371 1785 m 1,32,-1
 379 1785 l 2,33,34
 385 1785 385 1785 475 1689 c 1,35,-1
 475 1681 l 2,36,37
 475 1675 475 1675 379 1585 c 1,38,-1
 371 1585 l 2,39,40
 365 1585 365 1585 275 1681 c 1,41,-1
 275 1689 l 2,42,43
 275 1695 275 1695 371 1785 c 1,32,-1
EndSplineSet
EndChar

StartChar: ntilde
Encoding: 241 241 177
Width: 905
Flags: W
LayerCount: 2
Fore
SplineSet
40 1428 m 0,0,1
 45 1428 45 1428 160 1308 c 1,2,-1
 160 852 l 2,3,4
 160 847 160 847 40 732 c 0,5,6
 35 732 35 732 0 772 c 1,7,-1
 0 1388 l 2,8,9
 0 1393 0 1393 40 1428 c 0,0,1
764 1428 m 0,10,11
 769 1428 769 1428 804 1388 c 1,12,-1
 804 772 l 2,13,14
 804 767 804 767 764 732 c 0,15,16
 759 732 759 732 644 852 c 1,17,-1
 644 1308 l 2,18,19
 644 1313 644 1313 764 1428 c 0,10,11
204 1264 m 2,20,-1
 252 1264 l 1,21,22
 329 1200 329 1200 516 1004 c 1,23,24
 527 1004 527 1004 600 924 c 1,25,-1
 600 764 l 2,26,27
 600 756 600 756 592 756 c 2,28,-1
 544 756 l 2,29,30
 540 756 540 756 540 760 c 1,31,-1
 532 756 l 1,32,33
 361 936 361 936 196 1096 c 1,34,-1
 196 1256 l 2,35,36
 197 1264 197 1264 204 1264 c 2,20,-1
40 696 m 0,37,38
 45 696 45 696 160 576 c 1,39,-1
 160 120 l 2,40,41
 160 115 160 115 40 0 c 0,42,43
 35 0 35 0 0 40 c 1,44,-1
 0 656 l 2,45,46
 0 661 0 661 40 696 c 0,37,38
764 696 m 0,47,48
 769 696 769 696 804 656 c 1,49,-1
 804 40 l 2,50,51
 804 35 804 35 764 0 c 0,52,53
 759 0 759 0 644 120 c 1,54,-1
 644 576 l 2,55,56
 644 581 644 581 764 696 c 0,47,48
230 1945 m 1,57,58
 239 1932 239 1932 246 1889 c 1,59,60
 91 1615 91 1615 74 1601 c 1,61,62
 52 1597 52 1597 38 1597 c 2,63,-1
 30 1597 l 2,64,65
 16 1597 16 1597 -18 1757 c 1,66,67
 61 1909 61 1909 86 1909 c 1,68,-1
 230 1945 l 1,57,58
286 1945 m 0,69,70
 454 1905 454 1905 454 1889 c 1,71,72
 530 1758 530 1758 530 1753 c 0,73,74
 495 1597 495 1597 482 1597 c 2,75,-1
 474 1597 l 2,76,77
 427 1597 427 1597 414 1629 c 1,78,79
 266 1885 266 1885 266 1897 c 0,80,81
 276 1945 276 1945 286 1945 c 0,69,70
806 1945 m 1,82,83
 815 1932 815 1932 822 1889 c 1,84,85
 667 1615 667 1615 650 1601 c 1,86,87
 628 1597 628 1597 614 1597 c 2,88,-1
 606 1597 l 2,89,90
 592 1597 592 1597 558 1757 c 1,91,92
 637 1909 637 1909 662 1909 c 1,93,-1
 806 1945 l 1,82,83
EndSplineSet
EndChar

StartChar: ograve
Encoding: 242 242 178
Width: 905
Flags: W
LayerCount: 2
Fore
SplineSet
120 1428 m 1,0,-1
 688 1428 l 2,1,2
 693 1428 693 1428 728 1388 c 0,3,4
 728 1383 728 1383 608 1268 c 1,5,-1
 200 1268 l 2,6,7
 195 1268 195 1268 80 1388 c 0,8,9
 80 1393 80 1393 120 1428 c 1,0,-1
764 1388 m 0,10,11
 769 1388 769 1388 804 1348 c 1,12,-1
 804 780 l 2,13,14
 804 775 804 775 764 740 c 0,15,16
 759 740 759 740 644 860 c 1,17,-1
 644 1268 l 2,18,19
 644 1273 644 1273 764 1388 c 0,10,11
40 1384 m 0,20,21
 45 1384 45 1384 160 1264 c 1,22,-1
 160 856 l 2,23,24
 160 851 160 851 40 736 c 0,25,26
 35 736 35 736 0 776 c 1,27,-1
 0 1344 l 2,28,29
 0 1349 0 1349 40 1384 c 0,20,21
40 696 m 0,30,31
 45 696 45 696 160 576 c 1,32,-1
 160 168 l 2,33,34
 160 163 160 163 40 48 c 0,35,36
 35 48 35 48 0 88 c 1,37,-1
 0 656 l 2,38,39
 0 661 0 661 40 696 c 0,30,31
764 692 m 0,40,41
 769 692 769 692 804 652 c 1,42,-1
 804 84 l 2,43,44
 804 79 804 79 764 44 c 0,45,46
 759 44 759 44 644 164 c 1,47,-1
 644 572 l 2,48,49
 644 577 644 577 764 692 c 0,40,41
196 160 m 1,50,-1
 604 160 l 2,51,52
 609 160 609 160 724 40 c 0,53,54
 724 35 724 35 684 0 c 1,55,-1
 116 0 l 2,56,57
 111 0 111 0 76 40 c 0,58,59
 76 45 76 45 196 160 c 1,50,-1
386 1907 m 1,60,61
 411 1907 411 1907 490 1755 c 1,62,63
 456 1595 456 1595 442 1595 c 2,64,-1
 434 1595 l 2,65,66
 420 1595 420 1595 398 1599 c 1,67,68
 381 1613 381 1613 226 1887 c 1,69,70
 233 1930 233 1930 242 1943 c 1,71,-1
 386 1907 l 1,60,61
EndSplineSet
EndChar

StartChar: oacute
Encoding: 243 243 179
Width: 905
Flags: W
LayerCount: 2
Fore
SplineSet
120 1428 m 1,0,-1
 688 1428 l 2,1,2
 693 1428 693 1428 728 1388 c 0,3,4
 728 1383 728 1383 608 1268 c 1,5,-1
 200 1268 l 2,6,7
 195 1268 195 1268 80 1388 c 0,8,9
 80 1393 80 1393 120 1428 c 1,0,-1
764 1388 m 0,10,11
 769 1388 769 1388 804 1348 c 1,12,-1
 804 780 l 2,13,14
 804 775 804 775 764 740 c 0,15,16
 759 740 759 740 644 860 c 1,17,-1
 644 1268 l 2,18,19
 644 1273 644 1273 764 1388 c 0,10,11
40 1384 m 0,20,21
 45 1384 45 1384 160 1264 c 1,22,-1
 160 856 l 2,23,24
 160 851 160 851 40 736 c 0,25,26
 35 736 35 736 0 776 c 1,27,-1
 0 1344 l 2,28,29
 0 1349 0 1349 40 1384 c 0,20,21
40 696 m 0,30,31
 45 696 45 696 160 576 c 1,32,-1
 160 168 l 2,33,34
 160 163 160 163 40 48 c 0,35,36
 35 48 35 48 0 88 c 1,37,-1
 0 656 l 2,38,39
 0 661 0 661 40 696 c 0,30,31
764 692 m 0,40,41
 769 692 769 692 804 652 c 1,42,-1
 804 84 l 2,43,44
 804 79 804 79 764 44 c 0,45,46
 759 44 759 44 644 164 c 1,47,-1
 644 572 l 2,48,49
 644 577 644 577 764 692 c 0,40,41
196 160 m 1,50,-1
 604 160 l 2,51,52
 609 160 609 160 724 40 c 0,53,54
 724 35 724 35 684 0 c 1,55,-1
 116 0 l 2,56,57
 111 0 111 0 76 40 c 0,58,59
 76 45 76 45 196 160 c 1,50,-1
572 1943 m 1,60,61
 581 1930 581 1930 588 1887 c 1,62,63
 433 1613 433 1613 416 1599 c 1,64,65
 394 1595 394 1595 380 1595 c 2,66,-1
 372 1595 l 2,67,68
 358 1595 358 1595 324 1755 c 1,69,70
 403 1907 403 1907 428 1907 c 1,71,-1
 572 1943 l 1,60,61
EndSplineSet
EndChar

StartChar: ocircumflex
Encoding: 244 244 180
Width: 905
Flags: W
LayerCount: 2
Fore
SplineSet
120 1428 m 1,0,-1
 688 1428 l 2,1,2
 693 1428 693 1428 728 1388 c 0,3,4
 728 1383 728 1383 608 1268 c 1,5,-1
 200 1268 l 2,6,7
 195 1268 195 1268 80 1388 c 0,8,9
 80 1393 80 1393 120 1428 c 1,0,-1
764 1388 m 0,10,11
 769 1388 769 1388 804 1348 c 1,12,-1
 804 780 l 2,13,14
 804 775 804 775 764 740 c 0,15,16
 759 740 759 740 644 860 c 1,17,-1
 644 1268 l 2,18,19
 644 1273 644 1273 764 1388 c 0,10,11
40 1384 m 0,20,21
 45 1384 45 1384 160 1264 c 1,22,-1
 160 856 l 2,23,24
 160 851 160 851 40 736 c 0,25,26
 35 736 35 736 0 776 c 1,27,-1
 0 1344 l 2,28,29
 0 1349 0 1349 40 1384 c 0,20,21
40 696 m 0,30,31
 45 696 45 696 160 576 c 1,32,-1
 160 168 l 2,33,34
 160 163 160 163 40 48 c 0,35,36
 35 48 35 48 0 88 c 1,37,-1
 0 656 l 2,38,39
 0 661 0 661 40 696 c 0,30,31
764 692 m 0,40,41
 769 692 769 692 804 652 c 1,42,-1
 804 84 l 2,43,44
 804 79 804 79 764 44 c 0,45,46
 759 44 759 44 644 164 c 1,47,-1
 644 572 l 2,48,49
 644 577 644 577 764 692 c 0,40,41
196 160 m 1,50,-1
 604 160 l 2,51,52
 609 160 609 160 724 40 c 0,53,54
 724 35 724 35 684 0 c 1,55,-1
 116 0 l 2,56,57
 111 0 111 0 76 40 c 0,58,59
 76 45 76 45 196 160 c 1,50,-1
386 1933 m 1,60,61
 395 1920 395 1920 402 1877 c 1,62,63
 247 1603 247 1603 230 1589 c 1,64,65
 208 1585 208 1585 194 1585 c 2,66,-1
 186 1585 l 2,67,68
 172 1585 172 1585 138 1745 c 1,69,70
 217 1897 217 1897 242 1897 c 1,71,-1
 386 1933 l 1,60,61
562 1893 m 1,72,73
 587 1893 587 1893 666 1741 c 1,74,75
 632 1581 632 1581 618 1581 c 2,76,-1
 610 1581 l 2,77,78
 596 1581 596 1581 574 1585 c 1,79,80
 557 1599 557 1599 402 1873 c 1,81,82
 409 1916 409 1916 418 1929 c 1,83,-1
 562 1893 l 1,72,73
EndSplineSet
EndChar

StartChar: otilde
Encoding: 245 245 181
Width: 905
Flags: W
LayerCount: 2
Fore
SplineSet
120 1428 m 1,0,-1
 688 1428 l 2,1,2
 693 1428 693 1428 728 1388 c 0,3,4
 728 1383 728 1383 608 1268 c 1,5,-1
 200 1268 l 2,6,7
 195 1268 195 1268 80 1388 c 0,8,9
 80 1393 80 1393 120 1428 c 1,0,-1
764 1388 m 0,10,11
 769 1388 769 1388 804 1348 c 1,12,-1
 804 780 l 2,13,14
 804 775 804 775 764 740 c 0,15,16
 759 740 759 740 644 860 c 1,17,-1
 644 1268 l 2,18,19
 644 1273 644 1273 764 1388 c 0,10,11
40 1384 m 0,20,21
 45 1384 45 1384 160 1264 c 1,22,-1
 160 856 l 2,23,24
 160 851 160 851 40 736 c 0,25,26
 35 736 35 736 0 776 c 1,27,-1
 0 1344 l 2,28,29
 0 1349 0 1349 40 1384 c 0,20,21
40 696 m 0,30,31
 45 696 45 696 160 576 c 1,32,-1
 160 168 l 2,33,34
 160 163 160 163 40 48 c 0,35,36
 35 48 35 48 0 88 c 1,37,-1
 0 656 l 2,38,39
 0 661 0 661 40 696 c 0,30,31
764 692 m 0,40,41
 769 692 769 692 804 652 c 1,42,-1
 804 84 l 2,43,44
 804 79 804 79 764 44 c 0,45,46
 759 44 759 44 644 164 c 1,47,-1
 644 572 l 2,48,49
 644 577 644 577 764 692 c 0,40,41
196 160 m 1,50,-1
 604 160 l 2,51,52
 609 160 609 160 724 40 c 0,53,54
 724 35 724 35 684 0 c 1,55,-1
 116 0 l 2,56,57
 111 0 111 0 76 40 c 0,58,59
 76 45 76 45 196 160 c 1,50,-1
230 1945 m 1,60,61
 239 1932 239 1932 246 1889 c 1,62,63
 91 1615 91 1615 74 1601 c 1,64,65
 52 1597 52 1597 38 1597 c 2,66,-1
 30 1597 l 2,67,68
 16 1597 16 1597 -18 1757 c 1,69,70
 61 1909 61 1909 86 1909 c 1,71,-1
 230 1945 l 1,60,61
286 1945 m 0,72,73
 454 1905 454 1905 454 1889 c 1,74,75
 530 1758 530 1758 530 1753 c 0,76,77
 495 1597 495 1597 482 1597 c 2,78,-1
 474 1597 l 2,79,80
 427 1597 427 1597 414 1629 c 1,81,82
 266 1885 266 1885 266 1897 c 0,83,84
 276 1945 276 1945 286 1945 c 0,72,73
806 1945 m 1,85,86
 815 1932 815 1932 822 1889 c 1,87,88
 667 1615 667 1615 650 1601 c 1,89,90
 628 1597 628 1597 614 1597 c 2,91,-1
 606 1597 l 2,92,93
 592 1597 592 1597 558 1757 c 1,94,95
 637 1909 637 1909 662 1909 c 1,96,-1
 806 1945 l 1,85,86
EndSplineSet
EndChar

StartChar: odieresis
Encoding: 246 246 182
Width: 905
Flags: W
LayerCount: 2
Fore
SplineSet
120 1428 m 1,0,-1
 688 1428 l 2,1,2
 693 1428 693 1428 728 1388 c 0,3,4
 728 1383 728 1383 608 1268 c 1,5,-1
 200 1268 l 2,6,7
 195 1268 195 1268 80 1388 c 0,8,9
 80 1393 80 1393 120 1428 c 1,0,-1
764 1388 m 0,10,11
 769 1388 769 1388 804 1348 c 1,12,-1
 804 780 l 2,13,14
 804 775 804 775 764 740 c 0,15,16
 759 740 759 740 644 860 c 1,17,-1
 644 1268 l 2,18,19
 644 1273 644 1273 764 1388 c 0,10,11
40 1384 m 0,20,21
 45 1384 45 1384 160 1264 c 1,22,-1
 160 856 l 2,23,24
 160 851 160 851 40 736 c 0,25,26
 35 736 35 736 0 776 c 1,27,-1
 0 1344 l 2,28,29
 0 1349 0 1349 40 1384 c 0,20,21
40 696 m 0,30,31
 45 696 45 696 160 576 c 1,32,-1
 160 168 l 2,33,34
 160 163 160 163 40 48 c 0,35,36
 35 48 35 48 0 88 c 1,37,-1
 0 656 l 2,38,39
 0 661 0 661 40 696 c 0,30,31
764 692 m 0,40,41
 769 692 769 692 804 652 c 1,42,-1
 804 84 l 2,43,44
 804 79 804 79 764 44 c 0,45,46
 759 44 759 44 644 164 c 1,47,-1
 644 572 l 2,48,49
 644 577 644 577 764 692 c 0,40,41
196 160 m 1,50,-1
 604 160 l 2,51,52
 609 160 609 160 724 40 c 0,53,54
 724 35 724 35 684 0 c 1,55,-1
 116 0 l 2,56,57
 111 0 111 0 76 40 c 0,58,59
 76 45 76 45 196 160 c 1,50,-1
143 1789 m 1,60,-1
 151 1789 l 2,61,62
 157 1789 157 1789 247 1693 c 1,63,-1
 247 1685 l 2,64,65
 247 1679 247 1679 151 1589 c 1,66,-1
 143 1589 l 2,67,68
 137 1589 137 1589 47 1685 c 1,69,-1
 47 1693 l 2,70,71
 47 1699 47 1699 143 1789 c 1,60,-1
733 1785 m 1,72,-1
 741 1785 l 2,73,74
 747 1785 747 1785 837 1689 c 1,75,-1
 837 1681 l 2,76,77
 837 1675 837 1675 741 1585 c 1,78,-1
 733 1585 l 2,79,80
 727 1585 727 1585 637 1681 c 1,81,-1
 637 1689 l 2,82,83
 637 1695 637 1695 733 1785 c 1,72,-1
EndSplineSet
EndChar

StartChar: ugrave
Encoding: 249 249 185
Width: 905
Flags: W
LayerCount: 2
Fore
SplineSet
40 1428 m 0,0,1
 45 1428 45 1428 160 1308 c 1,2,-1
 160 852 l 2,3,4
 160 847 160 847 40 732 c 0,5,6
 35 732 35 732 0 772 c 1,7,-1
 0 1388 l 2,8,9
 0 1393 0 1393 40 1428 c 0,0,1
764 1428 m 0,10,11
 769 1428 769 1428 804 1388 c 1,12,-1
 804 772 l 2,13,14
 804 767 804 767 764 732 c 0,15,16
 759 732 759 732 644 852 c 1,17,-1
 644 1308 l 2,18,19
 644 1313 644 1313 764 1428 c 0,10,11
40 692 m 0,20,21
 45 692 45 692 160 572 c 1,22,-1
 160 164 l 2,23,24
 160 159 160 159 40 44 c 0,25,26
 35 44 35 44 0 84 c 1,27,-1
 0 652 l 2,28,29
 0 657 0 657 40 692 c 0,20,21
764 688 m 0,30,31
 769 688 769 688 804 648 c 1,32,-1
 804 80 l 2,33,34
 804 75 804 75 764 40 c 0,35,36
 759 40 759 40 644 160 c 1,37,-1
 644 568 l 2,38,39
 644 573 644 573 764 688 c 0,30,31
200 160 m 1,40,-1
 608 160 l 2,41,42
 613 160 613 160 728 40 c 0,43,44
 728 35 728 35 688 0 c 1,45,-1
 120 0 l 2,46,47
 115 0 115 0 80 40 c 0,48,49
 80 45 80 45 200 160 c 1,40,-1
386 1907 m 1,50,51
 411 1907 411 1907 490 1755 c 1,52,53
 456 1595 456 1595 442 1595 c 2,54,-1
 434 1595 l 2,55,56
 420 1595 420 1595 398 1599 c 1,57,58
 381 1613 381 1613 226 1887 c 1,59,60
 233 1930 233 1930 242 1943 c 1,61,-1
 386 1907 l 1,50,51
EndSplineSet
EndChar

StartChar: uacute
Encoding: 250 250 186
Width: 905
Flags: W
LayerCount: 2
Fore
SplineSet
40 1428 m 0,0,1
 45 1428 45 1428 160 1308 c 1,2,-1
 160 852 l 2,3,4
 160 847 160 847 40 732 c 0,5,6
 35 732 35 732 0 772 c 1,7,-1
 0 1388 l 2,8,9
 0 1393 0 1393 40 1428 c 0,0,1
764 1428 m 0,10,11
 769 1428 769 1428 804 1388 c 1,12,-1
 804 772 l 2,13,14
 804 767 804 767 764 732 c 0,15,16
 759 732 759 732 644 852 c 1,17,-1
 644 1308 l 2,18,19
 644 1313 644 1313 764 1428 c 0,10,11
40 692 m 0,20,21
 45 692 45 692 160 572 c 1,22,-1
 160 164 l 2,23,24
 160 159 160 159 40 44 c 0,25,26
 35 44 35 44 0 84 c 1,27,-1
 0 652 l 2,28,29
 0 657 0 657 40 692 c 0,20,21
764 688 m 0,30,31
 769 688 769 688 804 648 c 1,32,-1
 804 80 l 2,33,34
 804 75 804 75 764 40 c 0,35,36
 759 40 759 40 644 160 c 1,37,-1
 644 568 l 2,38,39
 644 573 644 573 764 688 c 0,30,31
200 160 m 1,40,-1
 608 160 l 2,41,42
 613 160 613 160 728 40 c 0,43,44
 728 35 728 35 688 0 c 1,45,-1
 120 0 l 2,46,47
 115 0 115 0 80 40 c 0,48,49
 80 45 80 45 200 160 c 1,40,-1
572 1943 m 1,50,51
 581 1930 581 1930 588 1887 c 1,52,53
 433 1613 433 1613 416 1599 c 1,54,55
 394 1595 394 1595 380 1595 c 2,56,-1
 372 1595 l 2,57,58
 358 1595 358 1595 324 1755 c 1,59,60
 403 1907 403 1907 428 1907 c 1,61,-1
 572 1943 l 1,50,51
EndSplineSet
EndChar

StartChar: ucircumflex
Encoding: 251 251 187
Width: 905
Flags: W
LayerCount: 2
Fore
SplineSet
40 1428 m 0,0,1
 45 1428 45 1428 160 1308 c 1,2,-1
 160 852 l 2,3,4
 160 847 160 847 40 732 c 0,5,6
 35 732 35 732 0 772 c 1,7,-1
 0 1388 l 2,8,9
 0 1393 0 1393 40 1428 c 0,0,1
764 1428 m 0,10,11
 769 1428 769 1428 804 1388 c 1,12,-1
 804 772 l 2,13,14
 804 767 804 767 764 732 c 0,15,16
 759 732 759 732 644 852 c 1,17,-1
 644 1308 l 2,18,19
 644 1313 644 1313 764 1428 c 0,10,11
40 692 m 0,20,21
 45 692 45 692 160 572 c 1,22,-1
 160 164 l 2,23,24
 160 159 160 159 40 44 c 0,25,26
 35 44 35 44 0 84 c 1,27,-1
 0 652 l 2,28,29
 0 657 0 657 40 692 c 0,20,21
764 688 m 0,30,31
 769 688 769 688 804 648 c 1,32,-1
 804 80 l 2,33,34
 804 75 804 75 764 40 c 0,35,36
 759 40 759 40 644 160 c 1,37,-1
 644 568 l 2,38,39
 644 573 644 573 764 688 c 0,30,31
200 160 m 1,40,-1
 608 160 l 2,41,42
 613 160 613 160 728 40 c 0,43,44
 728 35 728 35 688 0 c 1,45,-1
 120 0 l 2,46,47
 115 0 115 0 80 40 c 0,48,49
 80 45 80 45 200 160 c 1,40,-1
386 1933 m 1,50,51
 395 1920 395 1920 402 1877 c 1,52,53
 247 1603 247 1603 230 1589 c 1,54,55
 208 1585 208 1585 194 1585 c 2,56,-1
 186 1585 l 2,57,58
 172 1585 172 1585 138 1745 c 1,59,60
 217 1897 217 1897 242 1897 c 1,61,-1
 386 1933 l 1,50,51
562 1893 m 1,62,63
 587 1893 587 1893 666 1741 c 1,64,65
 632 1581 632 1581 618 1581 c 2,66,-1
 610 1581 l 2,67,68
 596 1581 596 1581 574 1585 c 1,69,70
 557 1599 557 1599 402 1873 c 1,71,72
 409 1916 409 1916 418 1929 c 1,73,-1
 562 1893 l 1,62,63
EndSplineSet
EndChar

StartChar: udieresis
Encoding: 252 252 188
Width: 905
Flags: W
LayerCount: 2
Fore
SplineSet
40 1428 m 0,0,1
 45 1428 45 1428 160 1308 c 1,2,-1
 160 852 l 2,3,4
 160 847 160 847 40 732 c 0,5,6
 35 732 35 732 0 772 c 1,7,-1
 0 1388 l 2,8,9
 0 1393 0 1393 40 1428 c 0,0,1
764 1428 m 0,10,11
 769 1428 769 1428 804 1388 c 1,12,-1
 804 772 l 2,13,14
 804 767 804 767 764 732 c 0,15,16
 759 732 759 732 644 852 c 1,17,-1
 644 1308 l 2,18,19
 644 1313 644 1313 764 1428 c 0,10,11
40 692 m 0,20,21
 45 692 45 692 160 572 c 1,22,-1
 160 164 l 2,23,24
 160 159 160 159 40 44 c 0,25,26
 35 44 35 44 0 84 c 1,27,-1
 0 652 l 2,28,29
 0 657 0 657 40 692 c 0,20,21
764 688 m 0,30,31
 769 688 769 688 804 648 c 1,32,-1
 804 80 l 2,33,34
 804 75 804 75 764 40 c 0,35,36
 759 40 759 40 644 160 c 1,37,-1
 644 568 l 2,38,39
 644 573 644 573 764 688 c 0,30,31
200 160 m 1,40,-1
 608 160 l 2,41,42
 613 160 613 160 728 40 c 0,43,44
 728 35 728 35 688 0 c 1,45,-1
 120 0 l 2,46,47
 115 0 115 0 80 40 c 0,48,49
 80 45 80 45 200 160 c 1,40,-1
143 1789 m 1,50,-1
 151 1789 l 2,51,52
 157 1789 157 1789 247 1693 c 1,53,-1
 247 1685 l 2,54,55
 247 1679 247 1679 151 1589 c 1,56,-1
 143 1589 l 2,57,58
 137 1589 137 1589 47 1685 c 1,59,-1
 47 1693 l 2,60,61
 47 1699 47 1699 143 1789 c 1,50,-1
733 1785 m 1,62,-1
 741 1785 l 2,63,64
 747 1785 747 1785 837 1689 c 1,65,-1
 837 1681 l 2,66,67
 837 1675 837 1675 741 1585 c 1,68,-1
 733 1585 l 2,69,70
 727 1585 727 1585 637 1681 c 1,71,-1
 637 1689 l 2,72,73
 637 1695 637 1695 733 1785 c 1,62,-1
EndSplineSet
EndChar

StartChar: circumflex
Encoding: 710 710 193
Width: 1024
Flags: W
LayerCount: 2
Fore
SplineSet
444 1523 m 1,0,1
 453 1510 453 1510 460 1467 c 1,2,3
 305 1193 305 1193 288 1179 c 1,4,5
 266 1175 266 1175 252 1175 c 2,6,-1
 244 1175 l 2,7,8
 230 1175 230 1175 196 1335 c 1,9,10
 275 1487 275 1487 300 1487 c 1,11,-1
 444 1523 l 1,0,1
620 1483 m 1,12,13
 645 1483 645 1483 724 1331 c 1,14,15
 690 1171 690 1171 676 1171 c 2,16,-1
 668 1171 l 2,17,18
 654 1171 654 1171 632 1175 c 1,19,20
 615 1189 615 1189 460 1463 c 1,21,22
 467 1506 467 1506 476 1519 c 1,23,-1
 620 1483 l 1,12,13
EndSplineSet
EndChar

StartChar: ring
Encoding: 730 730 198
Width: 1024
Flags: W
LayerCount: 2
Fore
SplineSet
470 1385 m 1,0,-1
 478 1385 l 2,1,2
 484 1385 484 1385 574 1289 c 1,3,-1
 574 1281 l 2,4,5
 574 1275 574 1275 478 1185 c 1,6,-1
 470 1185 l 2,7,8
 464 1185 464 1185 374 1281 c 1,9,-1
 374 1289 l 2,10,11
 374 1295 374 1295 470 1385 c 1,0,-1
EndSplineSet
EndChar

StartChar: tilde
Encoding: 732 732 200
Width: 1024
Flags: W
LayerCount: 2
Fore
SplineSet
317 1535 m 1,0,1
 326 1522 326 1522 333 1479 c 1,2,3
 178 1205 178 1205 161 1191 c 1,4,5
 139 1187 139 1187 125 1187 c 2,6,-1
 117 1187 l 2,7,8
 103 1187 103 1187 69 1347 c 1,9,10
 148 1499 148 1499 173 1499 c 1,11,-1
 317 1535 l 1,0,1
373 1535 m 0,12,13
 541 1495 541 1495 541 1479 c 1,14,15
 617 1348 617 1348 617 1343 c 0,16,17
 582 1187 582 1187 569 1187 c 2,18,-1
 561 1187 l 2,19,20
 514 1187 514 1187 501 1219 c 1,21,22
 353 1475 353 1475 353 1487 c 0,23,24
 363 1535 363 1535 373 1535 c 0,12,13
893 1535 m 1,25,26
 902 1522 902 1522 909 1479 c 1,27,28
 754 1205 754 1205 737 1191 c 1,29,30
 715 1187 715 1187 701 1187 c 2,31,-1
 693 1187 l 2,32,33
 679 1187 679 1187 645 1347 c 1,34,35
 724 1499 724 1499 749 1499 c 1,36,-1
 893 1535 l 1,25,26
EndSplineSet
EndChar

StartChar: endash
Encoding: 8211 8211 202
Width: 646
Flags: W
LayerCount: 2
Fore
SplineSet
89 164 m 1,0,-1
 561 164 l 2,1,2
 566 164 566 164 641 84 c 1,3,-1
 641 80 l 2,4,5
 641 75 641 75 561 0 c 1,6,-1
 89 0 l 2,7,8
 84 0 84 0 9 80 c 1,9,-1
 9 84 l 2,10,11
 9 89 9 89 89 164 c 1,0,-1
EndSplineSet
EndChar

StartChar: emdash
Encoding: 8212 8212 203
Width: 646
Flags: W
LayerCount: 2
Fore
SplineSet
89 164 m 1,0,-1
 561 164 l 2,1,2
 566 164 566 164 641 84 c 1,3,-1
 641 80 l 2,4,5
 641 75 641 75 561 0 c 1,6,-1
 89 0 l 2,7,8
 84 0 84 0 9 80 c 1,9,-1
 9 84 l 2,10,11
 9 89 9 89 89 164 c 1,0,-1
EndSplineSet
EndChar

StartChar: quotedblleft
Encoding: 8220 8220 207
Width: 406
Flags: W
LayerCount: 2
Fore
SplineSet
20 2115 m 0,0,1
 25 2115 25 2115 80 2055 c 1,2,-1
 80 1843 l 2,3,4
 80 1838 80 1838 20 1783 c 0,5,6
 15 1783 15 1783 0 1803 c 1,7,-1
 0 2095 l 2,8,9
 0 2100 0 2100 20 2115 c 0,0,1
221 2115 m 0,10,11
 226 2115 226 2115 281 2055 c 1,12,-1
 281 1843 l 2,13,14
 281 1838 281 1838 221 1783 c 0,15,16
 216 1783 216 1783 201 1803 c 1,17,-1
 201 2095 l 2,18,19
 201 2100 201 2100 221 2115 c 0,10,11
EndSplineSet
EndChar

StartChar: quotedblright
Encoding: 8221 8221 208
Width: 406
Flags: W
LayerCount: 2
Fore
SplineSet
281 2095 m 2,1,-1
 281 1803 l 1,2,3
 266 1783 266 1783 261 1783 c 0,4,5
 201 1838 201 1838 201 1843 c 2,6,-1
 201 2055 l 1,7,8
 256 2115 256 2115 261 2115 c 0,9,0
 281 2100 281 2100 281 2095 c 2,1,-1
80 2095 m 2,11,-1
 80 1803 l 1,12,13
 65 1783 65 1783 60 1783 c 0,14,15
 0 1838 0 1838 0 1843 c 2,16,-1
 0 2055 l 1,17,18
 55 2115 55 2115 60 2115 c 0,19,10
 80 2100 80 2100 80 2095 c 2,11,-1
EndSplineSet
EndChar

StartChar: minus
Encoding: 8722 8722 227
Width: 656
Flags: W
LayerCount: 2
Fore
SplineSet
89 974 m 1,0,-1
 561 974 l 2,1,2
 566 974 566 974 641 894 c 1,3,-1
 641 890 l 2,4,5
 641 885 641 885 561 810 c 1,6,-1
 89 810 l 2,7,8
 84 810 84 810 9 890 c 1,9,-1
 9 894 l 2,10,11
 9 899 9 899 89 974 c 1,0,-1
EndSplineSet
EndChar

